{
copyright = "Copyright 2009-2012 vernon adams.";
customParameters = (
{
name = openTypeHeadFlags;
value = (
    0,
    1,
    3
);
},
{
name = openTypeHeadLowestRecPPEM;
value = 8;
},
{
name = openTypeHheaCaretOffset;
value = 0;
},
{
name = openTypeHheaCaretSlopeRise;
value = 1;
},
{
name = openTypeHheaCaretSlopeRun;
value = 0;
},
{
name = openTypeNameLicenseURL;
value = "http://scripts.sil.org/OFL";
},
{
name = openTypeNameUniqueID;
value = "1.001;newt;OxygenSans-Bold";
},
{
name = openTypeNameVersion;
value = "Version 1.001;PS (version unavailable);hotconv 1.0.57;makeotf.lib2.0.21895 DEVELOPMENT";
},
{
name = openTypeOS2CodePageRanges;
value = (
    0,
    1,
    2,
    3,
    4,
    7,
    9,
    32
);
},
{
name = openTypeOS2Panose;
value = (
    0,
    0,
    0,
    0,
    0,
    0,
    0,
    0,
    0,
    0
);
},
{
name = openTypeOS2Selection;
value = (
);
},
{
name = openTypeOS2StrikeoutPosition;
value = 610;
},
{
name = openTypeOS2StrikeoutSize;
value = 50;
},
{
name = openTypeOS2SubscriptXOffset;
value = 0;
},
{
name = openTypeOS2SubscriptXSize;
value = 1331;
},
{
name = openTypeOS2SubscriptYOffset;
value = 153;
},
{
name = openTypeOS2SubscriptYSize;
value = 1228;
},
{
name = openTypeOS2SuperscriptXOffset;
value = 0;
},
{
name = openTypeOS2SuperscriptXSize;
value = 1331;
},
{
name = openTypeOS2SuperscriptYOffset;
value = 716;
},
{
name = openTypeOS2SuperscriptYSize;
value = 1228;
},
{
name = openTypeOS2Type;
value = (
    3
);
},
{
name = openTypeOS2UnicodeRanges;
value = (
    0,
    1,
    2,
    3,
    7
);
},
{
name = openTypeOS2VendorID;
value = newt;
},
{
name = postscriptBlueFuzz;
value = 1;
},
{
name = postscriptBlueScale;
value = 0.039625;
},
{
name = postscriptBlueShift;
value = 7;
},
{
name = postscriptDefaultWidthX;
value = 407;
},
{
name = postscriptFamilyBlues;
value = (
);
},
{
name = postscriptFamilyOtherBlues;
value = (
);
},
{
name = postscriptFontName;
value = "OxygenSans-Bold";
},
{
name = postscriptForceBold;
value = 1;
},
{

glyphs = (
{
glyphname = A;
lastChange = "2012-12-23 00:49:48 +0000";
layers = (
{
anchors = (
{
name = ogonek;
position = "{1310, 10}";
},
{
name = top;
position = "{720, 0}";
}
);
layerId = "DC6F5AB8-73F2-4C0B-9A3E-015FFB242135";
name = Bold;
paths = (
{
closed = 1;
nodes = (
"543 1336 LINE",
"64 0 LINE",
"363 0 LINE",
"489 365 LINE",
"945 365 LINE",
"1079 0 LINE",
"1375 0 LINE",
"898 1336 LINE"
);
},
{
closed = 1;
nodes = (
"886 555 LINE",
"550 555 LINE",
"724 1093 LINE"
);
}
);
width = 1439;
}
);
unicode = 0041;
},
{
glyphname = Aacute;
layers = (
{
layerId = "DC6F5AB8-73F2-4C0B-9A3E-015FFB242135";
name = Bold;
paths = (
{
closed = 1;
nodes = (
"635 1479 LINE",
"792 1479 LINE",
"1087 1840 LINE",
"795 1840 LINE"
);
},
{
closed = 1;
nodes = (
"90 0 LINE",
"545 1336 LINE",
"883 1336 LINE",
"1337 0 LINE",
"1051 0 LINE",
"924 365 LINE",
"498 365 LINE",
"378 0 LINE"
);
},
{
closed = 1;
nodes = (
"556 555 LINE",
"868 555 LINE",
"718 1093 LINE"
);
}
);
width = 1427;
}
);
unicode = 00C1;
},
{
glyphname = Abreve;
layers = (
{
layerId = "DC6F5AB8-73F2-4C0B-9A3E-015FFB242135";
name = Bold;
paths = (
{
closed = 1;
nodes = (
"982.5 1722 LINE",
"982.5 1556 OFFCURVE",
"865.5 1479 OFFCURVE",
"712.5 1479 CURVE SMOOTH",
"560.5 1479 OFFCURVE",
"444.5 1557 OFFCURVE",
"444.5 1722 CURVE",
"612.5 1722 LINE",
"612.5 1661 OFFCURVE",
"638.5 1637 OFFCURVE",
"712.5 1637 CURVE SMOOTH",
"786.5 1637 OFFCURVE",
"813.5 1661 OFFCURVE",
"813.5 1722 CURVE"
);
},
{
closed = 1;
nodes = (
"90 0 LINE",
"545 1336 LINE",
"883 1336 LINE",
"1337 0 LINE",
"1051 0 LINE",
"924 365 LINE",
"498 365 LINE",
"378 0 LINE"
);
},
{
closed = 1;
nodes = (
"556 555 LINE",
"868 555 LINE",
"718 1093 LINE"
);
}
);
width = 1427;
}
);
unicode = 0102;
},
{
glyphname = Acircumflex;
layers = (
{
layerId = "DC6F5AB8-73F2-4C0B-9A3E-015FFB242135";
name = Bold;
paths = (
{
closed = 1;
nodes = (
"380 1479 LINE",
"561 1479 LINE",
"703 1673 LINE",
"861 1479 LINE",
"1047 1479 LINE",
"811 1847 LINE",
"615 1847 LINE"
);
},
{
closed = 1;
nodes = (
"90 0 LINE",
"545 1336 LINE",
"883 1336 LINE",
"1337 0 LINE",
"1051 0 LINE",
"924 365 LINE",
"498 365 LINE",
"378 0 LINE"
);
},
{
closed = 1;
nodes = (
"556 555 LINE",
"868 555 LINE",
"718 1093 LINE"
);
}
);
width = 1427;
}
);
unicode = 00C2;
},
{
glyphname = Adieresis;
layers = (
{
layerId = "DC6F5AB8-73F2-4C0B-9A3E-015FFB242135";
name = Bold;
paths = (
{
closed = 1;
nodes = (
"805 1479 LINE",
"998 1479 LINE",
"998 1724 LINE",
"805 1724 LINE"
);
},
{
closed = 1;
nodes = (
"429 1479 LINE",
"623 1479 LINE",
"623 1724 LINE",
"429 1724 LINE"
);
},
{
closed = 1;
nodes = (
"90 0 LINE",
"545 1336 LINE",
"883 1336 LINE",
"1337 0 LINE",
"1051 0 LINE",
"924 365 LINE",
"498 365 LINE",
"378 0 LINE"
);
},
{
closed = 1;
nodes = (
"556 555 LINE",
"868 555 LINE",
"718 1093 LINE"
);
}
);
width = 1427;
}
);
unicode = 00C4;
},
{
glyphname = Agrave;
layers = (
{
layerId = "DC6F5AB8-73F2-4C0B-9A3E-015FFB242135";
name = Bold;
paths = (
{
closed = 1;
nodes = (
"631 1479 LINE",
"796 1479 LINE",
"619 1840 LINE",
"320 1840 LINE"
);
},
{
closed = 1;
nodes = (
"90 0 LINE",
"545 1336 LINE",
"883 1336 LINE",
"1337 0 LINE",
"1051 0 LINE",
"924 365 LINE",
"498 365 LINE",
"378 0 LINE"
);
},
{
closed = 1;
nodes = (
"556 555 LINE",
"868 555 LINE",
"718 1093 LINE"
);
}
);
width = 1427;
}
);
unicode = 00C0;
},
{
glyphname = Amacron;
layers = (
{
layerId = "DC6F5AB8-73F2-4C0B-9A3E-015FFB242135";
name = Bold;
paths = (
{
closed = 1;
nodes = (
"389 1479 LINE",
"1038 1479 LINE",
"1038 1638 LINE",
"389 1638 LINE"
);
},
{
closed = 1;
nodes = (
"90 0 LINE",
"545 1336 LINE",
"883 1336 LINE",
"1337 0 LINE",
"1051 0 LINE",
"924 365 LINE",
"498 365 LINE",
"378 0 LINE"
);
},
{
closed = 1;
nodes = (
"556 555 LINE",
"868 555 LINE",
"718 1093 LINE"
);
}
);
width = 1427;
}
);
unicode = 0100;
},
{
glyphname = Aogonek;
layers = (
{
layerId = "DC6F5AB8-73F2-4C0B-9A3E-015FFB242135";
name = Bold;
paths = (
{
closed = 1;
nodes = (
"539.5 -339 OFFCURVE",
"630.5 -393 OFFCURVE",
"734.5 -393 CURVE SMOOTH",
"793.5 -393 OFFCURVE",
"854.5 -378 OFFCURVE",
"909.5 -357 CURVE",
"909.5 -357 OFFCURVE",
"902.5 -216 OFFCURVE",
"901.5 -216 CURVE",
"889.5 -221 OFFCURVE",
"830.5 -247 OFFCURVE",
"778.5 -247 CURVE SMOOTH",
"740.5 -247 OFFCURVE",
"714.5 -212 OFFCURVE",
"714.5 -178 CURVE SMOOTH",
"714.5 -123 OFFCURVE",
"746.5 -59 OFFCURVE",
"820.5 -2 CURVE",
"713.5 13.5664 LINE",
"642.5 -27 OFFCURVE",
"539.5 -102 OFFCURVE",
"539.5 -225 CURVE SMOOTH"
);
},
{
closed = 1;
nodes = (
"90 0 LINE",
"545 1336 LINE",
"883 1336 LINE",
"1337 0 LINE",
"1051 0 LINE",
"924 365 LINE",
"498 365 LINE",
"378 0 LINE"
);
},
{
closed = 1;
nodes = (
"556 555 LINE",
"868 555 LINE",
"718 1093 LINE"
);
}
);
width = 1427;
}
);
unicode = 0104;
},
{
glyphname = Aring;
layers = (
{
layerId = "DC6F5AB8-73F2-4C0B-9A3E-015FFB242135";
name = Bold;
paths = (
{
closed = 1;
nodes = (
"507.5 1436.97 OFFCURVE",
"584.5 1343.97 OFFCURVE",
"713.5 1343.97 CURVE SMOOTH",
"842.5 1343.97 OFFCURVE",
"919.5 1436.97 OFFCURVE",
"919.5 1539.97 CURVE SMOOTH",
"919.5 1641.97 OFFCURVE",
"844.5 1734.97 OFFCURVE",
"713.5 1734.97 CURVE SMOOTH",
"583.5 1734.97 OFFCURVE",
"507.5 1642.97 OFFCURVE",
"507.5 1539.97 CURVE SMOOTH"
);
},
{
closed = 1;
nodes = (
"799.5 1488.97 OFFCURVE",
"768.5 1444.97 OFFCURVE",
"713.5 1444.97 CURVE SMOOTH",
"656.5 1444.97 OFFCURVE",
"628.5 1487.97 OFFCURVE",
"628.5 1539.97 CURVE SMOOTH",
"628.5 1587.97 OFFCURVE",
"660.5 1634.97 OFFCURVE",
"713.5 1634.97 CURVE SMOOTH",
"768.5 1634.97 OFFCURVE",
"799.5 1588.97 OFFCURVE",
"799.5 1539.97 CURVE SMOOTH"
);
},
{
closed = 1;
nodes = (
"90 0 LINE",
"545 1336 LINE",
"883 1336 LINE",
"1337 0 LINE",
"1051 0 LINE",
"924 365 LINE",
"498 365 LINE",
"378 0 LINE"
);
},
{
closed = 1;
nodes = (
"556 555 LINE",
"868 555 LINE",
"718 1093 LINE"
);
}
);
width = 1427;
}
);
unicode = 00C5;
},
{
glyphname = Aringacute;
layers = (
{
layerId = "DC6F5AB8-73F2-4C0B-9A3E-015FFB242135";
name = Bold;
paths = (
{
closed = 1;
nodes = (
"635 1856.97 LINE",
"792 1856.97 LINE",
"1087 2217.97 LINE",
"795 2217.97 LINE"
);
},
{
closed = 1;
nodes = (
"507.5 1436.97 OFFCURVE",
"584.5 1343.97 OFFCURVE",
"713.5 1343.97 CURVE SMOOTH",
"842.5 1343.97 OFFCURVE",
"919.5 1436.97 OFFCURVE",
"919.5 1539.97 CURVE SMOOTH",
"919.5 1641.97 OFFCURVE",
"844.5 1734.97 OFFCURVE",
"713.5 1734.97 CURVE SMOOTH",
"583.5 1734.97 OFFCURVE",
"507.5 1642.97 OFFCURVE",
"507.5 1539.97 CURVE SMOOTH"
);
},
{
closed = 1;
nodes = (
"799.5 1488.97 OFFCURVE",
"768.5 1444.97 OFFCURVE",
"713.5 1444.97 CURVE SMOOTH",
"656.5 1444.97 OFFCURVE",
"628.5 1487.97 OFFCURVE",
"628.5 1539.97 CURVE SMOOTH",
"628.5 1587.97 OFFCURVE",
"660.5 1634.97 OFFCURVE",
"713.5 1634.97 CURVE SMOOTH",
"768.5 1634.97 OFFCURVE",
"799.5 1588.97 OFFCURVE",
"799.5 1539.97 CURVE SMOOTH"
);
},
{
closed = 1;
nodes = (
"90 0 LINE",
"545 1336 LINE",
"883 1336 LINE",
"1337 0 LINE",
"1051 0 LINE",
"924 365 LINE",
"498 365 LINE",
"378 0 LINE"
);
},
{
closed = 1;
nodes = (
"556 555 LINE",
"868 555 LINE",
"718 1093 LINE"
);
}
);
width = 1427;
}
);
unicode = 01FA;
},
{
glyphname = Atilde;
layers = (
{
layerId = "DC6F5AB8-73F2-4C0B-9A3E-015FFB242135";
name = Bold;
paths = (
{
closed = 1;
nodes = (
"398 1489 LINE",
"398 1583 OFFCURVE",
"412 1721 OFFCURVE",
"560 1721 CURVE SMOOTH",
"681 1721 OFFCURVE",
"816 1636 OFFCURVE",
"847 1636 CURVE SMOOTH",
"867 1637 OFFCURVE",
"879 1721 OFFCURVE",
"879 1721 CURVE",
"1029 1721 LINE",
"1029 1721 OFFCURVE",
"1019 1479 OFFCURVE",
"871 1479 CURVE SMOOTH",
"770 1479 OFFCURVE",
"637 1569 OFFCURVE",
"580 1569 CURVE SMOOTH",
"559 1569 OFFCURVE",
"545 1479 OFFCURVE",
"545 1479 CURVE"
);
},
{
closed = 1;
nodes = (
"90 0 LINE",
"545 1336 LINE",
"883 1336 LINE",
"1337 0 LINE",
"1051 0 LINE",
"924 365 LINE",
"498 365 LINE",
"378 0 LINE"
);
},
{
closed = 1;
nodes = (
"556 555 LINE",
"868 555 LINE",
"718 1093 LINE"
);
}
);
width = 1427;
}
);
unicode = 00C3;
},
{
glyphname = AE;
layers = (
{
anchors = (
{
name = top;
position = "{891, 0}";
}
);
layerId = "DC6F5AB8-73F2-4C0B-9A3E-015FFB242135";
name = Bold;
paths = (
{
closed = 1;
nodes = (
"928 538 LINE",
"589 538 LINE",
"887 1087 LINE"
);
},
{
closed = 1;
nodes = (
"1141 1161 LINE",
"1676 1161 LINE",
"1692 1355 LINE",
"781 1355 LINE",
"23 0 LINE",
"316 0 LINE",
"495 334 LINE",
"944 334 LINE",
"971 0 LINE",
"1709 0 LINE",
"1723 194 LINE",
"1221 194 LINE",
"1188 592 LINE",
"1655 592 LINE",
"1655 785 LINE",
"1168 785 LINE"
);
}
);
width = 1781;
}
);
unicode = 00C6;
},
{
glyphname = AEacute;
layers = (
{
layerId = "DC6F5AB8-73F2-4C0B-9A3E-015FFB242135";
name = Bold;
paths = (
{
closed = 1;
nodes = (
"794.5 1479 LINE",
"951.5 1479 LINE",
"1246.5 1840 LINE",
"954.5 1840 LINE"
);
},
{
closed = 1;
nodes = (
"928 538 LINE",
"589 538 LINE",
"887 1087 LINE"
);
},
{
closed = 1;
nodes = (
"1141 1161 LINE",
"1676 1161 LINE",
"1692 1355 LINE",
"781 1355 LINE",
"23 0 LINE",
"316 0 LINE",
"495 334 LINE",
"944 334 LINE",
"971 0 LINE",
"1709 0 LINE",
"1723 194 LINE",
"1221 194 LINE",
"1188 592 LINE",
"1655 592 LINE",
"1655 785 LINE",
"1168 785 LINE"
);
}
);
width = 1781;
}
);
unicode = 01FC;
},
{
glyphname = uni01E2;
layers = (
{
layerId = "DC6F5AB8-73F2-4C0B-9A3E-015FFB242135";
name = Bold;
paths = (
{
closed = 1;
nodes = (
"548.5 1479 LINE",
"1197.5 1479 LINE",
"1197.5 1638 LINE",
"548.5 1638 LINE"
);
},
{
closed = 1;
nodes = (
"928 538 LINE",
"589 538 LINE",
"887 1087 LINE"
);
},
{
closed = 1;
nodes = (
"1141 1161 LINE",
"1676 1161 LINE",
"1692 1355 LINE",
"781 1355 LINE",
"23 0 LINE",
"316 0 LINE",
"495 334 LINE",
"944 334 LINE",
"971 0 LINE",
"1709 0 LINE",
"1723 194 LINE",
"1221 194 LINE",
"1188 592 LINE",
"1655 592 LINE",
"1655 785 LINE",
"1168 785 LINE"
);
}
);
width = 1781;
}
);
unicode = 01E2;
},
{
glyphname = B;
lastChange = "2012-12-23 00:47:36 +0000";
layers = (
{
layerId = "DC6F5AB8-73F2-4C0B-9A3E-015FFB242135";
name = Bold;
paths = (
{
closed = 1;
nodes = (
"176 1336 LINE",
"176 0 LINE",
"725 0 LINE SMOOTH",
"1026 0 OFFCURVE",
"1223 133 OFFCURVE",
"1223 393 CURVE SMOOTH",
"1223 551 OFFCURVE",
"1131 665 OFFCURVE",
"988 715 CURVE",
"1132 783 OFFCURVE",
"1175 919 OFFCURVE",
"1175 1000 CURVE SMOOTH",
"1175 1254 OFFCURVE",
"986 1336 OFFCURVE",
"656 1336 CURVE SMOOTH"
);
},
{
closed = 1;
nodes = (
"852 604 OFFCURVE",
"935 554 OFFCURVE",
"935 412 CURVE SMOOTH",
"935 270 OFFCURVE",
"850 216 OFFCURVE",
"673 216 CURVE SMOOTH",
"464 216 LINE",
"464 604 LINE",
"667 604 LINE SMOOTH"
);
},
{
closed = 1;
nodes = (
"808 1126 OFFCURVE",
"895 1093 OFFCURVE",
"895 956 CURVE SMOOTH",
"895 834 OFFCURVE",
"821 793 OFFCURVE",
"670 793 CURVE SMOOTH",
"464 793 LINE",
"464 1126 LINE",
"622 1126 LINE SMOOTH"
);
}
);
width = 1349;
}
);
unicode = 0042;
},
{
glyphname = C;
lastChange = "2012-12-23 00:50:38 +0000";
layers = (
{
anchors = (
{
name = bottom;
position = "{646, 0}";
},
{
name = top;
position = "{646, 0}";
}
);
layerId = "DC6F5AB8-73F2-4C0B-9A3E-015FFB242135";
name = Bold;
paths = (
{
closed = 1;
nodes = (
"389 1357 OFFCURVE",
"120 1114 OFFCURVE",
"120 677 CURVE SMOOTH",
"120 236 OFFCURVE",
"391 -18 OFFCURVE",
"773 -18 CURVE SMOOTH",
"918 -18 OFFCURVE",
"1013 13 OFFCURVE",
"1137 75 CURVE",
"1082 293 LINE",
"982 236 OFFCURVE",
"891 210 OFFCURVE",
"792 213 CURVE SMOOTH",
"557 220 OFFCURVE",
"408 380 OFFCURVE",
"408 671 CURVE SMOOTH",
"408 963 OFFCURVE",
"583 1110 OFFCURVE",
"750 1123 CURVE SMOOTH",
"868 1132 OFFCURVE",
"984 1088 OFFCURVE",
"1080 1033 CURVE",
"1163 1247 LINE",
"1041 1318 OFFCURVE",
"903 1357 OFFCURVE",
"764 1357 CURVE SMOOTH"
);
}
);
width = 1265;
}
);
unicode = 0043;
},
{
glyphname = Cacute;
layers = (
{
layerId = "DC6F5AB8-73F2-4C0B-9A3E-015FFB242135";
name = Bold;
paths = (
{
closed = 1;
nodes = (
"575 1479 LINE",
"732 1479 LINE",
"1027 1840 LINE",
"735 1840 LINE"
);
},
{
closed = 1;
nodes = (
"1025 13 OFFCURVE",
"933 -18 OFFCURVE",
"788 -18 CURVE SMOOTH",
"406 -18 OFFCURVE",
"132 236 OFFCURVE",
"132 677 CURVE SMOOTH",
"132 1114 OFFCURVE",
"404 1357 OFFCURVE",
"779 1357 CURVE SMOOTH",
"918 1357 OFFCURVE",
"1053 1318 OFFCURVE",
"1175 1247 CURVE",
"1092 1033 LINE",
"996 1088 OFFCURVE",
"883 1132 OFFCURVE",
"765 1123 CURVE SMOOTH",
"598 1110 OFFCURVE",
"420 963 OFFCURVE",
"420 671 CURVE SMOOTH",
"420 380 OFFCURVE",
"568 220 OFFCURVE",
"803 213 CURVE SMOOTH",
"902 210 OFFCURVE",
"994 236 OFFCURVE",
"1094 293 CURVE",
"1149 75 LINE"
);
}
);
width = 1253;
}
);
unicode = 0106;
},
{
glyphname = Ccaron;
layers = (
{
layerId = "DC6F5AB8-73F2-4C0B-9A3E-015FFB242135";
name = Bold;
paths = (
{
closed = 1;
nodes = (
"558.5 1479 LINE",
"748.5 1479 LINE",
"996.5 1816 LINE",
"791.5 1816 LINE",
"641.5 1645 LINE",
"511.5 1816 LINE",
"310.5 1816 LINE"
);
},
{
closed = 1;
nodes = (
"1025 13 OFFCURVE",
"933 -18 OFFCURVE",
"788 -18 CURVE SMOOTH",
"406 -18 OFFCURVE",
"132 236 OFFCURVE",
"132 677 CURVE SMOOTH",
"132 1114 OFFCURVE",
"404 1357 OFFCURVE",
"779 1357 CURVE SMOOTH",
"918 1357 OFFCURVE",
"1053 1318 OFFCURVE",
"1175 1247 CURVE",
"1092 1033 LINE",
"996 1088 OFFCURVE",
"883 1132 OFFCURVE",
"765 1123 CURVE SMOOTH",
"598 1110 OFFCURVE",
"420 963 OFFCURVE",
"420 671 CURVE SMOOTH",
"420 380 OFFCURVE",
"568 220 OFFCURVE",
"803 213 CURVE SMOOTH",
"902 210 OFFCURVE",
"994 236 OFFCURVE",
"1094 293 CURVE",
"1149 75 LINE"
);
}
);
width = 1253;
}
);
unicode = 010C;
},
{
glyphname = Ccedilla;
layers = (
{
layerId = "DC6F5AB8-73F2-4C0B-9A3E-015FFB242135";
name = Bold;
paths = (
{
closed = 1;
nodes = (
"464 -363 LINE",
"673 -363 LINE",
"727 -6 LINE",
"580 -6 LINE"
);
},
{
closed = 1;
nodes = (
"1025 13 OFFCURVE",
"933 -18 OFFCURVE",
"788 -18 CURVE SMOOTH",
"406 -18 OFFCURVE",
"132 236 OFFCURVE",
"132 677 CURVE SMOOTH",
"132 1114 OFFCURVE",
"404 1357 OFFCURVE",
"779 1357 CURVE SMOOTH",
"918 1357 OFFCURVE",
"1053 1318 OFFCURVE",
"1175 1247 CURVE",
"1092 1033 LINE",
"996 1088 OFFCURVE",
"883 1132 OFFCURVE",
"765 1123 CURVE SMOOTH",
"598 1110 OFFCURVE",
"420 963 OFFCURVE",
"420 671 CURVE SMOOTH",
"420 380 OFFCURVE",
"568 220 OFFCURVE",
"803 213 CURVE SMOOTH",
"902 210 OFFCURVE",
"994 236 OFFCURVE",
"1094 293 CURVE",
"1149 75 LINE"
);
}
);
width = 1253;
}
);
unicode = 00C7;
},
{
glyphname = Ccircumflex;
layers = (
{
layerId = "DC6F5AB8-73F2-4C0B-9A3E-015FFB242135";
name = Bold;
paths = (
{
closed = 1;
nodes = (
"320 1479 LINE",
"501 1479 LINE",
"643 1673 LINE",
"801 1479 LINE",
"987 1479 LINE",
"751 1847 LINE",
"555 1847 LINE"
);
},
{
closed = 1;
nodes = (
"1025 13 OFFCURVE",
"933 -18 OFFCURVE",
"788 -18 CURVE SMOOTH",
"406 -18 OFFCURVE",
"132 236 OFFCURVE",
"132 677 CURVE SMOOTH",
"132 1114 OFFCURVE",
"404 1357 OFFCURVE",
"779 1357 CURVE SMOOTH",
"918 1357 OFFCURVE",
"1053 1318 OFFCURVE",
"1175 1247 CURVE",
"1092 1033 LINE",
"996 1088 OFFCURVE",
"883 1132 OFFCURVE",
"765 1123 CURVE SMOOTH",
"598 1110 OFFCURVE",
"420 963 OFFCURVE",
"420 671 CURVE SMOOTH",
"420 380 OFFCURVE",
"568 220 OFFCURVE",
"803 213 CURVE SMOOTH",
"902 210 OFFCURVE",
"994 236 OFFCURVE",
"1094 293 CURVE",
"1149 75 LINE"
);
}
);
width = 1253;
}
);
unicode = 0108;
},
{
glyphname = Cdotaccent;
layers = (
{
layerId = "DC6F5AB8-73F2-4C0B-9A3E-015FFB242135";
name = Bold;
paths = (
{
closed = 1;
nodes = (
"554.5 1479 LINE",
"752.5 1479 LINE",
"752.5 1691 LINE",
"554.5 1691 LINE"
);
},
{
closed = 1;
nodes = (
"1025 13 OFFCURVE",
"933 -18 OFFCURVE",
"788 -18 CURVE SMOOTH",
"406 -18 OFFCURVE",
"132 236 OFFCURVE",
"132 677 CURVE SMOOTH",
"132 1114 OFFCURVE",
"404 1357 OFFCURVE",
"779 1357 CURVE SMOOTH",
"918 1357 OFFCURVE",
"1053 1318 OFFCURVE",
"1175 1247 CURVE",
"1092 1033 LINE",
"996 1088 OFFCURVE",
"883 1132 OFFCURVE",
"765 1123 CURVE SMOOTH",
"598 1110 OFFCURVE",
"420 963 OFFCURVE",
"420 671 CURVE SMOOTH",
"420 380 OFFCURVE",
"568 220 OFFCURVE",
"803 213 CURVE SMOOTH",
"902 210 OFFCURVE",
"994 236 OFFCURVE",
"1094 293 CURVE",
"1149 75 LINE"
);
}
);
width = 1253;
}
);
unicode = 010A;
},
{
glyphname = D;
lastChange = "2012-12-23 00:47:12 +0000";
layers = (
{
anchors = (
{
name = center;
position = "{751, 0}";
},
{
name = top;
position = "{751, 0}";
}
);
layerId = "DC6F5AB8-73F2-4C0B-9A3E-015FFB242135";
name = Bold;
paths = (
{
closed = 1;
nodes = (
"176 1336 LINE",
"176 0 LINE",
"616 0 LINE SMOOTH",
"1059 0 OFFCURVE",
"1367 238 OFFCURVE",
"1367 676 CURVE SMOOTH",
"1367 1130 OFFCURVE",
"1042 1336 OFFCURVE",
"593 1336 CURVE SMOOTH"
);
},
{
closed = 1;
nodes = (
"912 1126 OFFCURVE",
"1080 992 OFFCURVE",
"1080 671 CURVE SMOOTH",
"1080 377 OFFCURVE",
"920 216 OFFCURVE",
"630 216 CURVE SMOOTH",
"464 216 LINE",
"464 1126 LINE",
"604 1126 LINE SMOOTH"
);
}
);
width = 1487;
}
);
unicode = 0044;
},
{
glyphname = Eth;
layers = (
{
layerId = "DC6F5AB8-73F2-4C0B-9A3E-015FFB242135";
name = Bold;
paths = (
{
closed = 1;
nodes = (
"110 768 LINE",
"-1 768 LINE",
"-1 586 LINE",
"110 586 LINE",
"110 1 LINE",
"549 1 LINE SMOOTH",
"984 1 OFFCURVE",
"1288 230 OFFCURVE",
"1288 668 CURVE SMOOTH",
"1288 1163 OFFCURVE",
"948 1340 OFFCURVE",
"467 1340 CURVE SMOOTH",
"110 1340 LINE"
);
},
{
closed = 1;
nodes = (
"367 590 LINE",
"542 590 LINE",
"542 772 LINE",
"367 772 LINE",
"367 1135 LINE",
"484 1135 LINE SMOOTH",
"842 1135 OFFCURVE",
"1027 1025 OFFCURVE",
"1027 669 CURVE SMOOTH",
"1027 372 OFFCURVE",
"862 211 OFFCURVE",
"565 211 CURVE SMOOTH",
"367 211 LINE"
);
}
);
width = 1340;
}
);
unicode = 00D0;
},
{
glyphname = Dcaron;
layers = (
{
layerId = "DC6F5AB8-73F2-4C0B-9A3E-015FFB242135";
name = Bold;
paths = (
{
closed = 1;
nodes = (
"683 1479 LINE",
"873 1479 LINE",
"1121 1816 LINE",
"916 1816 LINE",
"766 1645 LINE",
"636 1816 LINE",
"435 1816 LINE"
);
},
{
closed = 1;
nodes = (
"202 0 LINE",
"623 0 LINE SMOOTH",
"1066 0 OFFCURVE",
"1354 238 OFFCURVE",
"1354 676 CURVE SMOOTH",
"1354 1130 OFFCURVE",
"1049 1336 OFFCURVE",
"600 1336 CURVE SMOOTH",
"202 1336 LINE"
);
},
{
closed = 1;
nodes = (
"490 1126 LINE",
"611 1126 LINE SMOOTH",
"919 1126 OFFCURVE",
"1067 992 OFFCURVE",
"1067 671 CURVE SMOOTH",
"1067 377 OFFCURVE",
"927 216 OFFCURVE",
"637 216 CURVE SMOOTH",
"490 216 LINE"
);
}
);
width = 1486;
}
);
unicode = 010E;
},
{
glyphname = E;
lastChange = "2012-12-23 00:51:01 +0000";
layers = (
{
anchors = (
{
name = bottom;
position = "{617, 0}";
},
{
name = ogonek;
position = "{1113, 10}";
},
{
name = top;
position = "{617, 0}";
}
);
layerId = "DC6F5AB8-73F2-4C0B-9A3E-015FFB242135";
name = Bold;
paths = (
{
closed = 1;
nodes = (
"176 1336 LINE",
"176 0 LINE",
"1056 0 LINE",
"1073 216 LINE",
"464 216 LINE",
"464 595 LINE",
"1025 595 LINE",
"1025 805 LINE",
"464 805 LINE",
"464 1126 LINE",
"1052 1126 LINE",
"1063 1336 LINE"
);
}
);
width = 1193;
}
);
unicode = 0045;
},
{
glyphname = Eacute;
layers = (
{
layerId = "DC6F5AB8-73F2-4C0B-9A3E-015FFB242135";
name = Bold;
paths = (
{
closed = 1;
nodes = (
"543.5 1479 LINE",
"700.5 1479 LINE",
"995.5 1840 LINE",
"703.5 1840 LINE"
);
},
{
closed = 1;
nodes = (
"490 1126 LINE",
"1021 1126 LINE",
"1032 1336 LINE",
"202 1336 LINE",
"202 0 LINE",
"1025 0 LINE",
"1042 216 LINE",
"490 216 LINE",
"490 595 LINE",
"994 595 LINE",
"994 805 LINE",
"490 805 LINE"
);
}
);
width = 1164;
}
);
unicode = 00C9;
},
{
glyphname = Ebreve;
layers = (
{
layerId = "DC6F5AB8-73F2-4C0B-9A3E-015FFB242135";
name = Bold;
paths = (
{
closed = 1;
nodes = (
"891 1722 LINE",
"891 1556 OFFCURVE",
"774 1479 OFFCURVE",
"621 1479 CURVE SMOOTH",
"469 1479 OFFCURVE",
"353 1557 OFFCURVE",
"353 1722 CURVE",
"521 1722 LINE",
"521 1661 OFFCURVE",
"547 1637 OFFCURVE",
"621 1637 CURVE SMOOTH",
"695 1637 OFFCURVE",
"722 1661 OFFCURVE",
"722 1722 CURVE"
);
},
{
closed = 1;
nodes = (
"490 1126 LINE",
"1021 1126 LINE",
"1032 1336 LINE",
"202 1336 LINE",
"202 0 LINE",
"1025 0 LINE",
"1042 216 LINE",
"490 216 LINE",
"490 595 LINE",
"994 595 LINE",
"994 805 LINE",
"490 805 LINE"
);
}
);
width = 1164;
}
);
unicode = 0114;
},
{
glyphname = Ecaron;
layers = (
{
layerId = "DC6F5AB8-73F2-4C0B-9A3E-015FFB242135";
name = Bold;
paths = (
{
closed = 1;
nodes = (
"527 1479 LINE",
"717 1479 LINE",
"965 1816 LINE",
"760 1816 LINE",
"610 1645 LINE",
"480 1816 LINE",
"279 1816 LINE"
);
},
{
closed = 1;
nodes = (
"490 1126 LINE",
"1021 1126 LINE",
"1032 1336 LINE",
"202 1336 LINE",
"202 0 LINE",
"1025 0 LINE",
"1042 216 LINE",
"490 216 LINE",
"490 595 LINE",
"994 595 LINE",
"994 805 LINE",
"490 805 LINE"
);
}
);
width = 1164;
}
);
unicode = 011A;
},
{
glyphname = Ecircumflex;
layers = (
{
layerId = "DC6F5AB8-73F2-4C0B-9A3E-015FFB242135";
name = Bold;
paths = (
{
closed = 1;
nodes = (
"288.5 1479 LINE",
"469.5 1479 LINE",
"611.5 1673 LINE",
"769.5 1479 LINE",
"955.5 1479 LINE",
"719.5 1847 LINE",
"523.5 1847 LINE"
);
},
{
closed = 1;
nodes = (
"490 1126 LINE",
"1021 1126 LINE",
"1032 1336 LINE",
"202 1336 LINE",
"202 0 LINE",
"1025 0 LINE",
"1042 216 LINE",
"490 216 LINE",
"490 595 LINE",
"994 595 LINE",
"994 805 LINE",
"490 805 LINE"
);
}
);
width = 1164;
}
);
unicode = 00CA;
},
{
glyphname = Edieresis;
layers = (
{
layerId = "DC6F5AB8-73F2-4C0B-9A3E-015FFB242135";
name = Bold;
paths = (
{
closed = 1;
nodes = (
"713.5 1479 LINE",
"906.5 1479 LINE",
"906.5 1724 LINE",
"713.5 1724 LINE"
);
},
{
closed = 1;
nodes = (
"337.5 1479 LINE",
"531.5 1479 LINE",
"531.5 1724 LINE",
"337.5 1724 LINE"
);
},
{
closed = 1;
nodes = (
"490 1126 LINE",
"1021 1126 LINE",
"1032 1336 LINE",
"202 1336 LINE",
"202 0 LINE",
"1025 0 LINE",
"1042 216 LINE",
"490 216 LINE",
"490 595 LINE",
"994 595 LINE",
"994 805 LINE",
"490 805 LINE"
);
}
);
width = 1164;
}
);
unicode = 00CB;
},
{
glyphname = Edotaccent;
layers = (
{
layerId = "DC6F5AB8-73F2-4C0B-9A3E-015FFB242135";
name = Bold;
paths = (
{
closed = 1;
nodes = (
"523 1479 LINE",
"721 1479 LINE",
"721 1691 LINE",
"523 1691 LINE"
);
},
{
closed = 1;
nodes = (
"490 1126 LINE",
"1021 1126 LINE",
"1032 1336 LINE",
"202 1336 LINE",
"202 0 LINE",
"1025 0 LINE",
"1042 216 LINE",
"490 216 LINE",
"490 595 LINE",
"994 595 LINE",
"994 805 LINE",
"490 805 LINE"
);
}
);
width = 1164;
}
);
unicode = 0116;
},
{
glyphname = Egrave;
layers = (
{
layerId = "DC6F5AB8-73F2-4C0B-9A3E-015FFB242135";
name = Bold;
paths = (
{
closed = 1;
nodes = (
"539.5 1479 LINE",
"704.5 1479 LINE",
"527.5 1840 LINE",
"228.5 1840 LINE"
);
},
{
closed = 1;
nodes = (
"490 1126 LINE",
"1021 1126 LINE",
"1032 1336 LINE",
"202 1336 LINE",
"202 0 LINE",
"1025 0 LINE",
"1042 216 LINE",
"490 216 LINE",
"490 595 LINE",
"994 595 LINE",
"994 805 LINE",
"490 805 LINE"
);
}
);
width = 1164;
}
);
unicode = 00C8;
},
{
glyphname = Emacron;
layers = (
{
layerId = "DC6F5AB8-73F2-4C0B-9A3E-015FFB242135";
name = Bold;
paths = (
{
closed = 1;
nodes = (
"297.5 1479 LINE",
"946.5 1479 LINE",
"946.5 1638 LINE",
"297.5 1638 LINE"
);
},
{
closed = 1;
nodes = (
"490 1126 LINE",
"1021 1126 LINE",
"1032 1336 LINE",
"202 1336 LINE",
"202 0 LINE",
"1025 0 LINE",
"1042 216 LINE",
"490 216 LINE",
"490 595 LINE",
"994 595 LINE",
"994 805 LINE",
"490 805 LINE"
);
}
);
width = 1164;
}
);
unicode = 0112;
},
{
glyphname = Eogonek;
layers = (
{
layerId = "DC6F5AB8-73F2-4C0B-9A3E-015FFB242135";
name = Bold;
paths = (
{
closed = 1;
nodes = (
"448 -339 OFFCURVE",
"539 -393 OFFCURVE",
"643 -393 CURVE SMOOTH",
"702 -393 OFFCURVE",
"763 -378 OFFCURVE",
"818 -357 CURVE",
"818 -357 OFFCURVE",
"811 -216 OFFCURVE",
"810 -216 CURVE",
"798 -221 OFFCURVE",
"739 -247 OFFCURVE",
"687 -247 CURVE SMOOTH",
"649 -247 OFFCURVE",
"623 -212 OFFCURVE",
"623 -178 CURVE SMOOTH",
"623 -123 OFFCURVE",
"655 -59 OFFCURVE",
"729 -2 CURVE",
"622 13.5664 LINE",
"551 -27 OFFCURVE",
"448 -102 OFFCURVE",
"448 -225 CURVE SMOOTH"
);
},
{
closed = 1;
nodes = (
"490 1126 LINE",
"1021 1126 LINE",
"1032 1336 LINE",
"202 1336 LINE",
"202 0 LINE",
"1025 0 LINE",
"1042 216 LINE",
"490 216 LINE",
"490 595 LINE",
"994 595 LINE",
"994 805 LINE",
"490 805 LINE"
);
}
);
width = 1164;
}
);
unicode = 0118;
},
{
glyphname = F;
lastChange = "2012-12-23 00:51:22 +0000";
layers = (
{
layerId = "DC6F5AB8-73F2-4C0B-9A3E-015FFB242135";
name = Bold;
paths = (
{
closed = 1;
nodes = (
"176 1336 LINE",
"176 0 LINE",
"464 0 LINE",
"464 556 LINE",
"1019 556 LINE",
"1019 765 LINE",
"464 765 LINE",
"464 1116 LINE",
"1075 1116 LINE",
"1087 1336 LINE"
);
}
);
width = 1133;
}
);
unicode = 0046;
},
{
glyphname = G;
lastChange = "2012-12-23 00:52:04 +0000";
layers = (
{
anchors = (
{
name = bottom;
position = "{701, 0}";
},
{
name = top;
position = "{701, 0}";
}
);
layerId = "DC6F5AB8-73F2-4C0B-9A3E-015FFB242135";
name = Bold;
paths = (
{
closed = 1;
nodes = (
"370 1357 OFFCURVE",
"120 1105 OFFCURVE",
"120 672 CURVE SMOOTH",
"120 248 OFFCURVE",
"366 -18 OFFCURVE",
"766 -18 CURVE SMOOTH",
"949 -18 OFFCURVE",
"1098 17 OFFCURVE",
"1246 82 CURVE",
"1246 727 LINE",
"713 727 LINE",
"713 519 LINE",
"999 519 LINE",
"999 245 LINE",
"936 222 OFFCURVE",
"856 213 OFFCURVE",
"777 213 CURVE SMOOTH",
"522 213 OFFCURVE",
"408 383 OFFCURVE",
"408 670 CURVE SMOOTH",
"408 964 OFFCURVE",
"535 1139 OFFCURVE",
"797 1129 CURVE SMOOTH",
"921 1124 OFFCURVE",
"1042 1090 OFFCURVE",
"1139 1042 CURVE",
"1228 1253 LINE",
"1100 1317 OFFCURVE",
"956 1357 OFFCURVE",
"792 1357 CURVE SMOOTH"
);
}
);
width = 1412;
}
);
unicode = 0047;
},
{
glyphname = Gbreve;
layers = (
{
layerId = "DC6F5AB8-73F2-4C0B-9A3E-015FFB242135";
name = Bold;
paths = (
{
closed = 1;
nodes = (
"955.5 1722 LINE",
"955.5 1556 OFFCURVE",
"838.5 1479 OFFCURVE",
"685.5 1479 CURVE SMOOTH",
"533.5 1479 OFFCURVE",
"417.5 1557 OFFCURVE",
"417.5 1722 CURVE",
"585.5 1722 LINE",
"585.5 1661 OFFCURVE",
"611.5 1637 OFFCURVE",
"685.5 1637 CURVE SMOOTH",
"759.5 1637 OFFCURVE",
"786.5 1661 OFFCURVE",
"786.5 1722 CURVE"
);
},
{
closed = 1;
nodes = (
"1093 17 OFFCURVE",
"961 -18 OFFCURVE",
"778 -18 CURVE SMOOTH",
"378 -18 OFFCURVE",
"132 248 OFFCURVE",
"132 672 CURVE SMOOTH",
"132 1105 OFFCURVE",
"382 1357 OFFCURVE",
"804 1357 CURVE SMOOTH",
"968 1357 OFFCURVE",
"1095 1317 OFFCURVE",
"1223 1253 CURVE",
"1134 1042 LINE",
"1037 1090 OFFCURVE",
"933 1124 OFFCURVE",
"809 1129 CURVE SMOOTH",
"547 1139 OFFCURVE",
"420 964 OFFCURVE",
"420 670 CURVE SMOOTH",
"420 383 OFFCURVE",
"534 213 OFFCURVE",
"789 213 CURVE SMOOTH",
"868 213 OFFCURVE",
"931 222 OFFCURVE",
"994 245 CURVE",
"994 519 LINE",
"725 519 LINE",
"725 727 LINE",
"1241 727 LINE",
"1241 82 LINE"
);
}
);
width = 1391;
}
);
unicode = 011E;
},
{
glyphname = Gcaron;
layers = (
{
layerId = "DC6F5AB8-73F2-4C0B-9A3E-015FFB242135";
name = Bold;
paths = (
{
closed = 1;
nodes = (
"591.5 1479 LINE",
"781.5 1479 LINE",
"1029.5 1816 LINE",
"824.5 1816 LINE",
"674.5 1645 LINE",
"544.5 1816 LINE",
"343.5 1816 LINE"
);
},
{
closed = 1;
nodes = (
"1093 17 OFFCURVE",
"961 -18 OFFCURVE",
"778 -18 CURVE SMOOTH",
"378 -18 OFFCURVE",
"132 248 OFFCURVE",
"132 672 CURVE SMOOTH",
"132 1105 OFFCURVE",
"382 1357 OFFCURVE",
"804 1357 CURVE SMOOTH",
"968 1357 OFFCURVE",
"1095 1317 OFFCURVE",
"1223 1253 CURVE",
"1134 1042 LINE",
"1037 1090 OFFCURVE",
"933 1124 OFFCURVE",
"809 1129 CURVE SMOOTH",
"547 1139 OFFCURVE",
"420 964 OFFCURVE",
"420 670 CURVE SMOOTH",
"420 383 OFFCURVE",
"534 213 OFFCURVE",
"789 213 CURVE SMOOTH",
"868 213 OFFCURVE",
"931 222 OFFCURVE",
"994 245 CURVE",
"994 519 LINE",
"725 519 LINE",
"725 727 LINE",
"1241 727 LINE",
"1241 82 LINE"
);
}
);
width = 1391;
}
);
unicode = 01E6;
},
{
glyphname = Gcircumflex;
layers = (
{
layerId = "DC6F5AB8-73F2-4C0B-9A3E-015FFB242135";
name = Bold;
paths = (
{
closed = 1;
nodes = (
"353 1479 LINE",
"534 1479 LINE",
"676 1673 LINE",
"834 1479 LINE",
"1020 1479 LINE",
"784 1847 LINE",
"588 1847 LINE"
);
},
{
closed = 1;
nodes = (
"1093 17 OFFCURVE",
"961 -18 OFFCURVE",
"778 -18 CURVE SMOOTH",
"378 -18 OFFCURVE",
"132 248 OFFCURVE",
"132 672 CURVE SMOOTH",
"132 1105 OFFCURVE",
"382 1357 OFFCURVE",
"804 1357 CURVE SMOOTH",
"968 1357 OFFCURVE",
"1095 1317 OFFCURVE",
"1223 1253 CURVE",
"1134 1042 LINE",
"1037 1090 OFFCURVE",
"933 1124 OFFCURVE",
"809 1129 CURVE SMOOTH",
"547 1139 OFFCURVE",
"420 964 OFFCURVE",
"420 670 CURVE SMOOTH",
"420 383 OFFCURVE",
"534 213 OFFCURVE",
"789 213 CURVE SMOOTH",
"868 213 OFFCURVE",
"931 222 OFFCURVE",
"994 245 CURVE",
"994 519 LINE",
"725 519 LINE",
"725 727 LINE",
"1241 727 LINE",
"1241 82 LINE"
);
}
);
width = 1391;
}
);
unicode = 011C;
},
{
glyphname = Gcommaaccent;
layers = (
{
layerId = "DC6F5AB8-73F2-4C0B-9A3E-015FFB242135";
name = Bold;
paths = (
{
closed = 1;
nodes = (
"525 -619 LINE",
"693 -619 LINE",
"848 -140 LINE",
"626 -140 LINE"
);
},
{
closed = 1;
nodes = (
"1093 17 OFFCURVE",
"961 -18 OFFCURVE",
"778 -18 CURVE SMOOTH",
"378 -18 OFFCURVE",
"132 248 OFFCURVE",
"132 672 CURVE SMOOTH",
"132 1105 OFFCURVE",
"382 1357 OFFCURVE",
"804 1357 CURVE SMOOTH",
"968 1357 OFFCURVE",
"1095 1317 OFFCURVE",
"1223 1253 CURVE",
"1134 1042 LINE",
"1037 1090 OFFCURVE",
"933 1124 OFFCURVE",
"809 1129 CURVE SMOOTH",
"547 1139 OFFCURVE",
"420 964 OFFCURVE",
"420 670 CURVE SMOOTH",
"420 383 OFFCURVE",
"534 213 OFFCURVE",
"789 213 CURVE SMOOTH",
"868 213 OFFCURVE",
"931 222 OFFCURVE",
"994 245 CURVE",
"994 519 LINE",
"725 519 LINE",
"725 727 LINE",
"1241 727 LINE",
"1241 82 LINE"
);
}
);
width = 1391;
}
);
unicode = 0122;
},
{
glyphname = Gdotaccent;
layers = (
{
layerId = "DC6F5AB8-73F2-4C0B-9A3E-015FFB242135";
name = Bold;
paths = (
{
closed = 1;
nodes = (
"587.5 1479 LINE",
"785.5 1479 LINE",
"785.5 1691 LINE",
"587.5 1691 LINE"
);
},
{
closed = 1;
nodes = (
"1093 17 OFFCURVE",
"961 -18 OFFCURVE",
"778 -18 CURVE SMOOTH",
"378 -18 OFFCURVE",
"132 248 OFFCURVE",
"132 672 CURVE SMOOTH",
"132 1105 OFFCURVE",
"382 1357 OFFCURVE",
"804 1357 CURVE SMOOTH",
"968 1357 OFFCURVE",
"1095 1317 OFFCURVE",
"1223 1253 CURVE",
"1134 1042 LINE",
"1037 1090 OFFCURVE",
"933 1124 OFFCURVE",
"809 1129 CURVE SMOOTH",
"547 1139 OFFCURVE",
"420 964 OFFCURVE",
"420 670 CURVE SMOOTH",
"420 383 OFFCURVE",
"534 213 OFFCURVE",
"789 213 CURVE SMOOTH",
"868 213 OFFCURVE",
"931 222 OFFCURVE",
"994 245 CURVE",
"994 519 LINE",
"725 519 LINE",
"725 727 LINE",
"1241 727 LINE",
"1241 82 LINE"
);
}
);
width = 1391;
}
);
unicode = 0120;
},
{
glyphname = H;
lastChange = "2012-12-23 00:46:15 +0000";
layers = (
{
anchors = (
{
name = center;
position = "{748, 0}";
},
{
name = top;
position = "{748, 0}";
}
);
layerId = "DC6F5AB8-73F2-4C0B-9A3E-015FFB242135";
name = Bold;
paths = (
{
closed = 1;
nodes = (
"1031 1336 LINE",
"1031 793 LINE",
"464 793 LINE",
"464 1336 LINE",
"176 1336 LINE",
"176 0 LINE",
"464 0 LINE",
"464 578 LINE",
"1031 578 LINE",
"1031 0 LINE",
"1319 0 LINE",
"1319 1336 LINE"
);
}
);
width = 1495;
}
);
unicode = 0048;
},
{
glyphname = Hbar;
layers = (
{
layerId = "DC6F5AB8-73F2-4C0B-9A3E-015FFB242135";
name = Bold;
paths = (
{
closed = 1;
nodes = (
"367 788 LINE",
"367 1068 LINE",
"962 1068 LINE",
"962 788 LINE"
);
},
{
closed = 1;
nodes = (
"110 1205 LINE",
"35 1205 LINE",
"35 1068 LINE",
"110 1068 LINE",
"110 0 LINE",
"367 0 LINE",
"367 595 LINE",
"962 595 LINE",
"962 0 LINE",
"1220 0 LINE",
"1220 1068 LINE",
"1295 1068 LINE",
"1295 1205 LINE",
"1220 1205 LINE",
"1220 1335 LINE",
"962 1335 LINE",
"962 1205 LINE",
"367 1205 LINE",
"367 1335 LINE",
"110 1335 LINE"
);
}
);
width = 1311;
}
);
unicode = 0126;
},
{
glyphname = Hcircumflex;
layers = (
{
layerId = "DC6F5AB8-73F2-4C0B-9A3E-015FFB242135";
name = Bold;
paths = (
{
closed = 1;
nodes = (
"440 1479 LINE",
"621 1479 LINE",
"763 1673 LINE",
"921 1479 LINE",
"1107 1479 LINE",
"871 1847 LINE",
"675 1847 LINE"
);
},
{
closed = 1;
nodes = (
"490 793 LINE",
"1057 793 LINE",
"1057 1336 LINE",
"1345 1336 LINE",
"1345 0 LINE",
"1057 0 LINE",
"1057 578 LINE",
"490 578 LINE",
"490 0 LINE",
"202 0 LINE",
"202 1336 LINE",
"490 1336 LINE"
);
}
);
width = 1547;
}
);
unicode = 0124;
},
{
glyphname = I;
lastChange = "2012-12-23 00:28:40 +0000";
layers = (
{
anchors = (
{
name = ogonek;
position = "{582, 10}";
},
{
name = top;
position = "{324, 0}";
}
);
layerId = "DC6F5AB8-73F2-4C0B-9A3E-015FFB242135";
name = Bold;
paths = (
{
closed = 1;
nodes = (
"180 1336 LINE",
"180 0 LINE",
"468 0 LINE",
"468 1336 LINE"
);
}
);
width = 647;
}
);
unicode = 0049;
},
{
glyphname = IJ;
layers = (
{
layerId = "DC6F5AB8-73F2-4C0B-9A3E-015FFB242135";
name = Bold;
paths = (
{
closed = 1;
nodes = (
"501 -285 LINE",
"532 -292 OFFCURVE",
"564 -293 OFFCURVE",
"594 -293 CURVE SMOOTH",
"910 -293 OFFCURVE",
"1039 -153 OFFCURVE",
"1039 144 CURVE SMOOTH",
"1039 1342 LINE",
"751 1342 LINE",
"751 126 LINE SMOOTH",
"751 -21 OFFCURVE",
"724 -84 OFFCURVE",
"592 -84 CURVE SMOOTH",
"569 -84 OFFCURVE",
"528 -82 OFFCURVE",
"489 -75 CURVE"
);
},
{
closed = 1;
nodes = (
"130 0 LINE",
"418 0 LINE",
"418 1342 LINE",
"130 1342 LINE"
);
}
);
width = 1083;
}
);
unicode = 0132;
},
{
glyphname = Iacute;
layers = (
{
layerId = "DC6F5AB8-73F2-4C0B-9A3E-015FFB242135";
name = Bold;
paths = (
{
closed = 1;
nodes = (
"267.5 1479 LINE",
"424.5 1479 LINE",
"719.5 1840 LINE",
"427.5 1840 LINE"
);
},
{
closed = 1;
nodes = (
"202 0 LINE",
"490 0 LINE",
"490 1336 LINE",
"202 1336 LINE"
);
}
);
width = 692;
}
);
unicode = 00CD;
},
{
glyphname = Ibreve;
layers = (
{
layerId = "DC6F5AB8-73F2-4C0B-9A3E-015FFB242135";
name = Bold;
paths = (
{
closed = 1;
nodes = (
"615 1722 LINE",
"615 1556 OFFCURVE",
"498 1479 OFFCURVE",
"345 1479 CURVE SMOOTH",
"193 1479 OFFCURVE",
"77 1557 OFFCURVE",
"77 1722 CURVE",
"245 1722 LINE",
"245 1661 OFFCURVE",
"271 1637 OFFCURVE",
"345 1637 CURVE SMOOTH",
"419 1637 OFFCURVE",
"446 1661 OFFCURVE",
"446 1722 CURVE"
);
},
{
closed = 1;
nodes = (
"202 0 LINE",
"490 0 LINE",
"490 1336 LINE",
"202 1336 LINE"
);
}
);
width = 692;
}
);
unicode = 012C;
},
{
glyphname = Icircumflex;
layers = (
{
layerId = "DC6F5AB8-73F2-4C0B-9A3E-015FFB242135";
name = Bold;
paths = (
{
closed = 1;
nodes = (
"12.5 1479 LINE",
"193.5 1479 LINE",
"335.5 1673 LINE",
"493.5 1479 LINE",
"679.5 1479 LINE",
"443.5 1847 LINE",
"247.5 1847 LINE"
);
},
{
closed = 1;
nodes = (
"202 0 LINE",
"490 0 LINE",
"490 1336 LINE",
"202 1336 LINE"
);
}
);
width = 692;
}
);
unicode = 00CE;
},
{
glyphname = Idieresis;
layers = (
{
layerId = "DC6F5AB8-73F2-4C0B-9A3E-015FFB242135";
name = Bold;
paths = (
{
closed = 1;
nodes = (
"437.5 1479 LINE",
"630.5 1479 LINE",
"630.5 1724 LINE",
"437.5 1724 LINE"
);
},
{
closed = 1;
nodes = (
"61.5 1479 LINE",
"255.5 1479 LINE",
"255.5 1724 LINE",
"61.5 1724 LINE"
);
},
{
closed = 1;
nodes = (
"202 0 LINE",
"490 0 LINE",
"490 1336 LINE",
"202 1336 LINE"
);
}
);
width = 692;
}
);
unicode = 00CF;
},
{
glyphname = Idotaccent;
layers = (
{
layerId = "DC6F5AB8-73F2-4C0B-9A3E-015FFB242135";
name = Bold;
paths = (
{
closed = 1;
nodes = (
"247 1479 LINE",
"445 1479 LINE",
"445 1691 LINE",
"247 1691 LINE"
);
},
{
closed = 1;
nodes = (
"202 0 LINE",
"490 0 LINE",
"490 1336 LINE",
"202 1336 LINE"
);
}
);
width = 692;
}
);
unicode = 0130;
},
{
glyphname = Igrave;
layers = (
{
layerId = "DC6F5AB8-73F2-4C0B-9A3E-015FFB242135";
name = Bold;
paths = (
{
closed = 1;
nodes = (
"263.5 1479 LINE",
"428.5 1479 LINE",
"251.5 1840 LINE",
"-48 1840 LINE"
);
},
{
closed = 1;
nodes = (
"202 0 LINE",
"490 0 LINE",
"490 1336 LINE",
"202 1336 LINE"
);
}
);
width = 692;
}
);
unicode = 00CC;
},
{
glyphname = Imacron;
layers = (
{
layerId = "DC6F5AB8-73F2-4C0B-9A3E-015FFB242135";
name = Bold;
paths = (
{
closed = 1;
nodes = (
"21.5 1479 LINE",
"670.5 1479 LINE",
"670.5 1638 LINE",
"21.5 1638 LINE"
);
},
{
closed = 1;
nodes = (
"202 0 LINE",
"490 0 LINE",
"490 1336 LINE",
"202 1336 LINE"
);
}
);
width = 692;
}
);
unicode = 012A;
},
{
glyphname = Iogonek;
layers = (
{
layerId = "DC6F5AB8-73F2-4C0B-9A3E-015FFB242135";
name = Bold;
paths = (
{
closed = 1;
nodes = (
"118.5 -339 OFFCURVE",
"209.5 -393 OFFCURVE",
"313.5 -393 CURVE SMOOTH",
"372.5 -393 OFFCURVE",
"433.5 -378 OFFCURVE",
"488.5 -357 CURVE",
"488.5 -357 OFFCURVE",
"481.5 -216 OFFCURVE",
"480.5 -216 CURVE",
"468.5 -221 OFFCURVE",
"409.5 -247 OFFCURVE",
"357.5 -247 CURVE SMOOTH",
"319.5 -247 OFFCURVE",
"293.5 -212 OFFCURVE",
"293.5 -178 CURVE SMOOTH",
"293.5 -123 OFFCURVE",
"325.5 -59 OFFCURVE",
"399.5 -2 CURVE",
"292.5 13.5664 LINE",
"221.5 -27 OFFCURVE",
"118.5 -102 OFFCURVE",
"118.5 -225 CURVE SMOOTH"
);
},
{
closed = 1;
nodes = (
"202 0 LINE",
"490 0 LINE",
"490 1336 LINE",
"202 1336 LINE"
);
}
);
width = 692;
}
);
unicode = 012E;
},
{
glyphname = Itilde;
layers = (
{
layerId = "DC6F5AB8-73F2-4C0B-9A3E-015FFB242135";
name = Bold;
paths = (
{
closed = 1;
nodes = (
"30.5 1489 LINE",
"30.5 1583 OFFCURVE",
"44.5 1721 OFFCURVE",
"192.5 1721 CURVE SMOOTH",
"313.5 1721 OFFCURVE",
"448.5 1636 OFFCURVE",
"479.5 1636 CURVE SMOOTH",
"499.5 1637 OFFCURVE",
"511.5 1721 OFFCURVE",
"511.5 1721 CURVE",
"661.5 1721 LINE",
"661.5 1721 OFFCURVE",
"651.5 1479 OFFCURVE",
"503.5 1479 CURVE SMOOTH",
"402.5 1479 OFFCURVE",
"269.5 1569 OFFCURVE",
"212.5 1569 CURVE SMOOTH",
"191.5 1569 OFFCURVE",
"177.5 1479 OFFCURVE",
"177.5 1479 CURVE"
);
},
{
closed = 1;
nodes = (
"202 0 LINE",
"490 0 LINE",
"490 1336 LINE",
"202 1336 LINE"
);
}
);
width = 692;
}
);
unicode = 0128;
},
{
glyphname = J;
lastChange = "2012-12-23 01:05:17 +0000";
layers = (
{
anchors = (
{
name = top;
position = "{532, 0}";
}
);
layerId = "DC6F5AB8-73F2-4C0B-9A3E-015FFB242135";
name = Bold;
paths = (
{
closed = 1;
nodes = (
"611 1336 LINE",
"611 416 LINE SMOOTH",
"611 313 OFFCURVE",
"555 210 OFFCURVE",
"391 210 CURVE SMOOTH",
"321 210 OFFCURVE",
"230 229 OFFCURVE",
"113 275 CURVE",
"62 65 LINE",
"194 7 OFFCURVE",
"321 -19 OFFCURVE",
"430 -19 CURVE SMOOTH",
"706 -19 OFFCURVE",
"899 142 OFFCURVE",
"899 354 CURVE SMOOTH",
"899 1336 LINE"
);
}
);
width = 1071;
}
);
unicode = 004A;
},
{
glyphname = Jcircumflex;
layers = (
{
layerId = "DC6F5AB8-73F2-4C0B-9A3E-015FFB242135";
name = Bold;
paths = (
{
closed = 1;
nodes = (
"-31 1479 LINE",
"150.5 1479 LINE",
"292.5 1673 LINE",
"450.5 1479 LINE",
"636.5 1479 LINE",
"400.5 1847 LINE",
"204.5 1847 LINE"
);
},
{
closed = 1;
nodes = (
"578 -153 OFFCURVE",
"401 -282 OFFCURVE",
"40 -285 CURVE",
"28 -75 LINE",
"207 -69 OFFCURVE",
"290 -21 OFFCURVE",
"290 126 CURVE SMOOTH",
"290 1336 LINE",
"578 1336 LINE",
"578 144 LINE SMOOTH"
);
}
);
width = 780;
}
);
unicode = 0134;
},
{
glyphname = K;
lastChange = "2012-12-23 00:52:33 +0000";
layers = (
{
anchors = (
{
name = bottom;
position = "{692, 0}";
},
{
name = top;
position = "{692, 0}";
}
);
layerId = "DC6F5AB8-73F2-4C0B-9A3E-015FFB242135";
name = Bold;
paths = (
{
closed = 1;
nodes = (
"977 1336 LINE",
"460 745 LINE",
"460 1336 LINE",
"172 1336 LINE",
"172 0 LINE",
"460 0 LINE",
"460 507 LINE",
"578 611 LINE",
"1010 0 LINE",
"1341 0 LINE",
"804 734 LINE",
"1309 1336 LINE"
);
}
);
width = 1367;
}
);
unicode = 004B;
},
{
glyphname = Kcommaaccent;
layers = (
{
layerId = "DC6F5AB8-73F2-4C0B-9A3E-015FFB242135";
name = Bold;
paths = (
{
closed = 1;
nodes = (
"589.5 -601 LINE",
"757.5 -601 LINE",
"912.5 -122 LINE",
"690.5 -122 LINE"
);
},
{
closed = 1;
nodes = (
"958 1336 LINE",
"490 775 LINE",
"490 1336 LINE",
"202 1336 LINE",
"202 0 LINE",
"490 0 LINE",
"490 537 LINE",
"561 611 LINE",
"974 0 LINE",
"1300 0 LINE",
"798 732 LINE",
"1290 1336 LINE"
);
}
);
width = 1361;
}
);
unicode = 0136;
},
{
glyphname = L;
lastChange = "2012-12-23 00:48:06 +0000";
layers = (
{
anchors = (
{
name = bottom;
position = "{569, 0}";
},
{
name = top;
position = "{569, 0}";
}
);
layerId = "DC6F5AB8-73F2-4C0B-9A3E-015FFB242135";
name = Bold;
paths = (
{
closed = 1;
nodes = (
"172 1336 LINE",
"172 0 LINE",
"1051 0 LINE",
"1065 216 LINE",
"460 216 LINE",
"460 1336 LINE"
);
}
);
width = 1145;
}
);
unicode = 004C;
},
{
glyphname = Lacute;
layers = (
{
layerId = "DC6F5AB8-73F2-4C0B-9A3E-015FFB242135";
name = Bold;
paths = (
{
closed = 1;
nodes = (
"534 1479 LINE",
"691 1479 LINE",
"986 1840 LINE",
"694 1840 LINE"
);
},
{
closed = 1;
nodes = (
"1023 216 LINE",
"490 216 LINE",
"490 1336 LINE",
"202 1336 LINE",
"202 0 LINE",
"1009 0 LINE"
);
}
);
width = 1103;
}
);
unicode = 0139;
},
{
glyphname = Lcaron;
layers = (
{
layerId = "DC6F5AB8-73F2-4C0B-9A3E-015FFB242135";
name = Bold;
paths = (
{
closed = 1;
nodes = (
"1212 877 LINE",
"1357 877 LINE",
"1408 1357 LINE",
"1206 1357 LINE"
);
},
{
closed = 1;
nodes = (
"1023 216 LINE",
"490 216 LINE",
"490 1336 LINE",
"202 1336 LINE",
"202 0 LINE",
"1009 0 LINE"
);
}
);
width = 1103;
}
);
unicode = 013D;
},
{
glyphname = Lcommaaccent;
layers = (
{
layerId = "DC6F5AB8-73F2-4C0B-9A3E-015FFB242135";
name = Bold;
paths = (
{
closed = 1;
nodes = (
"451 -601 LINE",
"619 -601 LINE",
"774 -122 LINE",
"552 -122 LINE"
);
},
{
closed = 1;
nodes = (
"1023 216 LINE",
"490 216 LINE",
"490 1336 LINE",
"202 1336 LINE",
"202 0 LINE",
"1009 0 LINE"
);
}
);
width = 1103;
}
);
unicode = 013B;
},
{
glyphname = Ldot;
layers = (
{
layerId = "DC6F5AB8-73F2-4C0B-9A3E-015FFB242135";
name = Bold;
paths = (
{
closed = 1;
nodes = (
"128 0 LINE",
"946 0 LINE",
"953 213 LINE",
"416 213 LINE",
"416 1342 LINE",
"128 1342 LINE"
);
}
);
width = 937;
}
);
unicode = 013F;
},
{
glyphname = Lslash;
layers = (
{
layerId = "DC6F5AB8-73F2-4C0B-9A3E-015FFB242135";
name = Bold;
paths = (
{
closed = 1;
nodes = (
"649 1029 LINE",
"646 1032 LINE",
"366 869 LINE",
"366 1340 LINE",
"111 1340 LINE",
"111 714 LINE",
"-24 634 LINE",
"-24 443 LINE",
"111 524 LINE",
"111 0 LINE",
"898 0 LINE",
"913 203 LINE",
"366 203 LINE",
"366 678 LINE",
"649 845 LINE"
);
}
);
width = 885;
}
);
unicode = 0141;
},
{
glyphname = M;
lastChange = "2012-12-23 00:48:53 +0000";
layers = (
{
layerId = "DC6F5AB8-73F2-4C0B-9A3E-015FFB242135";
name = Bold;
paths = (
{
closed = 1;
nodes = (
"1351 1336 LINE",
"911 508 LINE",
"476 1336 LINE",
"192 1336 LINE",
"172 0 LINE",
"446 0 LINE",
"456 484 LINE",
"440 882 LINE",
"803 196 LINE",
"1010 196 LINE",
"1382 876 LINE",
"1367 487 LINE",
"1377 0 LINE",
"1650 0 LINE",
"1630 1336 LINE"
);
}
);
width = 1822;
}
);
unicode = 004D;
},
{
glyphname = N;
lastChange = "2012-12-23 00:48:41 +0000";
layers = (
{
anchors = (
{
name = bottom;
position = "{766, 0}";
},
{
name = top;
position = "{766, 0}";
}
);
layerId = "DC6F5AB8-73F2-4C0B-9A3E-015FFB242135";
name = Bold;
paths = (
{
closed = 1;
nodes = (
"1075 1336 LINE",
"1075 795 LINE",
"1095 350 LINE",
"479 1336 LINE",
"172 1336 LINE",
"172 0 LINE",
"457 0 LINE",
"457 409 LINE",
"433 961 LINE",
"1042 0 LINE",
"1360 0 LINE",
"1360 1336 LINE"
);
}
);
width = 1532;
}
);
unicode = 004E;
},
{
glyphname = Nacute;
layers = (
{
layerId = "DC6F5AB8-73F2-4C0B-9A3E-015FFB242135";
name = Bold;
paths = (
{
closed = 1;
nodes = (
"692 1479 LINE",
"849 1479 LINE",
"1144 1840 LINE",
"852 1840 LINE"
);
},
{
closed = 1;
nodes = (
"1068 787 OFFCURVE",
"1087 350 OFFCURVE",
"1087 350 CURVE",
"494 1336 LINE",
"202 1336 LINE",
"202 0 LINE",
"479 0 LINE",
"479 409 LINE SMOOTH",
"479 430 OFFCURVE",
"451 961 OFFCURVE",
"451 961 CURVE",
"1036 0 LINE",
"1339 0 LINE",
"1339 1336 LINE",
"1068 1336 LINE",
"1068 795 LINE SMOOTH"
);
}
);
width = 1541;
}
);
unicode = 0143;
},
{
glyphname = Ncaron;
layers = (
{
layerId = "DC6F5AB8-73F2-4C0B-9A3E-015FFB242135";
name = Bold;
paths = (
{
closed = 1;
nodes = (
"675.5 1479 LINE",
"865.5 1479 LINE",
"1113.5 1816 LINE",
"908.5 1816 LINE",
"758.5 1645 LINE",
"628.5 1816 LINE",
"427.5 1816 LINE"
);
},
{
closed = 1;
nodes = (
"1068 787 OFFCURVE",
"1087 350 OFFCURVE",
"1087 350 CURVE",
"494 1336 LINE",
"202 1336 LINE",
"202 0 LINE",
"479 0 LINE",
"479 409 LINE SMOOTH",
"479 430 OFFCURVE",
"451 961 OFFCURVE",
"451 961 CURVE",
"1036 0 LINE",
"1339 0 LINE",
"1339 1336 LINE",
"1068 1336 LINE",
"1068 795 LINE SMOOTH"
);
}
);
width = 1541;
}
);
unicode = 0147;
},
{
glyphname = Ncommaaccent;
layers = (
{
layerId = "DC6F5AB8-73F2-4C0B-9A3E-015FFB242135";
name = Bold;
paths = (
{
closed = 1;
nodes = (
"609 -601 LINE",
"777 -601 LINE",
"932 -122 LINE",
"710 -122 LINE"
);
},
{
closed = 1;
nodes = (
"1068 787 OFFCURVE",
"1087 350 OFFCURVE",
"1087 350 CURVE",
"494 1336 LINE",
"202 1336 LINE",
"202 0 LINE",
"479 0 LINE",
"479 409 LINE SMOOTH",
"479 430 OFFCURVE",
"451 961 OFFCURVE",
"451 961 CURVE",
"1036 0 LINE",
"1339 0 LINE",
"1339 1336 LINE",
"1068 1336 LINE",
"1068 795 LINE SMOOTH"
);
}
);
width = 1541;
}
);
unicode = 0145;
},
{
glyphname = Eng;
layers = (
{
layerId = "DC6F5AB8-73F2-4C0B-9A3E-015FFB242135";
name = Bold;
paths = (
{
closed = 1;
nodes = (
"692 -305 OFFCURVE",
"732 -305 OFFCURVE",
"738 -305 CURVE SMOOTH",
"1082 -305 OFFCURVE",
"1216 -148 OFFCURVE",
"1216 143 CURVE SMOOTH",
"1216 874 LINE SMOOTH",
"1216 1177 OFFCURVE",
"1071 1363 OFFCURVE",
"782 1363 CURVE SMOOTH",
"640 1363 OFFCURVE",
"467 1297 OFFCURVE",
"374 1195 CURVE",
"352 1342 LINE",
"96 1342 LINE",
"96 0 LINE",
"384 0 LINE",
"384 963 LINE",
"463 1099 OFFCURVE",
"616 1155 OFFCURVE",
"722 1155 CURVE SMOOTH",
"869 1155 OFFCURVE",
"928 1077 OFFCURVE",
"928 864 CURVE SMOOTH",
"928 139 LINE SMOOTH",
"928 -27 OFFCURVE",
"901 -79 OFFCURVE",
"742 -79 CURVE SMOOTH",
"737 -79 OFFCURVE",
"677 -78 OFFCURVE",
"637 -75 CURVE",
"657 -301 LINE"
);
}
);
width = 1246;
}
);
unicode = 014A;
},
{
glyphname = Ntilde;
layers = (
{
layerId = "DC6F5AB8-73F2-4C0B-9A3E-015FFB242135";
name = Bold;
paths = (
{
closed = 1;
nodes = (
"455 1489 LINE",
"455 1583 OFFCURVE",
"469 1721 OFFCURVE",
"617 1721 CURVE SMOOTH",
"738 1721 OFFCURVE",
"873 1636 OFFCURVE",
"904 1636 CURVE SMOOTH",
"924 1637 OFFCURVE",
"936 1721 OFFCURVE",
"936 1721 CURVE",
"1086 1721 LINE",
"1086 1721 OFFCURVE",
"1076 1479 OFFCURVE",
"928 1479 CURVE SMOOTH",
"827 1479 OFFCURVE",
"694 1569 OFFCURVE",
"637 1569 CURVE SMOOTH",
"616 1569 OFFCURVE",
"602 1479 OFFCURVE",
"602 1479 CURVE"
);
},
{
closed = 1;
nodes = (
"1068 787 OFFCURVE",
"1087 350 OFFCURVE",
"1087 350 CURVE",
"494 1336 LINE",
"202 1336 LINE",
"202 0 LINE",
"479 0 LINE",
"479 409 LINE SMOOTH",
"479 430 OFFCURVE",
"451 961 OFFCURVE",
"451 961 CURVE",
"1036 0 LINE",
"1339 0 LINE",
"1339 1336 LINE",
"1068 1336 LINE",
"1068 795 LINE SMOOTH"
);
}
);
width = 1541;
}
);
unicode = 00D1;
},
{
glyphname = O;
lastChange = "2012-12-23 00:45:18 +0000";
layers = (
{
anchors = (
{
name = top;
position = "{791, 0}";
}
);
layerId = "DC6F5AB8-73F2-4C0B-9A3E-015FFB242135";
name = Bold;
paths = (
{
closed = 1;
nodes = (
"401 1357 OFFCURVE",
"120 1105 OFFCURVE",
"120 669 CURVE SMOOTH",
"120 237 OFFCURVE",
"399 -18 OFFCURVE",
"792 -18 CURVE SMOOTH",
"1185 -18 OFFCURVE",
"1462 237 OFFCURVE",
"1462 669 CURVE SMOOTH",
"1462 1105 OFFCURVE",
"1183 1357 OFFCURVE",
"792 1357 CURVE SMOOTH"
);
},
{
closed = 1;
nodes = (
"1019 1127 OFFCURVE",
"1174 946 OFFCURVE",
"1174 667 CURVE SMOOTH",
"1174 393 OFFCURVE",
"1020 210 OFFCURVE",
"792 210 CURVE SMOOTH",
"564 210 OFFCURVE",
"408 393 OFFCURVE",
"408 667 CURVE SMOOTH",
"408 946 OFFCURVE",
"565 1127 OFFCURVE",
"792 1127 CURVE SMOOTH"
);
}
);
width = 1582;
}
);
unicode = 004F;
},
{
glyphname = Oacute;
layers = (
{
layerId = "DC6F5AB8-73F2-4C0B-9A3E-015FFB242135";
name = Bold;
paths = (
{
closed = 1;
nodes = (
"704.5 1479 LINE",
"861.5 1479 LINE",
"1156.5 1840 LINE",
"864.5 1840 LINE"
);
},
{
closed = 1;
nodes = (
"420 946 OFFCURVE",
"557 1127 OFFCURVE",
"784 1127 CURVE SMOOTH",
"1011 1127 OFFCURVE",
"1146 946 OFFCURVE",
"1146 667 CURVE SMOOTH",
"1146 393 OFFCURVE",
"1012 210 OFFCURVE",
"784 210 CURVE SMOOTH",
"556 210 OFFCURVE",
"420 393 OFFCURVE",
"420 667 CURVE SMOOTH"
);
},
{
closed = 1;
nodes = (
"132 237 OFFCURVE",
"391 -18 OFFCURVE",
"784 -18 CURVE SMOOTH",
"1177 -18 OFFCURVE",
"1434 237 OFFCURVE",
"1434 669 CURVE SMOOTH",
"1434 1105 OFFCURVE",
"1175 1357 OFFCURVE",
"784 1357 CURVE SMOOTH",
"393 1357 OFFCURVE",
"132 1105 OFFCURVE",
"132 669 CURVE SMOOTH"
);
}
);
width = 1566;
}
);
unicode = 00D3;
},
{
glyphname = Obreve;
layers = (
{
layerId = "DC6F5AB8-73F2-4C0B-9A3E-015FFB242135";
name = Bold;
paths = (
{
closed = 1;
nodes = (
"1052 1722 LINE",
"1052 1556 OFFCURVE",
"935 1479 OFFCURVE",
"782 1479 CURVE SMOOTH",
"630 1479 OFFCURVE",
"514 1557 OFFCURVE",
"514 1722 CURVE",
"682 1722 LINE",
"682 1661 OFFCURVE",
"708 1637 OFFCURVE",
"782 1637 CURVE SMOOTH",
"856 1637 OFFCURVE",
"883 1661 OFFCURVE",
"883 1722 CURVE"
);
},
{
closed = 1;
nodes = (
"420 946 OFFCURVE",
"557 1127 OFFCURVE",
"784 1127 CURVE SMOOTH",
"1011 1127 OFFCURVE",
"1146 946 OFFCURVE",
"1146 667 CURVE SMOOTH",
"1146 393 OFFCURVE",
"1012 210 OFFCURVE",
"784 210 CURVE SMOOTH",
"556 210 OFFCURVE",
"420 393 OFFCURVE",
"420 667 CURVE SMOOTH"
);
},
{
closed = 1;
nodes = (
"132 237 OFFCURVE",
"391 -18 OFFCURVE",
"784 -18 CURVE SMOOTH",
"1177 -18 OFFCURVE",
"1434 237 OFFCURVE",
"1434 669 CURVE SMOOTH",
"1434 1105 OFFCURVE",
"1175 1357 OFFCURVE",
"784 1357 CURVE SMOOTH",
"393 1357 OFFCURVE",
"132 1105 OFFCURVE",
"132 669 CURVE SMOOTH"
);
}
);
width = 1566;
}
);
unicode = 014E;
},
{
glyphname = Ocircumflex;
layers = (
{
layerId = "DC6F5AB8-73F2-4C0B-9A3E-015FFB242135";
name = Bold;
paths = (
{
closed = 1;
nodes = (
"449.5 1479 LINE",
"630.5 1479 LINE",
"772.5 1673 LINE",
"930.5 1479 LINE",
"1116.5 1479 LINE",
"880.5 1847 LINE",
"684.5 1847 LINE"
);
},
{
closed = 1;
nodes = (
"420 946 OFFCURVE",
"557 1127 OFFCURVE",
"784 1127 CURVE SMOOTH",
"1011 1127 OFFCURVE",
"1146 946 OFFCURVE",
"1146 667 CURVE SMOOTH",
"1146 393 OFFCURVE",
"1012 210 OFFCURVE",
"784 210 CURVE SMOOTH",
"556 210 OFFCURVE",
"420 393 OFFCURVE",
"420 667 CURVE SMOOTH"
);
},
{
closed = 1;
nodes = (
"132 237 OFFCURVE",
"391 -18 OFFCURVE",
"784 -18 CURVE SMOOTH",
"1177 -18 OFFCURVE",
"1434 237 OFFCURVE",
"1434 669 CURVE SMOOTH",
"1434 1105 OFFCURVE",
"1175 1357 OFFCURVE",
"784 1357 CURVE SMOOTH",
"393 1357 OFFCURVE",
"132 1105 OFFCURVE",
"132 669 CURVE SMOOTH"
);
}
);
width = 1566;
}
);
unicode = 00D4;
},
{
glyphname = Odieresis;
layers = (
{
layerId = "DC6F5AB8-73F2-4C0B-9A3E-015FFB242135";
name = Bold;
paths = (
{
closed = 1;
nodes = (
"874.5 1479 LINE",
"1067.5 1479 LINE",
"1067.5 1724 LINE",
"874.5 1724 LINE"
);
},
{
closed = 1;
nodes = (
"498.5 1479 LINE",
"692.5 1479 LINE",
"692.5 1724 LINE",
"498.5 1724 LINE"
);
},
{
closed = 1;
nodes = (
"420 946 OFFCURVE",
"557 1127 OFFCURVE",
"784 1127 CURVE SMOOTH",
"1011 1127 OFFCURVE",
"1146 946 OFFCURVE",
"1146 667 CURVE SMOOTH",
"1146 393 OFFCURVE",
"1012 210 OFFCURVE",
"784 210 CURVE SMOOTH",
"556 210 OFFCURVE",
"420 393 OFFCURVE",
"420 667 CURVE SMOOTH"
);
},
{
closed = 1;
nodes = (
"132 237 OFFCURVE",
"391 -18 OFFCURVE",
"784 -18 CURVE SMOOTH",
"1177 -18 OFFCURVE",
"1434 237 OFFCURVE",
"1434 669 CURVE SMOOTH",
"1434 1105 OFFCURVE",
"1175 1357 OFFCURVE",
"784 1357 CURVE SMOOTH",
"393 1357 OFFCURVE",
"132 1105 OFFCURVE",
"132 669 CURVE SMOOTH"
);
}
);
width = 1566;
}
);
unicode = 00D6;
},
{
glyphname = Ograve;
layers = (
{
layerId = "DC6F5AB8-73F2-4C0B-9A3E-015FFB242135";
name = Bold;
paths = (
{
closed = 1;
nodes = (
"700.5 1479 LINE",
"865.5 1479 LINE",
"688.5 1840 LINE",
"389.5 1840 LINE"
);
},
{
closed = 1;
nodes = (
"420 946 OFFCURVE",
"557 1127 OFFCURVE",
"784 1127 CURVE SMOOTH",
"1011 1127 OFFCURVE",
"1146 946 OFFCURVE",
"1146 667 CURVE SMOOTH",
"1146 393 OFFCURVE",
"1012 210 OFFCURVE",
"784 210 CURVE SMOOTH",
"556 210 OFFCURVE",
"420 393 OFFCURVE",
"420 667 CURVE SMOOTH"
);
},
{
closed = 1;
nodes = (
"132 237 OFFCURVE",
"391 -18 OFFCURVE",
"784 -18 CURVE SMOOTH",
"1177 -18 OFFCURVE",
"1434 237 OFFCURVE",
"1434 669 CURVE SMOOTH",
"1434 1105 OFFCURVE",
"1175 1357 OFFCURVE",
"784 1357 CURVE SMOOTH",
"393 1357 OFFCURVE",
"132 1105 OFFCURVE",
"132 669 CURVE SMOOTH"
);
}
);
width = 1566;
}
);
unicode = 00D2;
},
{
glyphname = Ohorn;
layers = (
{
layerId = "DC6F5AB8-73F2-4C0B-9A3E-015FFB242135";
name = Bold;
paths = (
{
closed = 1;
nodes = (
"1495 1139 LINE",
"1495 1038 LINE",
"1503 1037 LINE SMOOTH",
"1531 1034 OFFCURVE",
"1559 1031 OFFCURVE",
"1586 1031 CURVE SMOOTH",
"1683 1031 OFFCURVE",
"1730 1119 OFFCURVE",
"1730 1215 CURVE SMOOTH",
"1730 1259 OFFCURVE",
"1719 1307 OFFCURVE",
"1701 1351 CURVE",
"1700 1357 LINE",
"1575 1357 LINE",
"1580 1344 LINE SMOOTH",
"1593 1308 OFFCURVE",
"1606 1257 OFFCURVE",
"1606 1216 CURVE SMOOTH",
"1606 1169 OFFCURVE",
"1592 1138 OFFCURVE",
"1548 1138 CURVE SMOOTH",
"1534 1138 OFFCURVE",
"1518 1139 OFFCURVE",
"1504 1139 CURVE SMOOTH"
);
},
{
closed = 1;
nodes = (
"420 946 OFFCURVE",
"557 1127 OFFCURVE",
"784 1127 CURVE SMOOTH",
"1011 1127 OFFCURVE",
"1146 946 OFFCURVE",
"1146 667 CURVE SMOOTH",
"1146 393 OFFCURVE",
"1012 210 OFFCURVE",
"784 210 CURVE SMOOTH",
"556 210 OFFCURVE",
"420 393 OFFCURVE",
"420 667 CURVE SMOOTH"
);
},
{
closed = 1;
nodes = (
"132 237 OFFCURVE",
"391 -18 OFFCURVE",
"784 -18 CURVE SMOOTH",
"1177 -18 OFFCURVE",
"1434 237 OFFCURVE",
"1434 669 CURVE SMOOTH",
"1434 1105 OFFCURVE",
"1175 1357 OFFCURVE",
"784 1357 CURVE SMOOTH",
"393 1357 OFFCURVE",
"132 1105 OFFCURVE",
"132 669 CURVE SMOOTH"
);
}
);
width = 1566;
}
);
unicode = 01A0;
},
{
glyphname = Ohungarumlaut;
layers = (
{
layerId = "DC6F5AB8-73F2-4C0B-9A3E-015FFB242135";
name = Bold;
paths = (
{
closed = 1;
nodes = (
"849.5 1479 LINE",
"990.5 1479 LINE",
"1315.5 1819 LINE",
"1086.5 1819 LINE"
);
},
{
closed = 1;
nodes = (
"575.5 1479 LINE",
"718.5 1479 LINE",
"1033.5 1819 LINE",
"807.5 1819 LINE"
);
},
{
closed = 1;
nodes = (
"420 946 OFFCURVE",
"557 1127 OFFCURVE",
"784 1127 CURVE SMOOTH",
"1011 1127 OFFCURVE",
"1146 946 OFFCURVE",
"1146 667 CURVE SMOOTH",
"1146 393 OFFCURVE",
"1012 210 OFFCURVE",
"784 210 CURVE SMOOTH",
"556 210 OFFCURVE",
"420 393 OFFCURVE",
"420 667 CURVE SMOOTH"
);
},
{
closed = 1;
nodes = (
"132 237 OFFCURVE",
"391 -18 OFFCURVE",
"784 -18 CURVE SMOOTH",
"1177 -18 OFFCURVE",
"1434 237 OFFCURVE",
"1434 669 CURVE SMOOTH",
"1434 1105 OFFCURVE",
"1175 1357 OFFCURVE",
"784 1357 CURVE SMOOTH",
"393 1357 OFFCURVE",
"132 1105 OFFCURVE",
"132 669 CURVE SMOOTH"
);
}
);
width = 1566;
}
);
unicode = 0150;
},
{
glyphname = Omacron;
layers = (
{
layerId = "DC6F5AB8-73F2-4C0B-9A3E-015FFB242135";
name = Bold;
paths = (
{
closed = 1;
nodes = (
"458.5 1479 LINE",
"1107.5 1479 LINE",
"1107.5 1638 LINE",
"458.5 1638 LINE"
);
},
{
closed = 1;
nodes = (
"420 946 OFFCURVE",
"557 1127 OFFCURVE",
"784 1127 CURVE SMOOTH",
"1011 1127 OFFCURVE",
"1146 946 OFFCURVE",
"1146 667 CURVE SMOOTH",
"1146 393 OFFCURVE",
"1012 210 OFFCURVE",
"784 210 CURVE SMOOTH",
"556 210 OFFCURVE",
"420 393 OFFCURVE",
"420 667 CURVE SMOOTH"
);
},
{
closed = 1;
nodes = (
"132 237 OFFCURVE",
"391 -18 OFFCURVE",
"784 -18 CURVE SMOOTH",
"1177 -18 OFFCURVE",
"1434 237 OFFCURVE",
"1434 669 CURVE SMOOTH",
"1434 1105 OFFCURVE",
"1175 1357 OFFCURVE",
"784 1357 CURVE SMOOTH",
"393 1357 OFFCURVE",
"132 1105 OFFCURVE",
"132 669 CURVE SMOOTH"
);
}
);
width = 1566;
}
);
unicode = 014C;
},
{
glyphname = Oslash;
layers = (
{
anchors = (
{
name = top;
position = "{718, 0}";
}
);
layerId = "DC6F5AB8-73F2-4C0B-9A3E-015FFB242135";
name = Bold;
paths = (
{
closed = 1;
nodes = (
"1128 386 OFFCURVE",
"995 194 OFFCURVE",
"728 194 CURVE SMOOTH",
"681 194 OFFCURVE",
"636 201 OFFCURVE",
"601 212 CURVE",
"971 1065 LINE",
"1077 982 OFFCURVE",
"1128 840 OFFCURVE",
"1128 666 CURVE SMOOTH"
);
},
{
closed = 1;
nodes = (
"496 278 LINE",
"384 359 OFFCURVE",
"329 502 OFFCURVE",
"329 682 CURVE SMOOTH",
"329 959 OFFCURVE",
"461 1158 OFFCURVE",
"728 1158 CURVE SMOOTH",
"779 1158 OFFCURVE",
"828 1150 OFFCURVE",
"866 1137 CURVE"
);
},
{
closed = 1;
nodes = (
"429 -179 LINE",
"512 10 LINE",
"579 -9 OFFCURVE",
"650 -18 OFFCURVE",
"725 -18 CURVE SMOOTH",
"1116 -18 OFFCURVE",
"1388 247 OFFCURVE",
"1388 676 CURVE SMOOTH",
"1388 972 OFFCURVE",
"1264 1186 OFFCURVE",
"1065 1296 CURVE",
"1145 1486 LINE",
"1034 1530 LINE",
"954 1344 LINE",
"883 1366 OFFCURVE",
"810 1377 OFFCURVE",
"729 1377 CURVE SMOOTH",
"342 1377 OFFCURVE",
"65 1115 OFFCURVE",
"65 678 CURVE SMOOTH",
"65 381 OFFCURVE",
"196 161 OFFCURVE",
"405 54 CURVE",
"324 -134 LINE"
);
}
);
width = 1435;
}
);
unicode = 00D8;
},
{
glyphname = Oslashacute;
layers = (
{
layerId = "DC6F5AB8-73F2-4C0B-9A3E-015FFB242135";
name = Bold;
paths = (
{
closed = 1;
nodes = (
"648 1652 LINE",
"805 1652 LINE",
"1100 2013 LINE",
"808 2013 LINE"
);
},
{
closed = 1;
nodes = (
"1128 386 OFFCURVE",
"995 194 OFFCURVE",
"728 194 CURVE SMOOTH",
"681 194 OFFCURVE",
"636 201 OFFCURVE",
"601 212 CURVE",
"971 1065 LINE",
"1077 982 OFFCURVE",
"1128 840 OFFCURVE",
"1128 666 CURVE SMOOTH"
);
},
{
closed = 1;
nodes = (
"496 278 LINE",
"384 359 OFFCURVE",
"329 502 OFFCURVE",
"329 682 CURVE SMOOTH",
"329 959 OFFCURVE",
"461 1158 OFFCURVE",
"728 1158 CURVE SMOOTH",
"779 1158 OFFCURVE",
"828 1150 OFFCURVE",
"866 1137 CURVE"
);
},
{
closed = 1;
nodes = (
"429 -179 LINE",
"512 10 LINE",
"579 -9 OFFCURVE",
"650 -18 OFFCURVE",
"725 -18 CURVE SMOOTH",
"1116 -18 OFFCURVE",
"1388 247 OFFCURVE",
"1388 676 CURVE SMOOTH",
"1388 972 OFFCURVE",
"1264 1186 OFFCURVE",
"1065 1296 CURVE",
"1145 1486 LINE",
"1034 1530 LINE",
"954 1344 LINE",
"883 1366 OFFCURVE",
"810 1377 OFFCURVE",
"729 1377 CURVE SMOOTH",
"342 1377 OFFCURVE",
"65 1115 OFFCURVE",
"65 678 CURVE SMOOTH",
"65 381 OFFCURVE",
"196 161 OFFCURVE",
"405 54 CURVE",
"324 -134 LINE"
);
}
);
width = 1435;
}
);
unicode = 01FE;
},
{
glyphname = Otilde;
layers = (
{
layerId = "DC6F5AB8-73F2-4C0B-9A3E-015FFB242135";
name = Bold;
paths = (
{
closed = 1;
nodes = (
"467.5 1489 LINE",
"467.5 1583 OFFCURVE",
"481.5 1721 OFFCURVE",
"629.5 1721 CURVE SMOOTH",
"750.5 1721 OFFCURVE",
"885.5 1636 OFFCURVE",
"916.5 1636 CURVE SMOOTH",
"936.5 1637 OFFCURVE",
"948.5 1721 OFFCURVE",
"948.5 1721 CURVE",
"1098.5 1721 LINE",
"1098.5 1721 OFFCURVE",
"1088.5 1479 OFFCURVE",
"940.5 1479 CURVE SMOOTH",
"839.5 1479 OFFCURVE",
"706.5 1569 OFFCURVE",
"649.5 1569 CURVE SMOOTH",
"628.5 1569 OFFCURVE",
"614.5 1479 OFFCURVE",
"614.5 1479 CURVE"
);
},
{
closed = 1;
nodes = (
"420 946 OFFCURVE",
"557 1127 OFFCURVE",
"784 1127 CURVE SMOOTH",
"1011 1127 OFFCURVE",
"1146 946 OFFCURVE",
"1146 667 CURVE SMOOTH",
"1146 393 OFFCURVE",
"1012 210 OFFCURVE",
"784 210 CURVE SMOOTH",
"556 210 OFFCURVE",
"420 393 OFFCURVE",
"420 667 CURVE SMOOTH"
);
},
{
closed = 1;
nodes = (
"132 237 OFFCURVE",
"391 -18 OFFCURVE",
"784 -18 CURVE SMOOTH",
"1177 -18 OFFCURVE",
"1434 237 OFFCURVE",
"1434 669 CURVE SMOOTH",
"1434 1105 OFFCURVE",
"1175 1357 OFFCURVE",
"784 1357 CURVE SMOOTH",
"393 1357 OFFCURVE",
"132 1105 OFFCURVE",
"132 669 CURVE SMOOTH"
);
}
);
width = 1566;
}
);
unicode = 00D5;
},
{
glyphname = OE;
layers = (
{
anchors = (
{
name = top;
position = "{961, 0}";
}
);
layerId = "DC6F5AB8-73F2-4C0B-9A3E-015FFB242135";
name = Bold;
paths = (
{
closed = 1;
nodes = (
"969 235 OFFCURVE",
"863 187 OFFCURVE",
"725 187 CURVE SMOOTH",
"451 188 OFFCURVE",
"318 415 OFFCURVE",
"318 672 CURVE SMOOTH",
"320 928 OFFCURVE",
"461 1160 OFFCURVE",
"722 1160 CURVE SMOOTH",
"863 1160 OFFCURVE",
"966 1111 OFFCURVE",
"1030 1048 CURVE",
"1030 289 LINE"
);
},
{
closed = 1;
nodes = (
"65 274 OFFCURVE",
"338 -17 OFFCURVE",
"727 -17 CURVE SMOOTH",
"842 -17 OFFCURVE",
"954 19 OFFCURVE",
"1030 67 CURVE",
"1030 4 LINE",
"1887 4 LINE",
"1905 208 LINE",
"1277 208 LINE",
"1277 596 LINE",
"1835 596 LINE",
"1835 798 LINE",
"1277 798 LINE",
"1277 1133 LINE",
"1861 1133 LINE",
"1879 1338 LINE",
"1030 1338 LINE",
"1030 1278 LINE",
"945 1332 OFFCURVE",
"844 1363 OFFCURVE",
"722 1363 CURVE SMOOTH",
"349 1363 OFFCURVE",
"68 1073 OFFCURVE",
"65 676 CURVE"
);
}
);
width = 1922;
}
);
unicode = 0152;
},
{
glyphname = P;
lastChange = "2012-12-23 11:53:34 +0000";
layers = (
{
layerId = "DC6F5AB8-73F2-4C0B-9A3E-015FFB242135";
name = Bold;
paths = (
{
closed = 1;
nodes = (
"172 1336 LINE",
"172 0 LINE",
"460 0 LINE",
"460 482 LINE",
"527 476 OFFCURVE",
"644 475 OFFCURVE",
"696 475 CURVE SMOOTH",
"1085 475 OFFCURVE",
"1217 674 OFFCURVE",
"1217 916 CURVE SMOOTH",
"1217 1202 OFFCURVE",
"995 1336 OFFCURVE",
"696 1336 CURVE SMOOTH"
);
},
{
closed = 1;
nodes = (
"858 1126 OFFCURVE",
"929 1050 OFFCURVE",
"929 908 CURVE SMOOTH",
"929 795 OFFCURVE",
"915 670 OFFCURVE",
"670 670 CURVE SMOOTH",
"624 670 OFFCURVE",
"488 670 OFFCURVE",
"460 671 CURVE",
"460 1126 LINE",
"697 1126 LINE SMOOTH"
);
}
);
width = 1305;
}
);
unicode = 0050;
},
{
glyphname = Thorn;
layers = (
{
layerId = "DC6F5AB8-73F2-4C0B-9A3E-015FFB242135";
name = Bold;
paths = (
{
closed = 1;
nodes = (
"370 946 LINE",
"632 946 LINE SMOOTH",
"823 946 OFFCURVE",
"921 882 OFFCURVE",
"921 725 CURVE SMOOTH",
"921 585 OFFCURVE",
"826 505 OFFCURVE",
"657 505 CURVE SMOOTH",
"371 505 LINE"
);
},
{
closed = 1;
nodes = (
"370 1326 LINE",
"153 1326 LINE",
"153 16 LINE",
"370 16 LINE",
"370 311 LINE",
"423 311 OFFCURVE",
"643 310 OFFCURVE",
"645 310 CURVE SMOOTH",
"924 310 OFFCURVE",
"1140 454 OFFCURVE",
"1140 720 CURVE SMOOTH",
"1140 1016 OFFCURVE",
"908 1126 OFFCURVE",
"613 1126 CURVE SMOOTH",
"370 1126 LINE"
);
}
);
width = 1164;
}
);
unicode = 00DE;
},
{
glyphname = Q;
lastChange = "2012-12-23 00:28:45 +0000";
layers = (
{
components = (
{
name = O;
transform = "{1, 0, 0, 1, 0, 0}";
}
);
layerId = "DC6F5AB8-73F2-4C0B-9A3E-015FFB242135";
name = Bold;
paths = (
{
closed = 1;
nodes = (
"838 -16 LINE",
"915 -158 OFFCURVE",
"1050 -382 OFFCURVE",
"1160 -460 CURVE",
"1329 -313 LINE",
"1218 -202 OFFCURVE",
"1122 -32 OFFCURVE",
"1077 43 CURVE"
);
}
);
width = 1618;
}
);
unicode = 0051;
},
{
glyphname = R;
lastChange = "2012-12-23 00:48:22 +0000";
layers = (
{
anchors = (
{
name = bottom;
position = "{675, 0}";
},
{
name = top;
position = "{675, 0}";
}
);
layerId = "DC6F5AB8-73F2-4C0B-9A3E-015FFB242135";
name = Bold;
paths = (
{
closed = 1;
nodes = (
"172 1336 LINE",
"172 0 LINE",
"460 0 LINE",
"460 531 LINE",
"631 531 LINE SMOOTH",
"664 531 OFFCURVE",
"686 531 OFFCURVE",
"703 530 CURVE",
"718 501 OFFCURVE",
"773 395 OFFCURVE",
"803 331 CURVE SMOOTH",
"966 0 LINE",
"1269 0 LINE",
"1072 391 LINE SMOOTH",
"1036 465 OFFCURVE",
"999 539 OFFCURVE",
"962 587 CURVE",
"1109 646 OFFCURVE",
"1219 770 OFFCURVE",
"1219 947 CURVE SMOOTH",
"1219 1258 OFFCURVE",
"988 1336 OFFCURVE",
"682 1336 CURVE SMOOTH"
);
},
{
closed = 1;
nodes = (
"859 1126 OFFCURVE",
"931 1064 OFFCURVE",
"931 943 CURVE SMOOTH",
"931 804 OFFCURVE",
"866 742 OFFCURVE",
"685 742 CURVE SMOOTH",
"460 742 LINE",
"460 1126 LINE",
"695 1126 LINE SMOOTH"
);
}
);
width = 1358;
}
);
unicode = 0052;
},
{
glyphname = Racute;
layers = (
{
layerId = "DC6F5AB8-73F2-4C0B-9A3E-015FFB242135";
name = Bold;
paths = (
{
closed = 1;
nodes = (
"676.5 1479 LINE",
"833.5 1479 LINE",
"1128.5 1840 LINE",
"836.5 1840 LINE"
);
},
{
closed = 1;
nodes = (
"202 0 LINE",
"490 0 LINE",
"490 531 LINE",
"670 531 LINE SMOOTH",
"703 531 OFFCURVE",
"725 531 OFFCURVE",
"742 530 CURVE",
"757 501 OFFCURVE",
"812 395 OFFCURVE",
"842 331 CURVE SMOOTH",
"1005 0 LINE",
"1308 0 LINE",
"1111 391 LINE SMOOTH",
"1075 465 OFFCURVE",
"1038 539 OFFCURVE",
"1001 587 CURVE",
"1148 646 OFFCURVE",
"1258 770 OFFCURVE",
"1258 947 CURVE SMOOTH",
"1258 1258 OFFCURVE",
"1027 1336 OFFCURVE",
"721 1336 CURVE SMOOTH",
"202 1336 LINE"
);
},
{
closed = 1;
nodes = (
"970 804 OFFCURVE",
"905 742 OFFCURVE",
"724 742 CURVE SMOOTH",
"490 742 LINE",
"490 1126 LINE",
"734 1126 LINE SMOOTH",
"898 1126 OFFCURVE",
"970 1064 OFFCURVE",
"970 943 CURVE SMOOTH"
);
}
);
width = 1406;
}
);
unicode = 0154;
},
{
glyphname = Rcaron;
layers = (
{
layerId = "DC6F5AB8-73F2-4C0B-9A3E-015FFB242135";
name = Bold;
paths = (
{
closed = 1;
nodes = (
"660 1479 LINE",
"850 1479 LINE",
"1098 1816 LINE",
"893 1816 LINE",
"743 1645 LINE",
"613 1816 LINE",
"412 1816 LINE"
);
},
{
closed = 1;
nodes = (
"202 0 LINE",
"490 0 LINE",
"490 531 LINE",
"670 531 LINE SMOOTH",
"703 531 OFFCURVE",
"725 531 OFFCURVE",
"742 530 CURVE",
"757 501 OFFCURVE",
"812 395 OFFCURVE",
"842 331 CURVE SMOOTH",
"1005 0 LINE",
"1308 0 LINE",
"1111 391 LINE SMOOTH",
"1075 465 OFFCURVE",
"1038 539 OFFCURVE",
"1001 587 CURVE",
"1148 646 OFFCURVE",
"1258 770 OFFCURVE",
"1258 947 CURVE SMOOTH",
"1258 1258 OFFCURVE",
"1027 1336 OFFCURVE",
"721 1336 CURVE SMOOTH",
"202 1336 LINE"
);
},
{
closed = 1;
nodes = (
"970 804 OFFCURVE",
"905 742 OFFCURVE",
"724 742 CURVE SMOOTH",
"490 742 LINE",
"490 1126 LINE",
"734 1126 LINE SMOOTH",
"898 1126 OFFCURVE",
"970 1064 OFFCURVE",
"970 943 CURVE SMOOTH"
);
}
);
width = 1406;
}
);
unicode = 0158;
},
{
glyphname = Rcommaaccent;
layers = (
{
layerId = "DC6F5AB8-73F2-4C0B-9A3E-015FFB242135";
name = Bold;
paths = (
{
closed = 1;
nodes = (
"593.5 -601 LINE",
"761.5 -601 LINE",
"916.5 -122 LINE",
"694.5 -122 LINE"
);
},
{
closed = 1;
nodes = (
"202 0 LINE",
"490 0 LINE",
"490 531 LINE",
"670 531 LINE SMOOTH",
"703 531 OFFCURVE",
"725 531 OFFCURVE",
"742 530 CURVE",
"757 501 OFFCURVE",
"812 395 OFFCURVE",
"842 331 CURVE SMOOTH",
"1005 0 LINE",
"1308 0 LINE",
"1111 391 LINE SMOOTH",
"1075 465 OFFCURVE",
"1038 539 OFFCURVE",
"1001 587 CURVE",
"1148 646 OFFCURVE",
"1258 770 OFFCURVE",
"1258 947 CURVE SMOOTH",
"1258 1258 OFFCURVE",
"1027 1336 OFFCURVE",
"721 1336 CURVE SMOOTH",
"202 1336 LINE"
);
},
{
closed = 1;
nodes = (
"970 804 OFFCURVE",
"905 742 OFFCURVE",
"724 742 CURVE SMOOTH",
"490 742 LINE",
"490 1126 LINE",
"734 1126 LINE SMOOTH",
"898 1126 OFFCURVE",
"970 1064 OFFCURVE",
"970 943 CURVE SMOOTH"
);
}
);
width = 1406;
}
);
unicode = 0156;
},
{
glyphname = S;
lastChange = "2012-12-23 11:49:16 +0000";
layers = (
{
anchors = (
{
name = bottom;
position = "{585, 0}";
},
{
name = top;
position = "{585, 0}";
}
);
layerId = "DC6F5AB8-73F2-4C0B-9A3E-015FFB242135";
name = Bold;
paths = (
{
closed = 1;
nodes = (
"342 1358 OFFCURVE",
"145 1227 OFFCURVE",
"145 975 CURVE SMOOTH",
"145 785 OFFCURVE",
"249 670 OFFCURVE",
"411 617 CURVE SMOOTH",
"635 544 LINE SMOOTH",
"732 512 OFFCURVE",
"787 464 OFFCURVE",
"787 385 CURVE SMOOTH",
"787 262 OFFCURVE",
"718 210 OFFCURVE",
"577 210 CURVE SMOOTH",
"445 210 OFFCURVE",
"282 253 OFFCURVE",
"205 303 CURVE",
"122 87 LINE",
"238 21 OFFCURVE",
"391 -18 OFFCURVE",
"567 -18 CURVE SMOOTH",
"856 -18 OFFCURVE",
"1060 119 OFFCURVE",
"1060 381 CURVE SMOOTH",
"1060 598 OFFCURVE",
"955 705 OFFCURVE",
"720 783 CURVE SMOOTH",
"512 853 LINE SMOOTH",
"451 873 OFFCURVE",
"414 915 OFFCURVE",
"414 980 CURVE SMOOTH",
"414 1087 OFFCURVE",
"488 1128 OFFCURVE",
"621 1128 CURVE SMOOTH",
"740 1128 OFFCURVE",
"867 1075 OFFCURVE",
"959 1035 CURVE",
"1041 1251 LINE",
"920 1320 OFFCURVE",
"770 1358 OFFCURVE",
"610 1358 CURVE SMOOTH"
);
}
);
width = 1174;
}
);
unicode = 0053;
},
{
glyphname = Sacute;
layers = (
{
layerId = "DC6F5AB8-73F2-4C0B-9A3E-015FFB242135";
name = Bold;
paths = (
{
closed = 1;
nodes = (
"515.5 1480 LINE",
"672.5 1480 LINE",
"967.5 1841 LINE",
"675.5 1841 LINE"
);
},
{
closed = 1;
nodes = (
"1063 119 OFFCURVE",
"859 -18 OFFCURVE",
"570 -18 CURVE SMOOTH",
"394 -18 OFFCURVE",
"241 21 OFFCURVE",
"125 87 CURVE",
"208 303 LINE",
"285 253 OFFCURVE",
"448 210 OFFCURVE",
"580 210 CURVE SMOOTH",
"721 210 OFFCURVE",
"790 262 OFFCURVE",
"790 385 CURVE SMOOTH",
"790 464 OFFCURVE",
"735 512 OFFCURVE",
"638 544 CURVE SMOOTH",
"414 617 LINE SMOOTH",
"252 670 OFFCURVE",
"148 785 OFFCURVE",
"148 975 CURVE SMOOTH",
"148 1227 OFFCURVE",
"345 1358 OFFCURVE",
"613 1358 CURVE SMOOTH",
"773 1358 OFFCURVE",
"923 1320 OFFCURVE",
"1044 1251 CURVE",
"962 1035 LINE",
"870 1075 OFFCURVE",
"743 1128 OFFCURVE",
"624 1128 CURVE SMOOTH",
"491 1128 OFFCURVE",
"417 1087 OFFCURVE",
"417 980 CURVE SMOOTH",
"417 915 OFFCURVE",
"454 873 OFFCURVE",
"515 853 CURVE SMOOTH",
"723 783 LINE SMOOTH",
"958 705 OFFCURVE",
"1063 598 OFFCURVE",
"1063 381 CURVE SMOOTH"
);
}
);
width = 1182;
}
);
unicode = 015A;
},
{
glyphname = Scaron;
layers = (
{
layerId = "DC6F5AB8-73F2-4C0B-9A3E-015FFB242135";
name = Bold;
paths = (
{
closed = 1;
nodes = (
"499 1480 LINE",
"689 1480 LINE",
"937 1817 LINE",
"732 1817 LINE",
"582 1646 LINE",
"452 1817 LINE",
"251 1817 LINE"
);
},
{
closed = 1;
nodes = (
"1063 119 OFFCURVE",
"859 -18 OFFCURVE",
"570 -18 CURVE SMOOTH",
"394 -18 OFFCURVE",
"241 21 OFFCURVE",
"125 87 CURVE",
"208 303 LINE",
"285 253 OFFCURVE",
"448 210 OFFCURVE",
"580 210 CURVE SMOOTH",
"721 210 OFFCURVE",
"790 262 OFFCURVE",
"790 385 CURVE SMOOTH",
"790 464 OFFCURVE",
"735 512 OFFCURVE",
"638 544 CURVE SMOOTH",
"414 617 LINE SMOOTH",
"252 670 OFFCURVE",
"148 785 OFFCURVE",
"148 975 CURVE SMOOTH",
"148 1227 OFFCURVE",
"345 1358 OFFCURVE",
"613 1358 CURVE SMOOTH",
"773 1358 OFFCURVE",
"923 1320 OFFCURVE",
"1044 1251 CURVE",
"962 1035 LINE",
"870 1075 OFFCURVE",
"743 1128 OFFCURVE",
"624 1128 CURVE SMOOTH",
"491 1128 OFFCURVE",
"417 1087 OFFCURVE",
"417 980 CURVE SMOOTH",
"417 915 OFFCURVE",
"454 873 OFFCURVE",
"515 853 CURVE SMOOTH",
"723 783 LINE SMOOTH",
"958 705 OFFCURVE",
"1063 598 OFFCURVE",
"1063 381 CURVE SMOOTH"
);
}
);
width = 1182;
}
);
unicode = 0160;
},
{
glyphname = Scedilla;
layers = (
{
layerId = "DC6F5AB8-73F2-4C0B-9A3E-015FFB242135";
name = Bold;
paths = (
{
closed = 1;
nodes = (
"404.5 -363 LINE",
"613.5 -363 LINE",
"667.5 -6 LINE",
"520.5 -6 LINE"
);
},
{
closed = 1;
nodes = (
"1063 119 OFFCURVE",
"859 -18 OFFCURVE",
"570 -18 CURVE SMOOTH",
"394 -18 OFFCURVE",
"241 21 OFFCURVE",
"125 87 CURVE",
"208 303 LINE",
"285 253 OFFCURVE",
"448 210 OFFCURVE",
"580 210 CURVE SMOOTH",
"721 210 OFFCURVE",
"790 262 OFFCURVE",
"790 385 CURVE SMOOTH",
"790 464 OFFCURVE",
"735 512 OFFCURVE",
"638 544 CURVE SMOOTH",
"414 617 LINE SMOOTH",
"252 670 OFFCURVE",
"148 785 OFFCURVE",
"148 975 CURVE SMOOTH",
"148 1227 OFFCURVE",
"345 1358 OFFCURVE",
"613 1358 CURVE SMOOTH",
"773 1358 OFFCURVE",
"923 1320 OFFCURVE",
"1044 1251 CURVE",
"962 1035 LINE",
"870 1075 OFFCURVE",
"743 1128 OFFCURVE",
"624 1128 CURVE SMOOTH",
"491 1128 OFFCURVE",
"417 1087 OFFCURVE",
"417 980 CURVE SMOOTH",
"417 915 OFFCURVE",
"454 873 OFFCURVE",
"515 853 CURVE SMOOTH",
"723 783 LINE SMOOTH",
"958 705 OFFCURVE",
"1063 598 OFFCURVE",
"1063 381 CURVE SMOOTH"
);
}
);
width = 1182;
}
);
unicode = 015E;
},
{
glyphname = Scircumflex;
layers = (
{
layerId = "DC6F5AB8-73F2-4C0B-9A3E-015FFB242135";
name = Bold;
paths = (
{
closed = 1;
nodes = (
"260.5 1480 LINE",
"441.5 1480 LINE",
"583.5 1674 LINE",
"741.5 1480 LINE",
"927.5 1480 LINE",
"691.5 1848 LINE",
"495.5 1848 LINE"
);
},
{
closed = 1;
nodes = (
"1063 119 OFFCURVE",
"859 -18 OFFCURVE",
"570 -18 CURVE SMOOTH",
"394 -18 OFFCURVE",
"241 21 OFFCURVE",
"125 87 CURVE",
"208 303 LINE",
"285 253 OFFCURVE",
"448 210 OFFCURVE",
"580 210 CURVE SMOOTH",
"721 210 OFFCURVE",
"790 262 OFFCURVE",
"790 385 CURVE SMOOTH",
"790 464 OFFCURVE",
"735 512 OFFCURVE",
"638 544 CURVE SMOOTH",
"414 617 LINE SMOOTH",
"252 670 OFFCURVE",
"148 785 OFFCURVE",
"148 975 CURVE SMOOTH",
"148 1227 OFFCURVE",
"345 1358 OFFCURVE",
"613 1358 CURVE SMOOTH",
"773 1358 OFFCURVE",
"923 1320 OFFCURVE",
"1044 1251 CURVE",
"962 1035 LINE",
"870 1075 OFFCURVE",
"743 1128 OFFCURVE",
"624 1128 CURVE SMOOTH",
"491 1128 OFFCURVE",
"417 1087 OFFCURVE",
"417 980 CURVE SMOOTH",
"417 915 OFFCURVE",
"454 873 OFFCURVE",
"515 853 CURVE SMOOTH",
"723 783 LINE SMOOTH",
"958 705 OFFCURVE",
"1063 598 OFFCURVE",
"1063 381 CURVE SMOOTH"
);
}
);
width = 1182;
}
);
unicode = 015C;
},
{
glyphname = Scommaaccent;
layers = (
{
layerId = "DC6F5AB8-73F2-4C0B-9A3E-015FFB242135";
name = Bold;
paths = (
{
closed = 1;
nodes = (
"432.5 -619 LINE",
"600.5 -619 LINE",
"755.5 -140 LINE",
"533.5 -140 LINE"
);
},
{
closed = 1;
nodes = (
"1063 119 OFFCURVE",
"859 -18 OFFCURVE",
"570 -18 CURVE SMOOTH",
"394 -18 OFFCURVE",
"241 21 OFFCURVE",
"125 87 CURVE",
"208 303 LINE",
"285 253 OFFCURVE",
"448 210 OFFCURVE",
"580 210 CURVE SMOOTH",
"721 210 OFFCURVE",
"790 262 OFFCURVE",
"790 385 CURVE SMOOTH",
"790 464 OFFCURVE",
"735 512 OFFCURVE",
"638 544 CURVE SMOOTH",
"414 617 LINE SMOOTH",
"252 670 OFFCURVE",
"148 785 OFFCURVE",
"148 975 CURVE SMOOTH",
"148 1227 OFFCURVE",
"345 1358 OFFCURVE",
"613 1358 CURVE SMOOTH",
"773 1358 OFFCURVE",
"923 1320 OFFCURVE",
"1044 1251 CURVE",
"962 1035 LINE",
"870 1075 OFFCURVE",
"743 1128 OFFCURVE",
"624 1128 CURVE SMOOTH",
"491 1128 OFFCURVE",
"417 1087 OFFCURVE",
"417 980 CURVE SMOOTH",
"417 915 OFFCURVE",
"454 873 OFFCURVE",
"515 853 CURVE SMOOTH",
"723 783 LINE SMOOTH",
"958 705 OFFCURVE",
"1063 598 OFFCURVE",
"1063 381 CURVE SMOOTH"
);
}
);
width = 1182;
}
);
unicode = 0218;
},
{
glyphname = uni018F;
layers = (
{
layerId = "DC6F5AB8-73F2-4C0B-9A3E-015FFB242135";
name = Bold;
paths = (
{
closed = 1;
nodes = (
"894 328 OFFCURVE",
"782 190 OFFCURVE",
"590 190 CURVE SMOOTH",
"400 190 OFFCURVE",
"314 331 OFFCURVE",
"296 529 CURVE",
"928 529 LINE"
);
},
{
closed = 1;
nodes = (
"54 733 LINE",
"54 723 LINE SMOOTH",
"54 707 OFFCURVE",
"52 672 OFFCURVE",
"53 646 CURVE SMOOTH",
"67 205 OFFCURVE",
"259 -18 OFFCURVE",
"581 -18 CURVE SMOOTH",
"945 -18 OFFCURVE",
"1204 257 OFFCURVE",
"1204 677 CURVE SMOOTH",
"1204 1061 OFFCURVE",
"964 1363 OFFCURVE",
"540 1363 CURVE SMOOTH",
"362 1363 OFFCURVE",
"222 1326 OFFCURVE",
"107 1236 CURVE SMOOTH",
"101 1231 LINE",
"184 1054 LINE",
"192 1059 LINE SMOOTH",
"281 1111 OFFCURVE",
"392 1152 OFFCURVE",
"529 1152 CURVE SMOOTH",
"779 1152 OFFCURVE",
"920 997 OFFCURVE",
"940 733 CURVE"
);
}
);
width = 1277;
}
);
unicode = 018F;
},
{
glyphname = T;
lastChange = "2012-12-23 00:55:08 +0000";
layers = (
{
anchors = (
{
name = bottom;
position = "{595, 0}";
},
{
name = center;
position = "{595, 0}";
},
{
name = top;
position = "{595, 0}";
}
);
layerId = "DC6F5AB8-73F2-4C0B-9A3E-015FFB242135";
name = Bold;
paths = (
{
closed = 1;
nodes = (
"78 1336 LINE",
"78 1126 LINE",
"453 1126 LINE",
"453 0 LINE",
"741 0 LINE",
"741 1126 LINE",
"1112 1126 LINE",
"1112 1336 LINE"
);
}
);
width = 1190;
}
);
unicode = 0054;
},
{
glyphname = Tcaron;
layers = (
{
layerId = "DC6F5AB8-73F2-4C0B-9A3E-015FFB242135";
name = Bold;
paths = (
{
closed = 1;
nodes = (
"487 1479 LINE",
"677 1479 LINE",
"925 1816 LINE",
"720 1816 LINE",
"570 1645 LINE",
"440 1816 LINE",
"239 1816 LINE"
);
},
{
closed = 1;
nodes = (
"1099 1336 LINE",
"65 1336 LINE",
"65 1126 LINE",
"440 1126 LINE",
"440 0 LINE",
"728 0 LINE",
"728 1126 LINE",
"1099 1126 LINE"
);
}
);
width = 1164;
}
);
unicode = 0164;
},
{
glyphname = U;
lastChange = "2012-12-23 00:28:40 +0000";
layers = (
{
anchors = (
{
name = ogonek;
position = "{1303, 10}";
},
{
name = top;
position = "{724, 0}";
}
);
layerId = "DC6F5AB8-73F2-4C0B-9A3E-015FFB242135";
name = Bold;
paths = (
{
closed = 1;
nodes = (
"992 1336 LINE",
"992 505 LINE SMOOTH",
"992 310 OFFCURVE",
"906 213 OFFCURVE",
"724 213 CURVE SMOOTH",
"548 213 OFFCURVE",
"456 309 OFFCURVE",
"456 504 CURVE SMOOTH",
"456 1336 LINE",
"168 1336 LINE",
"168 485 LINE SMOOTH",
"168 170 OFFCURVE",
"376 -18 OFFCURVE",
"724 -18 CURVE SMOOTH",
"1071 -18 OFFCURVE",
"1280 172 OFFCURVE",
"1280 484 CURVE SMOOTH",
"1280 1336 LINE"
);
}
);
width = 1448;
}
);
unicode = 0055;
},
{
glyphname = Uacute;
layers = (
{
layerId = "DC6F5AB8-73F2-4C0B-9A3E-015FFB242135";
name = Bold;
paths = (
{
closed = 1;
nodes = (
"641.5 1479 LINE",
"798.5 1479 LINE",
"1093.5 1840 LINE",
"801.5 1840 LINE"
);
},
{
closed = 1;
nodes = (
"169 170 OFFCURVE",
"372 -18 OFFCURVE",
"720 -18 CURVE SMOOTH",
"1067 -18 OFFCURVE",
"1271 172 OFFCURVE",
"1271 484 CURVE SMOOTH",
"1271 1336 LINE",
"983 1336 LINE",
"983 505 LINE SMOOTH",
"983 310 OFFCURVE",
"902 213 OFFCURVE",
"720 213 CURVE SMOOTH",
"544 213 OFFCURVE",
"457 309 OFFCURVE",
"457 504 CURVE SMOOTH",
"457 1336 LINE",
"169 1336 LINE",
"169 485 LINE SMOOTH"
);
}
);
width = 1440;
}
);
unicode = 00DA;
},
{
glyphname = Ubreve;
layers = (
{
layerId = "DC6F5AB8-73F2-4C0B-9A3E-015FFB242135";
name = Bold;
paths = (
{
closed = 1;
nodes = (
"989 1722 LINE",
"989 1556 OFFCURVE",
"872 1479 OFFCURVE",
"719 1479 CURVE SMOOTH",
"567 1479 OFFCURVE",
"451 1557 OFFCURVE",
"451 1722 CURVE",
"619 1722 LINE",
"619 1661 OFFCURVE",
"645 1637 OFFCURVE",
"719 1637 CURVE SMOOTH",
"793 1637 OFFCURVE",
"820 1661 OFFCURVE",
"820 1722 CURVE"
);
},
{
closed = 1;
nodes = (
"169 170 OFFCURVE",
"372 -18 OFFCURVE",
"720 -18 CURVE SMOOTH",
"1067 -18 OFFCURVE",
"1271 172 OFFCURVE",
"1271 484 CURVE SMOOTH",
"1271 1336 LINE",
"983 1336 LINE",
"983 505 LINE SMOOTH",
"983 310 OFFCURVE",
"902 213 OFFCURVE",
"720 213 CURVE SMOOTH",
"544 213 OFFCURVE",
"457 309 OFFCURVE",
"457 504 CURVE SMOOTH",
"457 1336 LINE",
"169 1336 LINE",
"169 485 LINE SMOOTH"
);
}
);
width = 1440;
}
);
unicode = 016C;
},
{
glyphname = Ucircumflex;
layers = (
{
layerId = "DC6F5AB8-73F2-4C0B-9A3E-015FFB242135";
name = Bold;
paths = (
{
closed = 1;
nodes = (
"386.5 1479 LINE",
"567.5 1479 LINE",
"709.5 1673 LINE",
"867.5 1479 LINE",
"1053.5 1479 LINE",
"817.5 1847 LINE",
"621.5 1847 LINE"
);
},
{
closed = 1;
nodes = (
"169 170 OFFCURVE",
"372 -18 OFFCURVE",
"720 -18 CURVE SMOOTH",
"1067 -18 OFFCURVE",
"1271 172 OFFCURVE",
"1271 484 CURVE SMOOTH",
"1271 1336 LINE",
"983 1336 LINE",
"983 505 LINE SMOOTH",
"983 310 OFFCURVE",
"902 213 OFFCURVE",
"720 213 CURVE SMOOTH",
"544 213 OFFCURVE",
"457 309 OFFCURVE",
"457 504 CURVE SMOOTH",
"457 1336 LINE",
"169 1336 LINE",
"169 485 LINE SMOOTH"
);
}
);
width = 1440;
}
);
unicode = 00DB;
},
{
glyphname = Udieresis;
layers = (
{
layerId = "DC6F5AB8-73F2-4C0B-9A3E-015FFB242135";
name = Bold;
paths = (
{
closed = 1;
nodes = (
"811.5 1479 LINE",
"1004.5 1479 LINE",
"1004.5 1724 LINE",
"811.5 1724 LINE"
);
},
{
closed = 1;
nodes = (
"435.5 1479 LINE",
"629.5 1479 LINE",
"629.5 1724 LINE",
"435.5 1724 LINE"
);
},
{
closed = 1;
nodes = (
"169 170 OFFCURVE",
"372 -18 OFFCURVE",
"720 -18 CURVE SMOOTH",
"1067 -18 OFFCURVE",
"1271 172 OFFCURVE",
"1271 484 CURVE SMOOTH",
"1271 1336 LINE",
"983 1336 LINE",
"983 505 LINE SMOOTH",
"983 310 OFFCURVE",
"902 213 OFFCURVE",
"720 213 CURVE SMOOTH",
"544 213 OFFCURVE",
"457 309 OFFCURVE",
"457 504 CURVE SMOOTH",
"457 1336 LINE",
"169 1336 LINE",
"169 485 LINE SMOOTH"
);
}
);
width = 1440;
}
);
unicode = 00DC;
},
{
glyphname = Ugrave;
layers = (
{
layerId = "DC6F5AB8-73F2-4C0B-9A3E-015FFB242135";
name = Bold;
paths = (
{
closed = 1;
nodes = (
"637.5 1479 LINE",
"802.5 1479 LINE",
"625.5 1840 LINE",
"326.5 1840 LINE"
);
},
{
closed = 1;
nodes = (
"169 170 OFFCURVE",
"372 -18 OFFCURVE",
"720 -18 CURVE SMOOTH",
"1067 -18 OFFCURVE",
"1271 172 OFFCURVE",
"1271 484 CURVE SMOOTH",
"1271 1336 LINE",
"983 1336 LINE",
"983 505 LINE SMOOTH",
"983 310 OFFCURVE",
"902 213 OFFCURVE",
"720 213 CURVE SMOOTH",
"544 213 OFFCURVE",
"457 309 OFFCURVE",
"457 504 CURVE SMOOTH",
"457 1336 LINE",
"169 1336 LINE",
"169 485 LINE SMOOTH"
);
}
);
width = 1440;
}
);
unicode = 00D9;
},
{
glyphname = Uhorn;
layers = (
{
layerId = "DC6F5AB8-73F2-4C0B-9A3E-015FFB242135";
name = Bold;
paths = (
{
closed = 1;
nodes = (
"1332 1139 LINE",
"1332 1038 LINE",
"1340 1037 LINE SMOOTH",
"1368 1034 OFFCURVE",
"1396 1031 OFFCURVE",
"1423 1031 CURVE SMOOTH",
"1520 1031 OFFCURVE",
"1567 1119 OFFCURVE",
"1567 1215 CURVE SMOOTH",
"1567 1259 OFFCURVE",
"1556 1307 OFFCURVE",
"1538 1351 CURVE",
"1537 1357 LINE",
"1412 1357 LINE",
"1417 1344 LINE SMOOTH",
"1430 1308 OFFCURVE",
"1443 1257 OFFCURVE",
"1443 1216 CURVE SMOOTH",
"1443 1169 OFFCURVE",
"1429 1138 OFFCURVE",
"1385 1138 CURVE SMOOTH",
"1371 1138 OFFCURVE",
"1355 1139 OFFCURVE",
"1341 1139 CURVE SMOOTH"
);
},
{
closed = 1;
nodes = (
"169 170 OFFCURVE",
"372 -18 OFFCURVE",
"720 -18 CURVE SMOOTH",
"1067 -18 OFFCURVE",
"1271 172 OFFCURVE",
"1271 484 CURVE SMOOTH",
"1271 1336 LINE",
"983 1336 LINE",
"983 505 LINE SMOOTH",
"983 310 OFFCURVE",
"902 213 OFFCURVE",
"720 213 CURVE SMOOTH",
"544 213 OFFCURVE",
"457 309 OFFCURVE",
"457 504 CURVE SMOOTH",
"457 1336 LINE",
"169 1336 LINE",
"169 485 LINE SMOOTH"
);
}
);
width = 1440;
}
);
unicode = 01AF;
},
{
glyphname = Uhungarumlaut;
layers = (
{
layerId = "DC6F5AB8-73F2-4C0B-9A3E-015FFB242135";
name = Bold;
paths = (
{
closed = 1;
nodes = (
"786.5 1479 LINE",
"927.5 1479 LINE",
"1252.5 1819 LINE",
"1023.5 1819 LINE"
);
},
{
closed = 1;
nodes = (
"512.5 1479 LINE",
"655.5 1479 LINE",
"970.5 1819 LINE",
"744.5 1819 LINE"
);
},
{
closed = 1;
nodes = (
"169 170 OFFCURVE",
"372 -18 OFFCURVE",
"720 -18 CURVE SMOOTH",
"1067 -18 OFFCURVE",
"1271 172 OFFCURVE",
"1271 484 CURVE SMOOTH",
"1271 1336 LINE",
"983 1336 LINE",
"983 505 LINE SMOOTH",
"983 310 OFFCURVE",
"902 213 OFFCURVE",
"720 213 CURVE SMOOTH",
"544 213 OFFCURVE",
"457 309 OFFCURVE",
"457 504 CURVE SMOOTH",
"457 1336 LINE",
"169 1336 LINE",
"169 485 LINE SMOOTH"
);
}
);
width = 1440;
}
);
unicode = 0170;
},
{
glyphname = Umacron;
layers = (
{
layerId = "DC6F5AB8-73F2-4C0B-9A3E-015FFB242135";
name = Bold;
paths = (
{
closed = 1;
nodes = (
"395.5 1479 LINE",
"1044.5 1479 LINE",
"1044.5 1638 LINE",
"395.5 1638 LINE"
);
},
{
closed = 1;
nodes = (
"169 170 OFFCURVE",
"372 -18 OFFCURVE",
"720 -18 CURVE SMOOTH",
"1067 -18 OFFCURVE",
"1271 172 OFFCURVE",
"1271 484 CURVE SMOOTH",
"1271 1336 LINE",
"983 1336 LINE",
"983 505 LINE SMOOTH",
"983 310 OFFCURVE",
"902 213 OFFCURVE",
"720 213 CURVE SMOOTH",
"544 213 OFFCURVE",
"457 309 OFFCURVE",
"457 504 CURVE SMOOTH",
"457 1336 LINE",
"169 1336 LINE",
"169 485 LINE SMOOTH"
);
}
);
width = 1440;
}
);
unicode = 016A;
},
{
glyphname = Uogonek;
layers = (
{
layerId = "DC6F5AB8-73F2-4C0B-9A3E-015FFB242135";
name = Bold;
paths = (
{
closed = 1;
nodes = (
"492.5 -357 OFFCURVE",
"583.5 -411 OFFCURVE",
"687.5 -411 CURVE SMOOTH",
"746.5 -411 OFFCURVE",
"807.5 -396 OFFCURVE",
"862.5 -375 CURVE",
"862.5 -375 OFFCURVE",
"855.5 -234 OFFCURVE",
"854.5 -234 CURVE",
"842.5 -239 OFFCURVE",
"783.5 -265 OFFCURVE",
"731.5 -265 CURVE SMOOTH",
"693.5 -265 OFFCURVE",
"667.5 -230 OFFCURVE",
"667.5 -196 CURVE SMOOTH",
"667.5 -141 OFFCURVE",
"699.5 -77 OFFCURVE",
"773.5 -20 CURVE",
"666.5 -4 LINE",
"595.5 -45 OFFCURVE",
"492.5 -120 OFFCURVE",
"492.5 -243 CURVE SMOOTH"
);
},
{
closed = 1;
nodes = (
"169 170 OFFCURVE",
"372 -18 OFFCURVE",
"720 -18 CURVE SMOOTH",
"1067 -18 OFFCURVE",
"1271 172 OFFCURVE",
"1271 484 CURVE SMOOTH",
"1271 1336 LINE",
"983 1336 LINE",
"983 505 LINE SMOOTH",
"983 310 OFFCURVE",
"902 213 OFFCURVE",
"720 213 CURVE SMOOTH",
"544 213 OFFCURVE",
"457 309 OFFCURVE",
"457 504 CURVE SMOOTH",
"457 1336 LINE",
"169 1336 LINE",
"169 485 LINE SMOOTH"
);
}
);
width = 1440;
}
);
unicode = 0172;
},
{
glyphname = Uring;
layers = (
{
layerId = "DC6F5AB8-73F2-4C0B-9A3E-015FFB242135";
name = Bold;
paths = (
{
closed = 1;
nodes = (
"514 1572 OFFCURVE",
"591 1479 OFFCURVE",
"720 1479 CURVE SMOOTH",
"849 1479 OFFCURVE",
"926 1572 OFFCURVE",
"926 1675 CURVE SMOOTH",
"926 1777 OFFCURVE",
"851 1870 OFFCURVE",
"720 1870 CURVE SMOOTH",
"590 1870 OFFCURVE",
"514 1778 OFFCURVE",
"514 1675 CURVE SMOOTH"
);
},
{
closed = 1;
nodes = (
"806 1624 OFFCURVE",
"775 1580 OFFCURVE",
"720 1580 CURVE SMOOTH",
"663 1580 OFFCURVE",
"635 1623 OFFCURVE",
"635 1675 CURVE SMOOTH",
"635 1723 OFFCURVE",
"667 1770 OFFCURVE",
"720 1770 CURVE SMOOTH",
"775 1770 OFFCURVE",
"806 1724 OFFCURVE",
"806 1675 CURVE SMOOTH"
);
},
{
closed = 1;
nodes = (
"169 170 OFFCURVE",
"372 -18 OFFCURVE",
"720 -18 CURVE SMOOTH",
"1067 -18 OFFCURVE",
"1271 172 OFFCURVE",
"1271 484 CURVE SMOOTH",
"1271 1336 LINE",
"983 1336 LINE",
"983 505 LINE SMOOTH",
"983 310 OFFCURVE",
"902 213 OFFCURVE",
"720 213 CURVE SMOOTH",
"544 213 OFFCURVE",
"457 309 OFFCURVE",
"457 504 CURVE SMOOTH",
"457 1336 LINE",
"169 1336 LINE",
"169 485 LINE SMOOTH"
);
}
);
width = 1440;
}
);
unicode = 016E;
},
{
glyphname = Utilde;
layers = (
{
layerId = "DC6F5AB8-73F2-4C0B-9A3E-015FFB242135";
name = Bold;
paths = (
{
closed = 1;
nodes = (
"404.5 1489 LINE",
"404.5 1583 OFFCURVE",
"418.5 1721 OFFCURVE",
"566.5 1721 CURVE SMOOTH",
"687.5 1721 OFFCURVE",
"822.5 1636 OFFCURVE",
"853.5 1636 CURVE SMOOTH",
"873.5 1637 OFFCURVE",
"885.5 1721 OFFCURVE",
"885.5 1721 CURVE",
"1035.5 1721 LINE",
"1035.5 1721 OFFCURVE",
"1025.5 1479 OFFCURVE",
"877.5 1479 CURVE SMOOTH",
"776.5 1479 OFFCURVE",
"643.5 1569 OFFCURVE",
"586.5 1569 CURVE SMOOTH",
"565.5 1569 OFFCURVE",
"551.5 1479 OFFCURVE",
"551.5 1479 CURVE"
);
},
{
closed = 1;
nodes = (
"169 170 OFFCURVE",
"372 -18 OFFCURVE",
"720 -18 CURVE SMOOTH",
"1067 -18 OFFCURVE",
"1271 172 OFFCURVE",
"1271 484 CURVE SMOOTH",
"1271 1336 LINE",
"983 1336 LINE",
"983 505 LINE SMOOTH",
"983 310 OFFCURVE",
"902 213 OFFCURVE",
"720 213 CURVE SMOOTH",
"544 213 OFFCURVE",
"457 309 OFFCURVE",
"457 504 CURVE SMOOTH",
"457 1336 LINE",
"169 1336 LINE",
"169 485 LINE SMOOTH"
);
}
);
width = 1440;
}
);
unicode = 0168;
},
{
glyphname = V;
lastChange = "2012-12-23 00:55:57 +0000";
layers = (
{
layerId = "DC6F5AB8-73F2-4C0B-9A3E-015FFB242135";
name = Bold;
paths = (
{
closed = 1;
nodes = (
"1002 1336 LINE",
"775 587 LINE",
"695 307 LINE",
"613 586 LINE",
"382 1336 LINE",
"74 1336 LINE",
"527 0 LINE",
"855 0 LINE",
"1308 1336 LINE"
);
}
);
width = 1382;
}
);
unicode = 0056;
},
{
glyphname = W;
lastChange = "2012-12-23 00:56:24 +0000";
layers = (
{
anchors = (
{
name = top;
position = "{963, 0}";
}
);
layerId = "DC6F5AB8-73F2-4C0B-9A3E-015FFB242135";
name = Bold;
paths = (
{
closed = 1;
nodes = (
"1603 1336 LINE",
"1359 373 LINE",
"1093 1330 LINE",
"834 1330 LINE",
"555 376 LINE",
"324 1336 LINE",
"42 1336 LINE",
"408 0 LINE",
"678 0 LINE",
"964 963 LINE",
"1229 0 LINE",
"1501 0 LINE",
"1884 1336 LINE"
);
}
);
width = 1926;
}
);
unicode = 0057;
},
{
glyphname = Wacute;
layers = (
{
layerId = "DC6F5AB8-73F2-4C0B-9A3E-015FFB242135";
name = Bold;
paths = (
{
closed = 1;
nodes = (
"708 1407 LINE",
"865 1407 LINE",
"1160 1768 LINE",
"868 1768 LINE"
);
},
{
closed = 1;
nodes = (
"708 1407 LINE",
"865 1407 LINE",
"1160 1768 LINE",
"868 1768 LINE"
);
},
{
closed = 1;
nodes = (
"851 1330 LINE",
"572 376 LINE",
"341 1336 LINE",
"59 1336 LINE",
"425 0 LINE",
"695 0 LINE",
"981 963 LINE",
"1246 0 LINE",
"1518 0 LINE",
"1901 1336 LINE",
"1620 1336 LINE",
"1376 373 LINE",
"1110 1330 LINE"
);
},
{
closed = 1;
nodes = (
"851 1330 LINE",
"572 376 LINE",
"341 1336 LINE",
"59 1336 LINE",
"425 0 LINE",
"695 0 LINE",
"981 963 LINE",
"1246 0 LINE",
"1518 0 LINE",
"1901 1336 LINE",
"1620 1336 LINE",
"1376 373 LINE",
"1110 1330 LINE"
);
}
);
width = 1868;
}
);
unicode = 1E82;
},
{
glyphname = Wcircumflex;
layers = (
{
layerId = "DC6F5AB8-73F2-4C0B-9A3E-015FFB242135";
name = Bold;
paths = (
{
closed = 1;
nodes = (
"646.5 1479 LINE",
"827.5 1479 LINE",
"969.5 1673 LINE",
"1127.5 1479 LINE",
"1313.5 1479 LINE",
"1077.5 1847 LINE",
"881.5 1847 LINE"
);
},
{
closed = 1;
nodes = (
"851 1330 LINE",
"572 376 LINE",
"341 1336 LINE",
"59 1336 LINE",
"425 0 LINE",
"695 0 LINE",
"981 963 LINE",
"1246 0 LINE",
"1518 0 LINE",
"1901 1336 LINE",
"1620 1336 LINE",
"1376 373 LINE",
"1110 1330 LINE"
);
}
);
width = 1956;
}
);
unicode = 0174;
},
{
glyphname = Wdieresis;
layers = (
{
layerId = "DC6F5AB8-73F2-4C0B-9A3E-015FFB242135";
name = Bold;
paths = (
{
closed = 1;
nodes = (
"1025.5 1445 LINE",
"1218.5 1445 LINE",
"1218.5 1690 LINE",
"1025.5 1690 LINE"
);
},
{
closed = 1;
nodes = (
"649.5 1445 LINE",
"843.5 1445 LINE",
"843.5 1690 LINE",
"649.5 1690 LINE"
);
},
{
closed = 1;
nodes = (
"1025.5 1445 LINE",
"1218.5 1445 LINE",
"1218.5 1690 LINE",
"1025.5 1690 LINE"
);
},
{
closed = 1;
nodes = (
"649.5 1445 LINE",
"843.5 1445 LINE",
"843.5 1690 LINE",
"649.5 1690 LINE"
);
},
{
closed = 1;
nodes = (
"851 1330 LINE",
"572 376 LINE",
"341 1336 LINE",
"59 1336 LINE",
"425 0 LINE",
"695 0 LINE",
"981 963 LINE",
"1246 0 LINE",
"1518 0 LINE",
"1901 1336 LINE",
"1620 1336 LINE",
"1376 373 LINE",
"1110 1330 LINE"
);
},
{
closed = 1;
nodes = (
"851 1330 LINE",
"572 376 LINE",
"341 1336 LINE",
"59 1336 LINE",
"425 0 LINE",
"695 0 LINE",
"981 963 LINE",
"1246 0 LINE",
"1518 0 LINE",
"1901 1336 LINE",
"1620 1336 LINE",
"1376 373 LINE",
"1110 1330 LINE"
);
}
);
width = 1868;
}
);
unicode = 1E84;
},
{
glyphname = Wgrave;
layers = (
{
layerId = "DC6F5AB8-73F2-4C0B-9A3E-015FFB242135";
name = Bold;
paths = (
{
closed = 1;
nodes = (
"1007 1407 LINE",
"1172 1407 LINE",
"995 1768 LINE",
"696 1768 LINE"
);
},
{
closed = 1;
nodes = (
"1007 1407 LINE",
"1172 1407 LINE",
"995 1768 LINE",
"696 1768 LINE"
);
},
{
closed = 1;
nodes = (
"851 1330 LINE",
"572 376 LINE",
"341 1336 LINE",
"59 1336 LINE",
"425 0 LINE",
"695 0 LINE",
"981 963 LINE",
"1246 0 LINE",
"1518 0 LINE",
"1901 1336 LINE",
"1620 1336 LINE",
"1376 373 LINE",
"1110 1330 LINE"
);
},
{
closed = 1;
nodes = (
"851 1330 LINE",
"572 376 LINE",
"341 1336 LINE",
"59 1336 LINE",
"425 0 LINE",
"695 0 LINE",
"981 963 LINE",
"1246 0 LINE",
"1518 0 LINE",
"1901 1336 LINE",
"1620 1336 LINE",
"1376 373 LINE",
"1110 1330 LINE"
);
}
);
width = 1868;
}
);
unicode = 1E80;
},
{
glyphname = X;
lastChange = "2012-12-23 00:56:58 +0000";
layers = (
{
layerId = "DC6F5AB8-73F2-4C0B-9A3E-015FFB242135";
name = Bold;
paths = (
{
closed = 1;
nodes = (
"983 1336 LINE",
"686 880 LINE",
"397 1336 LINE",
"92 1336 LINE",
"519 687 LINE",
"60 0 LINE",
"356 0 LINE",
"674 456 LINE",
"984 0 LINE",
"1296 0 LINE",
"838 682 LINE",
"1274 1336 LINE"
);
}
);
width = 1356;
}
);
unicode = 0058;
},
{
glyphname = Y;
lastChange = "2012-12-23 11:36:45 +0000";
layers = (
{
anchors = (
{
name = top;
position = "{613, 0}";
}
);
layerId = "DC6F5AB8-73F2-4C0B-9A3E-015FFB242135";
name = Bold;
paths = (
{
closed = 1;
nodes = (
"899 1336 LINE",
"615 749 LINE",
"331 1336 LINE",
"28 1336 LINE",
"474 495 LINE",
"474 0 LINE",
"756 0 LINE",
"756 499 LINE",
"1197 1336 LINE"
);
}
);
width = 1225;
}
);
unicode = 0059;
},
{
glyphname = Yacute;
layers = (
{
layerId = "DC6F5AB8-73F2-4C0B-9A3E-015FFB242135";
name = Bold;
paths = (
{
closed = 1;
nodes = (
"545 1479 LINE",
"702 1479 LINE",
"997 1840 LINE",
"705 1840 LINE"
);
},
{
closed = 1;
nodes = (
"623 749 LINE",
"342 1336 LINE",
"39 1336 LINE",
"482 495 LINE",
"482 0 LINE",
"764 0 LINE",
"764 499 LINE",
"1208 1336 LINE",
"910 1336 LINE"
);
}
);
width = 1231;
}
);
unicode = 00DD;
},
{
glyphname = Ycircumflex;
layers = (
{
layerId = "DC6F5AB8-73F2-4C0B-9A3E-015FFB242135";
name = Bold;
paths = (
{
closed = 1;
nodes = (
"290 1479 LINE",
"471 1479 LINE",
"613 1673 LINE",
"771 1479 LINE",
"957 1479 LINE",
"721 1847 LINE",
"525 1847 LINE"
);
},
{
closed = 1;
nodes = (
"623 749 LINE",
"342 1336 LINE",
"39 1336 LINE",
"482 495 LINE",
"482 0 LINE",
"764 0 LINE",
"764 499 LINE",
"1208 1336 LINE",
"910 1336 LINE"
);
}
);
width = 1231;
}
);
unicode = 0176;
},
{
glyphname = Ydieresis;
layers = (
{
layerId = "DC6F5AB8-73F2-4C0B-9A3E-015FFB242135";
name = Bold;
paths = (
{
closed = 1;
nodes = (
"715 1479 LINE",
"908 1479 LINE",
"908 1724 LINE",
"715 1724 LINE"
);
},
{
closed = 1;
nodes = (
"339 1479 LINE",
"533 1479 LINE",
"533 1724 LINE",
"339 1724 LINE"
);
},
{
closed = 1;
nodes = (
"623 749 LINE",
"342 1336 LINE",
"39 1336 LINE",
"482 495 LINE",
"482 0 LINE",
"764 0 LINE",
"764 499 LINE",
"1208 1336 LINE",
"910 1336 LINE"
);
}
);
width = 1231;
}
);
unicode = 0178;
},
{
glyphname = Ygrave;
layers = (
{
layerId = "DC6F5AB8-73F2-4C0B-9A3E-015FFB242135";
name = Bold;
paths = (
{
closed = 1;
nodes = (
"657 1407 LINE",
"822 1407 LINE",
"645 1768 LINE",
"346 1768 LINE"
);
},
{
closed = 1;
nodes = (
"667 1407 LINE",
"832 1407 LINE",
"655 1768 LINE",
"356 1768 LINE"
);
},
{
closed = 1;
nodes = (
"662 1407 LINE",
"827 1407 LINE",
"650 1768 LINE",
"351 1768 LINE"
);
},
{
closed = 1;
nodes = (
"658 1407 LINE",
"823 1407 LINE",
"646 1768 LINE",
"347 1768 LINE"
);
},
{
closed = 1;
nodes = (
"663 1407 LINE",
"828 1407 LINE",
"651 1768 LINE",
"352 1768 LINE"
);
},
{
closed = 1;
nodes = (
"656 1407 LINE",
"821 1407 LINE",
"644 1768 LINE",
"345 1768 LINE"
);
},
{
closed = 1;
nodes = (
"664 1407 LINE",
"829 1407 LINE",
"652 1768 LINE",
"353 1768 LINE"
);
},
{
closed = 1;
nodes = (
"659 1407 LINE",
"824 1407 LINE",
"647 1768 LINE",
"348 1768 LINE"
);
},
{
closed = 1;
nodes = (
"665 1407 LINE",
"830 1407 LINE",
"653 1768 LINE",
"354 1768 LINE"
);
},
{
closed = 1;
nodes = (
"668 1407 LINE",
"833 1407 LINE",
"656 1768 LINE",
"357 1768 LINE"
);
},
{
closed = 1;
nodes = (
"666 1407 LINE",
"831 1407 LINE",
"654 1768 LINE",
"355 1768 LINE"
);
},
{
closed = 1;
nodes = (
"660 1407 LINE",
"825 1407 LINE",
"648 1768 LINE",
"349 1768 LINE"
);
},
{
closed = 1;
nodes = (
"661 1407 LINE",
"826 1407 LINE",
"649 1768 LINE",
"350 1768 LINE"
);
},
{
closed = 1;
nodes = (
"623 749 LINE",
"342 1336 LINE",
"39 1336 LINE",
"482 495 LINE",
"482 0 LINE",
"764 0 LINE",
"764 499 LINE",
"1208 1336 LINE",
"910 1336 LINE"
);
},
{
closed = 1;
nodes = (
"623 749 LINE",
"342 1336 LINE",
"39 1336 LINE",
"482 495 LINE",
"482 0 LINE",
"764 0 LINE",
"764 499 LINE",
"1208 1336 LINE",
"910 1336 LINE"
);
},
{
closed = 1;
nodes = (
"623 749 LINE",
"342 1336 LINE",
"39 1336 LINE",
"482 495 LINE",
"482 0 LINE",
"764 0 LINE",
"764 499 LINE",
"1208 1336 LINE",
"910 1336 LINE"
);
},
{
closed = 1;
nodes = (
"623 749 LINE",
"342 1336 LINE",
"39 1336 LINE",
"482 495 LINE",
"482 0 LINE",
"764 0 LINE",
"764 499 LINE",
"1208 1336 LINE",
"910 1336 LINE"
);
},
{
closed = 1;
nodes = (
"623 749 LINE",
"342 1336 LINE",
"39 1336 LINE",
"482 495 LINE",
"482 0 LINE",
"764 0 LINE",
"764 499 LINE",
"1208 1336 LINE",
"910 1336 LINE"
);
},
{
closed = 1;
nodes = (
"623 749 LINE",
"342 1336 LINE",
"39 1336 LINE",
"482 495 LINE",
"482 0 LINE",
"764 0 LINE",
"764 499 LINE",
"1208 1336 LINE",
"910 1336 LINE"
);
},
{
closed = 1;
nodes = (
"623 749 LINE",
"342 1336 LINE",
"39 1336 LINE",
"482 495 LINE",
"482 0 LINE",
"764 0 LINE",
"764 499 LINE",
"1208 1336 LINE",
"910 1336 LINE"
);
},
{
closed = 1;
nodes = (
"623 749 LINE",
"342 1336 LINE",
"39 1336 LINE",
"482 495 LINE",
"482 0 LINE",
"764 0 LINE",
"764 499 LINE",
"1208 1336 LINE",
"910 1336 LINE"
);
},
{
closed = 1;
nodes = (
"623 749 LINE",
"342 1336 LINE",
"39 1336 LINE",
"482 495 LINE",
"482 0 LINE",
"764 0 LINE",
"764 499 LINE",
"1208 1336 LINE",
"910 1336 LINE"
);
},
{
closed = 1;
nodes = (
"623 749 LINE",
"342 1336 LINE",
"39 1336 LINE",
"482 495 LINE",
"482 0 LINE",
"764 0 LINE",
"764 499 LINE",
"1208 1336 LINE",
"910 1336 LINE"
);
},
{
closed = 1;
nodes = (
"623 749 LINE",
"342 1336 LINE",
"39 1336 LINE",
"482 495 LINE",
"482 0 LINE",
"764 0 LINE",
"764 499 LINE",
"1208 1336 LINE",
"910 1336 LINE"
);
},
{
closed = 1;
nodes = (
"623 749 LINE",
"342 1336 LINE",
"39 1336 LINE",
"482 495 LINE",
"482 0 LINE",
"764 0 LINE",
"764 499 LINE",
"1208 1336 LINE",
"910 1336 LINE"
);
},
{
closed = 1;
nodes = (
"623 749 LINE",
"342 1336 LINE",
"39 1336 LINE",
"482 495 LINE",
"482 0 LINE",
"764 0 LINE",
"764 499 LINE",
"1208 1336 LINE",
"910 1336 LINE"
);
}
);
width = 1172;
}
);
unicode = 1EF2;
},
{
glyphname = Z;
lastChange = "2012-12-23 00:28:41 +0000";
layers = (
{
anchors = (
{
name = top;
position = "{625, 0}";
}
);
layerId = "DC6F5AB8-73F2-4C0B-9A3E-015FFB242135";
name = Bold;
paths = (
{
closed = 1;
nodes = (
"170 1336 LINE",
"170 1126 LINE",
"752 1126 LINE",
"163 172 LINE",
"163 0 LINE",
"1101 0 LINE",
"1101 216 LINE",
"533 216 LINE",
"1092 1150 LINE",
"1092 1336 LINE"
);
}
);
width = 1249;
}
);
unicode = 005A;
},
{
glyphname = Zacute;
layers = (
{
layerId = "DC6F5AB8-73F2-4C0B-9A3E-015FFB242135";
name = Bold;
paths = (
{
closed = 1;
nodes = (
"523.5 1479 LINE",
"680.5 1479 LINE",
"975.5 1840 LINE",
"683.5 1840 LINE"
);
},
{
closed = 1;
nodes = (
"140 1336 LINE",
"1062 1336 LINE",
"1062 1150 LINE",
"503 216 LINE",
"1071 216 LINE",
"1071 0 LINE",
"133 0 LINE",
"133 172 LINE",
"722 1126 LINE",
"140 1126 LINE"
);
}
);
width = 1202;
}
);
unicode = 0179;
},
{
glyphname = Zcaron;
layers = (
{
layerId = "DC6F5AB8-73F2-4C0B-9A3E-015FFB242135";
name = Bold;
paths = (
{
closed = 1;
nodes = (
"507 1479 LINE",
"697 1479 LINE",
"945 1816 LINE",
"740 1816 LINE",
"590 1645 LINE",
"460 1816 LINE",
"259 1816 LINE"
);
},
{
closed = 1;
nodes = (
"140 1336 LINE",
"1062 1336 LINE",
"1062 1150 LINE",
"503 216 LINE",
"1071 216 LINE",
"1071 0 LINE",
"133 0 LINE",
"133 172 LINE",
"722 1126 LINE",
"140 1126 LINE"
);
}
);
width = 1202;
}
);
unicode = 017D;
},
{
glyphname = Zdotaccent;
layers = (
{
layerId = "DC6F5AB8-73F2-4C0B-9A3E-015FFB242135";
name = Bold;
paths = (
{
closed = 1;
nodes = (
"503 1479 LINE",
"701 1479 LINE",
"701 1691 LINE",
"503 1691 LINE"
);
},
{
closed = 1;
nodes = (
"140 1336 LINE",
"1062 1336 LINE",
"1062 1150 LINE",
"503 216 LINE",
"1071 216 LINE",
"1071 0 LINE",
"133 0 LINE",
"133 172 LINE",
"722 1126 LINE",
"140 1126 LINE"
);
}
);
width = 1202;
}
);
unicode = 017B;
},
{
glyphname = uni01C4;
layers = (
{
layerId = "DC6F5AB8-73F2-4C0B-9A3E-015FFB242135";
name = Bold;
paths = (
{
closed = 1;
nodes = (
"1993 1479 LINE",
"2183 1479 LINE",
"2431 1816 LINE",
"2226 1816 LINE",
"2076 1645 LINE",
"1946 1816 LINE",
"1745 1816 LINE"
);
},
{
closed = 1;
nodes = (
"1626 1336 LINE",
"2548 1336 LINE",
"2548 1150 LINE",
"1989 216 LINE",
"2557 216 LINE",
"2557 0 LINE",
"1619 0 LINE",
"1619 172 LINE",
"2208 1126 LINE",
"1626 1126 LINE"
);
},
{
closed = 1;
nodes = (
"202 0 LINE",
"623 0 LINE SMOOTH",
"1066 0 OFFCURVE",
"1354 238 OFFCURVE",
"1354 676 CURVE SMOOTH",
"1354 1130 OFFCURVE",
"1049 1336 OFFCURVE",
"600 1336 CURVE SMOOTH",
"202 1336 LINE"
);
},
{
closed = 1;
nodes = (
"490 1126 LINE",
"611 1126 LINE SMOOTH",
"919 1126 OFFCURVE",
"1067 992 OFFCURVE",
"1067 671 CURVE SMOOTH",
"1067 377 OFFCURVE",
"927 216 OFFCURVE",
"637 216 CURVE SMOOTH",
"490 216 LINE"
);
}
);
width = 2688;
}
);
unicode = 01C4;
},
{
glyphname = uni01C5;
layers = (
{
layerId = "DC6F5AB8-73F2-4C0B-9A3E-015FFB242135";
name = Bold;
paths = (
{
closed = 1;
nodes = (
"1888 1163 LINE",
"2078 1163 LINE",
"2326 1500 LINE",
"2121 1500 LINE",
"1971 1329 LINE",
"1841 1500 LINE",
"1640 1500 LINE"
);
},
{
closed = 1;
nodes = (
"1620 1016 LINE",
"1620 832 LINE",
"2065 832 LINE",
"1598 158 LINE",
"1598 0 LINE",
"2368 0 LINE",
"2368 192 LINE",
"1910 192 LINE",
"2352 840 LINE",
"2352 1016 LINE"
);
},
{
closed = 1;
nodes = (
"202 0 LINE",
"623 0 LINE SMOOTH",
"1066 0 OFFCURVE",
"1354 238 OFFCURVE",
"1354 676 CURVE SMOOTH",
"1354 1130 OFFCURVE",
"1049 1336 OFFCURVE",
"600 1336 CURVE SMOOTH",
"202 1336 LINE"
);
},
{
closed = 1;
nodes = (
"490 1126 LINE",
"611 1126 LINE SMOOTH",
"919 1126 OFFCURVE",
"1067 992 OFFCURVE",
"1067 671 CURVE SMOOTH",
"1067 377 OFFCURVE",
"927 216 OFFCURVE",
"637 216 CURVE SMOOTH",
"490 216 LINE"
);
}
);
width = 2481;
}
);
unicode = 01C5;
},
{
glyphname = uni01C7;
layers = (
{
layerId = "DC6F5AB8-73F2-4C0B-9A3E-015FFB242135";
name = Bold;
paths = (
{
closed = 1;
nodes = (
"1681 -153 OFFCURVE",
"1504 -282 OFFCURVE",
"1143 -285 CURVE",
"1131 -75 LINE",
"1310 -69 OFFCURVE",
"1393 -21 OFFCURVE",
"1393 126 CURVE SMOOTH",
"1393 1336 LINE",
"1681 1336 LINE",
"1681 144 LINE SMOOTH"
);
},
{
closed = 1;
nodes = (
"1023 216 LINE",
"490 216 LINE",
"490 1336 LINE",
"202 1336 LINE",
"202 0 LINE",
"1009 0 LINE"
);
}
);
width = 1883;
}
);
unicode = 01C7;
},
{
glyphname = uni01C8;
layers = (
{
layerId = "DC6F5AB8-73F2-4C0B-9A3E-015FFB242135";
name = Bold;
paths = (
{
closed = 1;
nodes = (
"1133 -379 LINE",
"1104 -187 LINE",
"1166 -187 LINE SMOOTH",
"1307 -187 OFFCURVE",
"1320 -149 OFFCURVE",
"1320 -4 CURVE SMOOTH",
"1320 1017 LINE",
"1573 1017 LINE",
"1573 40 LINE SMOOTH",
"1573 -240 OFFCURVE",
"1511 -379 OFFCURVE",
"1193 -379 CURVE SMOOTH"
);
},
{
closed = 1;
nodes = (
"1320 1157 LINE",
"1320 1375 LINE",
"1573 1375 LINE",
"1573 1157 LINE"
);
},
{
closed = 1;
nodes = (
"1023 216 LINE",
"490 216 LINE",
"490 1336 LINE",
"202 1336 LINE",
"202 0 LINE",
"1009 0 LINE"
);
}
);
width = 1732;
}
);
unicode = 01C8;
},
{
glyphname = uni01CA;
layers = (
{
layerId = "DC6F5AB8-73F2-4C0B-9A3E-015FFB242135";
name = Bold;
paths = (
{
closed = 1;
nodes = (
"2119 -153 OFFCURVE",
"1942 -282 OFFCURVE",
"1581 -285 CURVE",
"1569 -75 LINE",
"1748 -69 OFFCURVE",
"1831 -21 OFFCURVE",
"1831 126 CURVE SMOOTH",
"1831 1336 LINE",
"2119 1336 LINE",
"2119 144 LINE SMOOTH"
);
},
{
closed = 1;
nodes = (
"1068 787 OFFCURVE",
"1087 350 OFFCURVE",
"1087 350 CURVE",
"494 1336 LINE",
"202 1336 LINE",
"202 0 LINE",
"479 0 LINE",
"479 409 LINE SMOOTH",
"479 430 OFFCURVE",
"451 961 OFFCURVE",
"451 961 CURVE",
"1036 0 LINE",
"1339 0 LINE",
"1339 1336 LINE",
"1068 1336 LINE",
"1068 795 LINE SMOOTH"
);
}
);
width = 2321;
}
);
unicode = 01CA;
},
{
glyphname = uni01CB;
layers = (
{
layerId = "DC6F5AB8-73F2-4C0B-9A3E-015FFB242135";
name = Bold;
paths = (
{
closed = 1;
nodes = (
"1571 -379 LINE",
"1542 -187 LINE",
"1604 -187 LINE SMOOTH",
"1745 -187 OFFCURVE",
"1758 -149 OFFCURVE",
"1758 -4 CURVE SMOOTH",
"1758 1017 LINE",
"2011 1017 LINE",
"2011 40 LINE SMOOTH",
"2011 -240 OFFCURVE",
"1949 -379 OFFCURVE",
"1631 -379 CURVE SMOOTH"
);
},
{
closed = 1;
nodes = (
"1758 1157 LINE",
"1758 1375 LINE",
"2011 1375 LINE",
"2011 1157 LINE"
);
},
{
closed = 1;
nodes = (
"1068 787 OFFCURVE",
"1087 350 OFFCURVE",
"1087 350 CURVE",
"494 1336 LINE",
"202 1336 LINE",
"202 0 LINE",
"479 0 LINE",
"479 409 LINE SMOOTH",
"479 430 OFFCURVE",
"451 961 OFFCURVE",
"451 961 CURVE",
"1036 0 LINE",
"1339 0 LINE",
"1339 1336 LINE",
"1068 1336 LINE",
"1068 795 LINE SMOOTH"
);
}
);
width = 2170;
}
);
unicode = 01CB;
},
{
glyphname = uni01CD;
layers = (
{
layerId = "DC6F5AB8-73F2-4C0B-9A3E-015FFB242135";
name = Bold;
paths = (
{
closed = 1;
nodes = (
"618.5 1479 LINE",
"808.5 1479 LINE",
"1056.5 1816 LINE",
"851.5 1816 LINE",
"701.5 1645 LINE",
"571.5 1816 LINE",
"370.5 1816 LINE"
);
},
{
closed = 1;
nodes = (
"90 0 LINE",
"545 1336 LINE",
"883 1336 LINE",
"1337 0 LINE",
"1051 0 LINE",
"924 365 LINE",
"498 365 LINE",
"378 0 LINE"
);
},
{
closed = 1;
nodes = (
"556 555 LINE",
"868 555 LINE",
"718 1093 LINE"
);
}
);
width = 1427;
}
);
unicode = 01CD;
},
{
glyphname = uni01CF;
layers = (
{
layerId = "DC6F5AB8-73F2-4C0B-9A3E-015FFB242135";
name = Bold;
paths = (
{
closed = 1;
nodes = (
"251 1479 LINE",
"441 1479 LINE",
"689 1816 LINE",
"484 1816 LINE",
"334 1645 LINE",
"204 1816 LINE",
"3 1816 LINE"
);
},
{
closed = 1;
nodes = (
"202 0 LINE",
"490 0 LINE",
"490 1336 LINE",
"202 1336 LINE"
);
}
);
width = 692;
}
);
unicode = 01CF;
},
{
glyphname = uni01D1;
layers = (
{
layerId = "DC6F5AB8-73F2-4C0B-9A3E-015FFB242135";
name = Bold;
paths = (
{
closed = 1;
nodes = (
"688 1479 LINE",
"878 1479 LINE",
"1126 1816 LINE",
"921 1816 LINE",
"771 1645 LINE",
"641 1816 LINE",
"440 1816 LINE"
);
},
{
closed = 1;
nodes = (
"420 946 OFFCURVE",
"557 1127 OFFCURVE",
"784 1127 CURVE SMOOTH",
"1011 1127 OFFCURVE",
"1146 946 OFFCURVE",
"1146 667 CURVE SMOOTH",
"1146 393 OFFCURVE",
"1012 210 OFFCURVE",
"784 210 CURVE SMOOTH",
"556 210 OFFCURVE",
"420 393 OFFCURVE",
"420 667 CURVE SMOOTH"
);
},
{
closed = 1;
nodes = (
"132 237 OFFCURVE",
"391 -18 OFFCURVE",
"784 -18 CURVE SMOOTH",
"1177 -18 OFFCURVE",
"1434 237 OFFCURVE",
"1434 669 CURVE SMOOTH",
"1434 1105 OFFCURVE",
"1175 1357 OFFCURVE",
"784 1357 CURVE SMOOTH",
"393 1357 OFFCURVE",
"132 1105 OFFCURVE",
"132 669 CURVE SMOOTH"
);
}
);
width = 1566;
}
);
unicode = 01D1;
},
{
glyphname = uni01D3;
layers = (
{
layerId = "DC6F5AB8-73F2-4C0B-9A3E-015FFB242135";
name = Bold;
paths = (
{
closed = 1;
nodes = (
"625 1479 LINE",
"815 1479 LINE",
"1063 1816 LINE",
"858 1816 LINE",
"708 1645 LINE",
"578 1816 LINE",
"377 1816 LINE"
);
},
{
closed = 1;
nodes = (
"169 170 OFFCURVE",
"372 -18 OFFCURVE",
"720 -18 CURVE SMOOTH",
"1067 -18 OFFCURVE",
"1271 172 OFFCURVE",
"1271 484 CURVE SMOOTH",
"1271 1336 LINE",
"983 1336 LINE",
"983 505 LINE SMOOTH",
"983 310 OFFCURVE",
"902 213 OFFCURVE",
"720 213 CURVE SMOOTH",
"544 213 OFFCURVE",
"457 309 OFFCURVE",
"457 504 CURVE SMOOTH",
"457 1336 LINE",
"169 1336 LINE",
"169 485 LINE SMOOTH"
);
}
);
width = 1440;
}
);
unicode = 01D3;
},
{
glyphname = uni01D5;
layers = (
{
layerId = "DC6F5AB8-73F2-4C0B-9A3E-015FFB242135";
name = Bold;
paths = (
{
closed = 1;
nodes = (
"395.5 1846 LINE",
"1044.5 1846 LINE",
"1044.5 2005 LINE",
"395.5 2005 LINE"
);
},
{
closed = 1;
nodes = (
"811.5 1479 LINE",
"1004.5 1479 LINE",
"1004.5 1724 LINE",
"811.5 1724 LINE"
);
},
{
closed = 1;
nodes = (
"435.5 1479 LINE",
"629.5 1479 LINE",
"629.5 1724 LINE",
"435.5 1724 LINE"
);
},
{
closed = 1;
nodes = (
"169 170 OFFCURVE",
"372 -18 OFFCURVE",
"720 -18 CURVE SMOOTH",
"1067 -18 OFFCURVE",
"1271 172 OFFCURVE",
"1271 484 CURVE SMOOTH",
"1271 1336 LINE",
"983 1336 LINE",
"983 505 LINE SMOOTH",
"983 310 OFFCURVE",
"902 213 OFFCURVE",
"720 213 CURVE SMOOTH",
"544 213 OFFCURVE",
"457 309 OFFCURVE",
"457 504 CURVE SMOOTH",
"457 1336 LINE",
"169 1336 LINE",
"169 485 LINE SMOOTH"
);
}
);
width = 1440;
}
);
unicode = 01D5;
},
{
glyphname = uni01D7;
layers = (
{
layerId = "DC6F5AB8-73F2-4C0B-9A3E-015FFB242135";
name = Bold;
paths = (
{
closed = 1;
nodes = (
"641.5 1846 LINE",
"798.5 1846 LINE",
"1093.5 2207 LINE",
"801.5 2207 LINE"
);
},
{
closed = 1;
nodes = (
"811.5 1479 LINE",
"1004.5 1479 LINE",
"1004.5 1724 LINE",
"811.5 1724 LINE"
);
},
{
closed = 1;
nodes = (
"435.5 1479 LINE",
"629.5 1479 LINE",
"629.5 1724 LINE",
"435.5 1724 LINE"
);
},
{
closed = 1;
nodes = (
"169 170 OFFCURVE",
"372 -18 OFFCURVE",
"720 -18 CURVE SMOOTH",
"1067 -18 OFFCURVE",
"1271 172 OFFCURVE",
"1271 484 CURVE SMOOTH",
"1271 1336 LINE",
"983 1336 LINE",
"983 505 LINE SMOOTH",
"983 310 OFFCURVE",
"902 213 OFFCURVE",
"720 213 CURVE SMOOTH",
"544 213 OFFCURVE",
"457 309 OFFCURVE",
"457 504 CURVE SMOOTH",
"457 1336 LINE",
"169 1336 LINE",
"169 485 LINE SMOOTH"
);
}
);
width = 1440;
}
);
unicode = 01D7;
},
{
glyphname = uni01D9;
layers = (
{
layerId = "DC6F5AB8-73F2-4C0B-9A3E-015FFB242135";
name = Bold;
paths = (
{
closed = 1;
nodes = (
"625 1846 LINE",
"815 1846 LINE",
"1063 2183 LINE",
"858 2183 LINE",
"708 2012 LINE",
"578 2183 LINE",
"377 2183 LINE"
);
},
{
closed = 1;
nodes = (
"811.5 1479 LINE",
"1004.5 1479 LINE",
"1004.5 1724 LINE",
"811.5 1724 LINE"
);
},
{
closed = 1;
nodes = (
"435.5 1479 LINE",
"629.5 1479 LINE",
"629.5 1724 LINE",
"435.5 1724 LINE"
);
},
{
closed = 1;
nodes = (
"169 170 OFFCURVE",
"372 -18 OFFCURVE",
"720 -18 CURVE SMOOTH",
"1067 -18 OFFCURVE",
"1271 172 OFFCURVE",
"1271 484 CURVE SMOOTH",
"1271 1336 LINE",
"983 1336 LINE",
"983 505 LINE SMOOTH",
"983 310 OFFCURVE",
"902 213 OFFCURVE",
"720 213 CURVE SMOOTH",
"544 213 OFFCURVE",
"457 309 OFFCURVE",
"457 504 CURVE SMOOTH",
"457 1336 LINE",
"169 1336 LINE",
"169 485 LINE SMOOTH"
);
}
);
width = 1440;
}
);
unicode = 01D9;
},
{
glyphname = uni01DB;
layers = (
{
layerId = "DC6F5AB8-73F2-4C0B-9A3E-015FFB242135";
name = Bold;
paths = (
{
closed = 1;
nodes = (
"637.5 1846 LINE",
"802.5 1846 LINE",
"625.5 2207 LINE",
"326.5 2207 LINE"
);
},
{
closed = 1;
nodes = (
"811.5 1479 LINE",
"1004.5 1479 LINE",
"1004.5 1724 LINE",
"811.5 1724 LINE"
);
},
{
closed = 1;
nodes = (
"435.5 1479 LINE",
"629.5 1479 LINE",
"629.5 1724 LINE",
"435.5 1724 LINE"
);
},
{
closed = 1;
nodes = (
"169 170 OFFCURVE",
"372 -18 OFFCURVE",
"720 -18 CURVE SMOOTH",
"1067 -18 OFFCURVE",
"1271 172 OFFCURVE",
"1271 484 CURVE SMOOTH",
"1271 1336 LINE",
"983 1336 LINE",
"983 505 LINE SMOOTH",
"983 310 OFFCURVE",
"902 213 OFFCURVE",
"720 213 CURVE SMOOTH",
"544 213 OFFCURVE",
"457 309 OFFCURVE",
"457 504 CURVE SMOOTH",
"457 1336 LINE",
"169 1336 LINE",
"169 485 LINE SMOOTH"
);
}
);
width = 1440;
}
);
unicode = 01DB;
},
{
glyphname = uni01DE;
layers = (
{
layerId = "DC6F5AB8-73F2-4C0B-9A3E-015FFB242135";
name = Bold;
paths = (
{
closed = 1;
nodes = (
"389 1846 LINE",
"1038 1846 LINE",
"1038 2005 LINE",
"389 2005 LINE"
);
},
{
closed = 1;
nodes = (
"805 1479 LINE",
"998 1479 LINE",
"998 1724 LINE",
"805 1724 LINE"
);
},
{
closed = 1;
nodes = (
"429 1479 LINE",
"623 1479 LINE",
"623 1724 LINE",
"429 1724 LINE"
);
},
{
closed = 1;
nodes = (
"90 0 LINE",
"545 1336 LINE",
"883 1336 LINE",
"1337 0 LINE",
"1051 0 LINE",
"924 365 LINE",
"498 365 LINE",
"378 0 LINE"
);
},
{
closed = 1;
nodes = (
"556 555 LINE",
"868 555 LINE",
"718 1093 LINE"
);
}
);
width = 1427;
}
);
unicode = 01DE;
},
{
glyphname = uni01E8;
layers = (
{
layerId = "DC6F5AB8-73F2-4C0B-9A3E-015FFB242135";
name = Bold;
paths = (
{
closed = 1;
nodes = (
"656 1479 LINE",
"846 1479 LINE",
"1094 1816 LINE",
"889 1816 LINE",
"739 1645 LINE",
"609 1816 LINE",
"408 1816 LINE"
);
},
{
closed = 1;
nodes = (
"958 1336 LINE",
"490 775 LINE",
"490 1336 LINE",
"202 1336 LINE",
"202 0 LINE",
"490 0 LINE",
"490 537 LINE",
"561 611 LINE",
"974 0 LINE",
"1300 0 LINE",
"798 732 LINE",
"1290 1336 LINE"
);
}
);
width = 1361;
}
);
unicode = 01E8;
},
{
glyphname = uni01EA;
layers = (
{
layerId = "DC6F5AB8-73F2-4C0B-9A3E-015FFB242135";
name = Bold;
paths = (
{
closed = 1;
nodes = (
"555.5 -357 OFFCURVE",
"646.5 -411 OFFCURVE",
"750.5 -411 CURVE SMOOTH",
"809.5 -411 OFFCURVE",
"870.5 -396 OFFCURVE",
"925.5 -375 CURVE",
"925.5 -375 OFFCURVE",
"918.5 -234 OFFCURVE",
"917.5 -234 CURVE",
"905.5 -239 OFFCURVE",
"846.5 -265 OFFCURVE",
"794.5 -265 CURVE SMOOTH",
"756.5 -265 OFFCURVE",
"730.5 -230 OFFCURVE",
"730.5 -196 CURVE SMOOTH",
"730.5 -141 OFFCURVE",
"762.5 -77 OFFCURVE",
"836.5 -20 CURVE",
"729.5 -4 LINE",
"658.5 -45 OFFCURVE",
"555.5 -120 OFFCURVE",
"555.5 -243 CURVE SMOOTH"
);
},
{
closed = 1;
nodes = (
"420 946 OFFCURVE",
"557 1127 OFFCURVE",
"784 1127 CURVE SMOOTH",
"1011 1127 OFFCURVE",
"1146 946 OFFCURVE",
"1146 667 CURVE SMOOTH",
"1146 393 OFFCURVE",
"1012 210 OFFCURVE",
"784 210 CURVE SMOOTH",
"556 210 OFFCURVE",
"420 393 OFFCURVE",
"420 667 CURVE SMOOTH"
);
},
{
closed = 1;
nodes = (
"132 237 OFFCURVE",
"391 -18 OFFCURVE",
"784 -18 CURVE SMOOTH",
"1177 -18 OFFCURVE",
"1434 237 OFFCURVE",
"1434 669 CURVE SMOOTH",
"1434 1105 OFFCURVE",
"1175 1357 OFFCURVE",
"784 1357 CURVE SMOOTH",
"393 1357 OFFCURVE",
"132 1105 OFFCURVE",
"132 669 CURVE SMOOTH"
);
}
);
width = 1566;
}
);
unicode = 01EA;
},
{
glyphname = uni01EC;
layers = (
{
layerId = "DC6F5AB8-73F2-4C0B-9A3E-015FFB242135";
name = Bold;
paths = (
{
closed = 1;
nodes = (
"458.5 1479 LINE",
"1107.5 1479 LINE",
"1107.5 1638 LINE",
"458.5 1638 LINE"
);
},
{
closed = 1;
nodes = (
"555.5 -357 OFFCURVE",
"646.5 -411 OFFCURVE",
"750.5 -411 CURVE SMOOTH",
"809.5 -411 OFFCURVE",
"870.5 -396 OFFCURVE",
"925.5 -375 CURVE",
"925.5 -375 OFFCURVE",
"918.5 -234 OFFCURVE",
"917.5 -234 CURVE",
"905.5 -239 OFFCURVE",
"846.5 -265 OFFCURVE",
"794.5 -265 CURVE SMOOTH",
"756.5 -265 OFFCURVE",
"730.5 -230 OFFCURVE",
"730.5 -196 CURVE SMOOTH",
"730.5 -141 OFFCURVE",
"762.5 -77 OFFCURVE",
"836.5 -20 CURVE",
"729.5 -4 LINE",
"658.5 -45 OFFCURVE",
"555.5 -120 OFFCURVE",
"555.5 -243 CURVE SMOOTH"
);
},
{
closed = 1;
nodes = (
"420 946 OFFCURVE",
"557 1127 OFFCURVE",
"784 1127 CURVE SMOOTH",
"1011 1127 OFFCURVE",
"1146 946 OFFCURVE",
"1146 667 CURVE SMOOTH",
"1146 393 OFFCURVE",
"1012 210 OFFCURVE",
"784 210 CURVE SMOOTH",
"556 210 OFFCURVE",
"420 393 OFFCURVE",
"420 667 CURVE SMOOTH"
);
},
{
closed = 1;
nodes = (
"132 237 OFFCURVE",
"391 -18 OFFCURVE",
"784 -18 CURVE SMOOTH",
"1177 -18 OFFCURVE",
"1434 237 OFFCURVE",
"1434 669 CURVE SMOOTH",
"1434 1105 OFFCURVE",
"1175 1357 OFFCURVE",
"784 1357 CURVE SMOOTH",
"393 1357 OFFCURVE",
"132 1105 OFFCURVE",
"132 669 CURVE SMOOTH"
);
}
);
width = 1566;
}
);
unicode = 01EC;
},
{
glyphname = uni01F1;
layers = (
{
layerId = "DC6F5AB8-73F2-4C0B-9A3E-015FFB242135";
name = Bold;
paths = (
{
closed = 1;
nodes = (
"1626 1336 LINE",
"2548 1336 LINE",
"2548 1150 LINE",
"1989 216 LINE",
"2557 216 LINE",
"2557 0 LINE",
"1619 0 LINE",
"1619 172 LINE",
"2208 1126 LINE",
"1626 1126 LINE"
);
},
{
closed = 1;
nodes = (
"202 0 LINE",
"623 0 LINE SMOOTH",
"1066 0 OFFCURVE",
"1354 238 OFFCURVE",
"1354 676 CURVE SMOOTH",
"1354 1130 OFFCURVE",
"1049 1336 OFFCURVE",
"600 1336 CURVE SMOOTH",
"202 1336 LINE"
);
},
{
closed = 1;
nodes = (
"490 1126 LINE",
"611 1126 LINE SMOOTH",
"919 1126 OFFCURVE",
"1067 992 OFFCURVE",
"1067 671 CURVE SMOOTH",
"1067 377 OFFCURVE",
"927 216 OFFCURVE",
"637 216 CURVE SMOOTH",
"490 216 LINE"
);
}
);
width = 2688;
}
);
unicode = 01F1;
},
{
glyphname = uni01F2;
layers = (
{
layerId = "DC6F5AB8-73F2-4C0B-9A3E-015FFB242135";
name = Bold;
paths = (
{
closed = 1;
nodes = (
"1620 1016 LINE",
"1620 832 LINE",
"2065 832 LINE",
"1598 158 LINE",
"1598 0 LINE",
"2368 0 LINE",
"2368 192 LINE",
"1910 192 LINE",
"2352 840 LINE",
"2352 1016 LINE"
);
},
{
closed = 1;
nodes = (
"202 0 LINE",
"623 0 LINE SMOOTH",
"1066 0 OFFCURVE",
"1354 238 OFFCURVE",
"1354 676 CURVE SMOOTH",
"1354 1130 OFFCURVE",
"1049 1336 OFFCURVE",
"600 1336 CURVE SMOOTH",
"202 1336 LINE"
);
},
{
closed = 1;
nodes = (
"490 1126 LINE",
"611 1126 LINE SMOOTH",
"919 1126 OFFCURVE",
"1067 992 OFFCURVE",
"1067 671 CURVE SMOOTH",
"1067 377 OFFCURVE",
"927 216 OFFCURVE",
"637 216 CURVE SMOOTH",
"490 216 LINE"
);
}
);
width = 2481;
}
);
unicode = 01F2;
},
{
glyphname = uni01F4;
layers = (
{
layerId = "DC6F5AB8-73F2-4C0B-9A3E-015FFB242135";
name = Bold;
paths = (
{
closed = 1;
nodes = (
"608 1479 LINE",
"765 1479 LINE",
"1060 1840 LINE",
"768 1840 LINE"
);
},
{
closed = 1;
nodes = (
"1093 17 OFFCURVE",
"961 -18 OFFCURVE",
"778 -18 CURVE SMOOTH",
"378 -18 OFFCURVE",
"132 248 OFFCURVE",
"132 672 CURVE SMOOTH",
"132 1105 OFFCURVE",
"382 1357 OFFCURVE",
"804 1357 CURVE SMOOTH",
"968 1357 OFFCURVE",
"1095 1317 OFFCURVE",
"1223 1253 CURVE",
"1134 1042 LINE",
"1037 1090 OFFCURVE",
"933 1124 OFFCURVE",
"809 1129 CURVE SMOOTH",
"547 1139 OFFCURVE",
"420 964 OFFCURVE",
"420 670 CURVE SMOOTH",
"420 383 OFFCURVE",
"534 213 OFFCURVE",
"789 213 CURVE SMOOTH",
"868 213 OFFCURVE",
"931 222 OFFCURVE",
"994 245 CURVE",
"994 519 LINE",
"725 519 LINE",
"725 727 LINE",
"1241 727 LINE",
"1241 82 LINE"
);
}
);
width = 1391;
}
);
unicode = 01F4;
},
{
glyphname = uni01F8;
layers = (
{
layerId = "DC6F5AB8-73F2-4C0B-9A3E-015FFB242135";
name = Bold;
paths = (
{
closed = 1;
nodes = (
"688 1479 LINE",
"853 1479 LINE",
"676 1840 LINE",
"377 1840 LINE"
);
},
{
closed = 1;
nodes = (
"1068 787 OFFCURVE",
"1087 350 OFFCURVE",
"1087 350 CURVE",
"494 1336 LINE",
"202 1336 LINE",
"202 0 LINE",
"479 0 LINE",
"479 409 LINE SMOOTH",
"479 430 OFFCURVE",
"451 961 OFFCURVE",
"451 961 CURVE",
"1036 0 LINE",
"1339 0 LINE",
"1339 1336 LINE",
"1068 1336 LINE",
"1068 795 LINE SMOOTH"
);
}
);
width = 1541;
}
);
unicode = 01F8;
},
{
glyphname = uni0200;
layers = (
{
layerId = "DC6F5AB8-73F2-4C0B-9A3E-015FFB242135";
name = Bold;
paths = (
{
closed = 1;
nodes = (
"782 1479 LINE",
"973 1479 LINE",
"757 1801 LINE",
"495 1801 LINE"
);
},
{
closed = 1;
nodes = (
"454 1479 LINE",
"626 1479 LINE",
"431 1801 LINE",
"159 1801 LINE"
);
},
{
closed = 1;
nodes = (
"90 0 LINE",
"545 1336 LINE",
"883 1336 LINE",
"1337 0 LINE",
"1051 0 LINE",
"924 365 LINE",
"498 365 LINE",
"378 0 LINE"
);
},
{
closed = 1;
nodes = (
"556 555 LINE",
"868 555 LINE",
"718 1093 LINE"
);
}
);
width = 1427;
}
);
unicode = 0200;
},
{
glyphname = uni0202;
layers = (
{
layerId = "DC6F5AB8-73F2-4C0B-9A3E-015FFB242135";
name = Bold;
paths = (
{
closed = 1;
nodes = (
"612.5 1479 LINE",
"612.5 1537 OFFCURVE",
"660.5 1564 OFFCURVE",
"711.5 1564 CURVE SMOOTH",
"763.5 1564 OFFCURVE",
"813.5 1538 OFFCURVE",
"813.5 1479 CURVE",
"982.5 1479 LINE",
"982.5 1630 OFFCURVE",
"847.5 1701 OFFCURVE",
"715.5 1701 CURVE SMOOTH",
"581.5 1701 OFFCURVE",
"444.5 1629 OFFCURVE",
"444.5 1479 CURVE"
);
},
{
closed = 1;
nodes = (
"90 0 LINE",
"545 1336 LINE",
"883 1336 LINE",
"1337 0 LINE",
"1051 0 LINE",
"924 365 LINE",
"498 365 LINE",
"378 0 LINE"
);
},
{
closed = 1;
nodes = (
"556 555 LINE",
"868 555 LINE",
"718 1093 LINE"
);
}
);
width = 1427;
}
);
unicode = 0202;
},
{
glyphname = uni0204;
layers = (
{
layerId = "DC6F5AB8-73F2-4C0B-9A3E-015FFB242135";
name = Bold;
paths = (
{
closed = 1;
nodes = (
"690.5 1479 LINE",
"881.5 1479 LINE",
"665.5 1801 LINE",
"403.5 1801 LINE"
);
},
{
closed = 1;
nodes = (
"362.5 1479 LINE",
"534.5 1479 LINE",
"339.5 1801 LINE",
"67.5 1801 LINE"
);
},
{
closed = 1;
nodes = (
"490 1126 LINE",
"1021 1126 LINE",
"1032 1336 LINE",
"202 1336 LINE",
"202 0 LINE",
"1025 0 LINE",
"1042 216 LINE",
"490 216 LINE",
"490 595 LINE",
"994 595 LINE",
"994 805 LINE",
"490 805 LINE"
);
}
);
width = 1164;
}
);
unicode = 0204;
},
{
glyphname = uni0206;
layers = (
{
layerId = "DC6F5AB8-73F2-4C0B-9A3E-015FFB242135";
name = Bold;
paths = (
{
closed = 1;
nodes = (
"521 1479 LINE",
"521 1537 OFFCURVE",
"569 1564 OFFCURVE",
"620 1564 CURVE SMOOTH",
"672 1564 OFFCURVE",
"722 1538 OFFCURVE",
"722 1479 CURVE",
"891 1479 LINE",
"891 1630 OFFCURVE",
"756 1701 OFFCURVE",
"624 1701 CURVE SMOOTH",
"490 1701 OFFCURVE",
"353 1629 OFFCURVE",
"353 1479 CURVE"
);
},
{
closed = 1;
nodes = (
"490 1126 LINE",
"1021 1126 LINE",
"1032 1336 LINE",
"202 1336 LINE",
"202 0 LINE",
"1025 0 LINE",
"1042 216 LINE",
"490 216 LINE",
"490 595 LINE",
"994 595 LINE",
"994 805 LINE",
"490 805 LINE"
);
}
);
width = 1164;
}
);
unicode = 0206;
},
{
glyphname = uni0208;
layers = (
{
layerId = "DC6F5AB8-73F2-4C0B-9A3E-015FFB242135";
name = Bold;
paths = (
{
closed = 1;
nodes = (
"414.5 1479 LINE",
"605.5 1479 LINE",
"389.5 1801 LINE",
"127.5 1801 LINE"
);
},
{
closed = 1;
nodes = (
"86.5 1479 LINE",
"258.5 1479 LINE",
"63.5 1801 LINE",
"-209 1801 LINE"
);
},
{
closed = 1;
nodes = (
"202 0 LINE",
"490 0 LINE",
"490 1336 LINE",
"202 1336 LINE"
);
}
);
width = 692;
}
);
unicode = 0208;
},
{
glyphname = uni020A;
layers = (
{
layerId = "DC6F5AB8-73F2-4C0B-9A3E-015FFB242135";
name = Bold;
paths = (
{
closed = 1;
nodes = (
"245 1479 LINE",
"245 1537 OFFCURVE",
"293 1564 OFFCURVE",
"344 1564 CURVE SMOOTH",
"396 1564 OFFCURVE",
"446 1538 OFFCURVE",
"446 1479 CURVE",
"615 1479 LINE",
"615 1630 OFFCURVE",
"480 1701 OFFCURVE",
"348 1701 CURVE SMOOTH",
"214 1701 OFFCURVE",
"77 1629 OFFCURVE",
"77 1479 CURVE"
);
},
{
closed = 1;
nodes = (
"202 0 LINE",
"490 0 LINE",
"490 1336 LINE",
"202 1336 LINE"
);
}
);
width = 692;
}
);
unicode = 020A;
},
{
glyphname = uni020C;
layers = (
{
layerId = "DC6F5AB8-73F2-4C0B-9A3E-015FFB242135";
name = Bold;
paths = (
{
closed = 1;
nodes = (
"851.5 1479 LINE",
"1042.5 1479 LINE",
"826.5 1801 LINE",
"564.5 1801 LINE"
);
},
{
closed = 1;
nodes = (
"523.5 1479 LINE",
"695.5 1479 LINE",
"500.5 1801 LINE",
"228.5 1801 LINE"
);
},
{
closed = 1;
nodes = (
"420 946 OFFCURVE",
"557 1127 OFFCURVE",
"784 1127 CURVE SMOOTH",
"1011 1127 OFFCURVE",
"1146 946 OFFCURVE",
"1146 667 CURVE SMOOTH",
"1146 393 OFFCURVE",
"1012 210 OFFCURVE",
"784 210 CURVE SMOOTH",
"556 210 OFFCURVE",
"420 393 OFFCURVE",
"420 667 CURVE SMOOTH"
);
},
{
closed = 1;
nodes = (
"132 237 OFFCURVE",
"391 -18 OFFCURVE",
"784 -18 CURVE SMOOTH",
"1177 -18 OFFCURVE",
"1434 237 OFFCURVE",
"1434 669 CURVE SMOOTH",
"1434 1105 OFFCURVE",
"1175 1357 OFFCURVE",
"784 1357 CURVE SMOOTH",
"393 1357 OFFCURVE",
"132 1105 OFFCURVE",
"132 669 CURVE SMOOTH"
);
}
);
width = 1566;
}
);
unicode = 020C;
},
{
glyphname = uni020E;
layers = (
{
layerId = "DC6F5AB8-73F2-4C0B-9A3E-015FFB242135";
name = Bold;
paths = (
{
closed = 1;
nodes = (
"682 1479 LINE",
"682 1537 OFFCURVE",
"730 1564 OFFCURVE",
"781 1564 CURVE SMOOTH",
"833 1564 OFFCURVE",
"883 1538 OFFCURVE",
"883 1479 CURVE",
"1052 1479 LINE",
"1052 1630 OFFCURVE",
"917 1701 OFFCURVE",
"785 1701 CURVE SMOOTH",
"651 1701 OFFCURVE",
"514 1629 OFFCURVE",
"514 1479 CURVE"
);
},
{
closed = 1;
nodes = (
"420 946 OFFCURVE",
"557 1127 OFFCURVE",
"784 1127 CURVE SMOOTH",
"1011 1127 OFFCURVE",
"1146 946 OFFCURVE",
"1146 667 CURVE SMOOTH",
"1146 393 OFFCURVE",
"1012 210 OFFCURVE",
"784 210 CURVE SMOOTH",
"556 210 OFFCURVE",
"420 393 OFFCURVE",
"420 667 CURVE SMOOTH"
);
},
{
closed = 1;
nodes = (
"132 237 OFFCURVE",
"391 -18 OFFCURVE",
"784 -18 CURVE SMOOTH",
"1177 -18 OFFCURVE",
"1434 237 OFFCURVE",
"1434 669 CURVE SMOOTH",
"1434 1105 OFFCURVE",
"1175 1357 OFFCURVE",
"784 1357 CURVE SMOOTH",
"393 1357 OFFCURVE",
"132 1105 OFFCURVE",
"132 669 CURVE SMOOTH"
);
}
);
width = 1566;
}
);
unicode = 020E;
},
{
glyphname = uni0210;
layers = (
{
layerId = "DC6F5AB8-73F2-4C0B-9A3E-015FFB242135";
name = Bold;
paths = (
{
closed = 1;
nodes = (
"823.5 1479 LINE",
"1014.5 1479 LINE",
"798.5 1801 LINE",
"536.5 1801 LINE"
);
},
{
closed = 1;
nodes = (
"495.5 1479 LINE",
"667.5 1479 LINE",
"472.5 1801 LINE",
"200.5 1801 LINE"
);
},
{
closed = 1;
nodes = (
"202 0 LINE",
"490 0 LINE",
"490 531 LINE",
"670 531 LINE SMOOTH",
"703 531 OFFCURVE",
"725 531 OFFCURVE",
"742 530 CURVE",
"757 501 OFFCURVE",
"812 395 OFFCURVE",
"842 331 CURVE SMOOTH",
"1005 0 LINE",
"1308 0 LINE",
"1111 391 LINE SMOOTH",
"1075 465 OFFCURVE",
"1038 539 OFFCURVE",
"1001 587 CURVE",
"1148 646 OFFCURVE",
"1258 770 OFFCURVE",
"1258 947 CURVE SMOOTH",
"1258 1258 OFFCURVE",
"1027 1336 OFFCURVE",
"721 1336 CURVE SMOOTH",
"202 1336 LINE"
);
},
{
closed = 1;
nodes = (
"970 804 OFFCURVE",
"905 742 OFFCURVE",
"724 742 CURVE SMOOTH",
"490 742 LINE",
"490 1126 LINE",
"734 1126 LINE SMOOTH",
"898 1126 OFFCURVE",
"970 1064 OFFCURVE",
"970 943 CURVE SMOOTH"
);
}
);
width = 1406;
}
);
unicode = 0210;
},
{
glyphname = uni0212;
layers = (
{
layerId = "DC6F5AB8-73F2-4C0B-9A3E-015FFB242135";
name = Bold;
paths = (
{
closed = 1;
nodes = (
"654 1479 LINE",
"654 1537 OFFCURVE",
"702 1564 OFFCURVE",
"753 1564 CURVE SMOOTH",
"805 1564 OFFCURVE",
"855 1538 OFFCURVE",
"855 1479 CURVE",
"1024 1479 LINE",
"1024 1630 OFFCURVE",
"889 1701 OFFCURVE",
"757 1701 CURVE SMOOTH",
"623 1701 OFFCURVE",
"486 1629 OFFCURVE",
"486 1479 CURVE"
);
},
{
closed = 1;
nodes = (
"202 0 LINE",
"490 0 LINE",
"490 531 LINE",
"670 531 LINE SMOOTH",
"703 531 OFFCURVE",
"725 531 OFFCURVE",
"742 530 CURVE",
"757 501 OFFCURVE",
"812 395 OFFCURVE",
"842 331 CURVE SMOOTH",
"1005 0 LINE",
"1308 0 LINE",
"1111 391 LINE SMOOTH",
"1075 465 OFFCURVE",
"1038 539 OFFCURVE",
"1001 587 CURVE",
"1148 646 OFFCURVE",
"1258 770 OFFCURVE",
"1258 947 CURVE SMOOTH",
"1258 1258 OFFCURVE",
"1027 1336 OFFCURVE",
"721 1336 CURVE SMOOTH",
"202 1336 LINE"
);
},
{
closed = 1;
nodes = (
"970 804 OFFCURVE",
"905 742 OFFCURVE",
"724 742 CURVE SMOOTH",
"490 742 LINE",
"490 1126 LINE",
"734 1126 LINE SMOOTH",
"898 1126 OFFCURVE",
"970 1064 OFFCURVE",
"970 943 CURVE SMOOTH"
);
}
);
width = 1406;
}
);
unicode = 0212;
},
{
glyphname = uni0214;
layers = (
{
layerId = "DC6F5AB8-73F2-4C0B-9A3E-015FFB242135";
name = Bold;
paths = (
{
closed = 1;
nodes = (
"788.5 1479 LINE",
"979.5 1479 LINE",
"763.5 1801 LINE",
"501.5 1801 LINE"
);
},
{
closed = 1;
nodes = (
"460.5 1479 LINE",
"632.5 1479 LINE",
"437.5 1801 LINE",
"165.5 1801 LINE"
);
},
{
closed = 1;
nodes = (
"169 170 OFFCURVE",
"372 -18 OFFCURVE",
"720 -18 CURVE SMOOTH",
"1067 -18 OFFCURVE",
"1271 172 OFFCURVE",
"1271 484 CURVE SMOOTH",
"1271 1336 LINE",
"983 1336 LINE",
"983 505 LINE SMOOTH",
"983 310 OFFCURVE",
"902 213 OFFCURVE",
"720 213 CURVE SMOOTH",
"544 213 OFFCURVE",
"457 309 OFFCURVE",
"457 504 CURVE SMOOTH",
"457 1336 LINE",
"169 1336 LINE",
"169 485 LINE SMOOTH"
);
}
);
width = 1440;
}
);
unicode = 0214;
},
{
glyphname = uni0216;
layers = (
{
layerId = "DC6F5AB8-73F2-4C0B-9A3E-015FFB242135";
name = Bold;
paths = (
{
closed = 1;
nodes = (
"619 1479 LINE",
"619 1537 OFFCURVE",
"667 1564 OFFCURVE",
"718 1564 CURVE SMOOTH",
"770 1564 OFFCURVE",
"820 1538 OFFCURVE",
"820 1479 CURVE",
"989 1479 LINE",
"989 1630 OFFCURVE",
"854 1701 OFFCURVE",
"722 1701 CURVE SMOOTH",
"588 1701 OFFCURVE",
"451 1629 OFFCURVE",
"451 1479 CURVE"
);
},
{
closed = 1;
nodes = (
"169 170 OFFCURVE",
"372 -18 OFFCURVE",
"720 -18 CURVE SMOOTH",
"1067 -18 OFFCURVE",
"1271 172 OFFCURVE",
"1271 484 CURVE SMOOTH",
"1271 1336 LINE",
"983 1336 LINE",
"983 505 LINE SMOOTH",
"983 310 OFFCURVE",
"902 213 OFFCURVE",
"720 213 CURVE SMOOTH",
"544 213 OFFCURVE",
"457 309 OFFCURVE",
"457 504 CURVE SMOOTH",
"457 1336 LINE",
"169 1336 LINE",
"169 485 LINE SMOOTH"
);
}
);
width = 1440;
}
);
unicode = 0216;
},
{
glyphname = uni021A;
layers = (
{
layerId = "DC6F5AB8-73F2-4C0B-9A3E-015FFB242135";
name = Bold;
paths = (
{
closed = 1;
nodes = (
"420.5 -601 LINE",
"588.5 -601 LINE",
"743.5 -122 LINE",
"521.5 -122 LINE"
);
},
{
closed = 1;
nodes = (
"1099 1336 LINE",
"65 1336 LINE",
"65 1126 LINE",
"440 1126 LINE",
"440 0 LINE",
"728 0 LINE",
"728 1126 LINE",
"1099 1126 LINE"
);
}
);
width = 1164;
}
);
unicode = 021A;
},
{
glyphname = uni021E;
layers = (
{
layerId = "DC6F5AB8-73F2-4C0B-9A3E-015FFB242135";
name = Bold;
paths = (
{
closed = 1;
nodes = (
"678.5 1479 LINE",
"868.5 1479 LINE",
"1116.5 1816 LINE",
"911.5 1816 LINE",
"761.5 1645 LINE",
"631.5 1816 LINE",
"430.5 1816 LINE"
);
},
{
closed = 1;
nodes = (
"490 793 LINE",
"1057 793 LINE",
"1057 1336 LINE",
"1345 1336 LINE",
"1345 0 LINE",
"1057 0 LINE",
"1057 578 LINE",
"490 578 LINE",
"490 0 LINE",
"202 0 LINE",
"202 1336 LINE",
"490 1336 LINE"
);
}
);
width = 1547;
}
);
unicode = 021E;
},
{
glyphname = uni0226;
layers = (
{
layerId = "DC6F5AB8-73F2-4C0B-9A3E-015FFB242135";
name = Bold;
paths = (
{
closed = 1;
nodes = (
"614.5 1479 LINE",
"812.5 1479 LINE",
"812.5 1691 LINE",
"614.5 1691 LINE"
);
},
{
closed = 1;
nodes = (
"90 0 LINE",
"545 1336 LINE",
"883 1336 LINE",
"1337 0 LINE",
"1051 0 LINE",
"924 365 LINE",
"498 365 LINE",
"378 0 LINE"
);
},
{
closed = 1;
nodes = (
"556 555 LINE",
"868 555 LINE",
"718 1093 LINE"
);
}
);
width = 1427;
}
);
unicode = 0226;
},
{
glyphname = uni0228;
layers = (
{
layerId = "DC6F5AB8-73F2-4C0B-9A3E-015FFB242135";
name = Bold;
paths = (
{
closed = 1;
nodes = (
"432.5 -345 LINE",
"641.5 -345 LINE",
"695.5 11.9004 LINE",
"548.5 11.9004 LINE"
);
},
{
closed = 1;
nodes = (
"490 1126 LINE",
"1021 1126 LINE",
"1032 1336 LINE",
"202 1336 LINE",
"202 0 LINE",
"1025 0 LINE",
"1042 216 LINE",
"490 216 LINE",
"490 595 LINE",
"994 595 LINE",
"994 805 LINE",
"490 805 LINE"
);
}
);
width = 1164;
}
);
unicode = 0228;
},
{
glyphname = uni022A;
layers = (
{
layerId = "DC6F5AB8-73F2-4C0B-9A3E-015FFB242135";
name = Bold;
paths = (
{
closed = 1;
nodes = (
"458.5 1846 LINE",
"1107.5 1846 LINE",
"1107.5 2005 LINE",
"458.5 2005 LINE"
);
},
{
closed = 1;
nodes = (
"874.5 1479 LINE",
"1067.5 1479 LINE",
"1067.5 1724 LINE",
"874.5 1724 LINE"
);
},
{
closed = 1;
nodes = (
"498.5 1479 LINE",
"692.5 1479 LINE",
"692.5 1724 LINE",
"498.5 1724 LINE"
);
},
{
closed = 1;
nodes = (
"420 946 OFFCURVE",
"557 1127 OFFCURVE",
"784 1127 CURVE SMOOTH",
"1011 1127 OFFCURVE",
"1146 946 OFFCURVE",
"1146 667 CURVE SMOOTH",
"1146 393 OFFCURVE",
"1012 210 OFFCURVE",
"784 210 CURVE SMOOTH",
"556 210 OFFCURVE",
"420 393 OFFCURVE",
"420 667 CURVE SMOOTH"
);
},
{
closed = 1;
nodes = (
"132 237 OFFCURVE",
"391 -18 OFFCURVE",
"784 -18 CURVE SMOOTH",
"1177 -18 OFFCURVE",
"1434 237 OFFCURVE",
"1434 669 CURVE SMOOTH",
"1434 1105 OFFCURVE",
"1175 1357 OFFCURVE",
"784 1357 CURVE SMOOTH",
"393 1357 OFFCURVE",
"132 1105 OFFCURVE",
"132 669 CURVE SMOOTH"
);
}
);
width = 1566;
}
);
unicode = 022A;
},
{
glyphname = uni0230;
layers = (
{
layerId = "DC6F5AB8-73F2-4C0B-9A3E-015FFB242135";
name = Bold;
paths = (
{
closed = 1;
nodes = (
"458.5 1813 LINE",
"1107.5 1813 LINE",
"1107.5 1972 LINE",
"458.5 1972 LINE"
);
},
{
closed = 1;
nodes = (
"684 1479 LINE",
"882 1479 LINE",
"882 1691 LINE",
"684 1691 LINE"
);
},
{
closed = 1;
nodes = (
"420 946 OFFCURVE",
"557 1127 OFFCURVE",
"784 1127 CURVE SMOOTH",
"1011 1127 OFFCURVE",
"1146 946 OFFCURVE",
"1146 667 CURVE SMOOTH",
"1146 393 OFFCURVE",
"1012 210 OFFCURVE",
"784 210 CURVE SMOOTH",
"556 210 OFFCURVE",
"420 393 OFFCURVE",
"420 667 CURVE SMOOTH"
);
},
{
closed = 1;
nodes = (
"132 237 OFFCURVE",
"391 -18 OFFCURVE",
"784 -18 CURVE SMOOTH",
"1177 -18 OFFCURVE",
"1434 237 OFFCURVE",
"1434 669 CURVE SMOOTH",
"1434 1105 OFFCURVE",
"1175 1357 OFFCURVE",
"784 1357 CURVE SMOOTH",
"393 1357 OFFCURVE",
"132 1105 OFFCURVE",
"132 669 CURVE SMOOTH"
);
}
);
width = 1566;
}
);
unicode = 0230;
},
{
glyphname = uni0232;
layers = (
{
layerId = "DC6F5AB8-73F2-4C0B-9A3E-015FFB242135";
name = Bold;
paths = (
{
closed = 1;
nodes = (
"299 1479 LINE",
"948 1479 LINE",
"948 1638 LINE",
"299 1638 LINE"
);
},
{
closed = 1;
nodes = (
"623 749 LINE",
"342 1336 LINE",
"39 1336 LINE",
"482 495 LINE",
"482 0 LINE",
"764 0 LINE",
"764 499 LINE",
"1208 1336 LINE",
"910 1336 LINE"
);
}
);
width = 1231;
}
);
unicode = 0232;
},
{
glyphname = uni1E02;
layers = (
{
layerId = "DC6F5AB8-73F2-4C0B-9A3E-015FFB242135";
name = Bold;
paths = (
{
closed = 1;
nodes = (
"556 1522 LINE",
"754 1522 LINE",
"754 1734 LINE",
"556 1734 LINE"
);
},
{
closed = 1;
nodes = (
"536 1522 LINE",
"734 1522 LINE",
"734 1734 LINE",
"536 1734 LINE"
);
},
{
closed = 1;
nodes = (
"546 1522 LINE",
"744 1522 LINE",
"744 1734 LINE",
"546 1734 LINE"
);
},
{
closed = 1;
nodes = (
"546 1522 LINE",
"744 1522 LINE",
"744 1734 LINE",
"546 1734 LINE"
);
},
{
closed = 1;
nodes = (
"547 1522 LINE",
"745 1522 LINE",
"745 1734 LINE",
"547 1734 LINE"
);
},
{
closed = 1;
nodes = (
"536 1522 LINE",
"734 1522 LINE",
"734 1734 LINE",
"536 1734 LINE"
);
},
{
closed = 1;
nodes = (
"490 793 LINE",
"683 793 LINE SMOOTH",
"834 793 OFFCURVE",
"908 834 OFFCURVE",
"908 956 CURVE SMOOTH",
"908 1093 OFFCURVE",
"821 1126 OFFCURVE",
"635 1126 CURVE SMOOTH",
"490 1126 LINE"
);
},
{
closed = 1;
nodes = (
"490 216 LINE",
"686 216 LINE SMOOTH",
"863 216 OFFCURVE",
"948 270 OFFCURVE",
"948 412 CURVE SMOOTH",
"948 554 OFFCURVE",
"865 604 OFFCURVE",
"680 604 CURVE SMOOTH",
"490 604 LINE"
);
},
{
closed = 1;
nodes = (
"202 0 LINE",
"202 1336 LINE",
"669 1336 LINE SMOOTH",
"999 1336 OFFCURVE",
"1188 1254 OFFCURVE",
"1188 1000 CURVE SMOOTH",
"1188 919 OFFCURVE",
"1145 783 OFFCURVE",
"1001 715 CURVE",
"1144 665 OFFCURVE",
"1236 551 OFFCURVE",
"1236 393 CURVE SMOOTH",
"1236 133 OFFCURVE",
"1039 0 OFFCURVE",
"738 0 CURVE SMOOTH"
);
},
{
closed = 1;
nodes = (
"490 793 LINE",
"683 793 LINE SMOOTH",
"834 793 OFFCURVE",
"908 834 OFFCURVE",
"908 956 CURVE SMOOTH",
"908 1093 OFFCURVE",
"821 1126 OFFCURVE",
"635 1126 CURVE SMOOTH",
"490 1126 LINE"
);
},
{
closed = 1;
nodes = (
"490 216 LINE",
"686 216 LINE SMOOTH",
"863 216 OFFCURVE",
"948 270 OFFCURVE",
"948 412 CURVE SMOOTH",
"948 554 OFFCURVE",
"865 604 OFFCURVE",
"680 604 CURVE SMOOTH",
"490 604 LINE"
);
},
{
closed = 1;
nodes = (
"202 0 LINE",
"202 1336 LINE",
"669 1336 LINE SMOOTH",
"999 1336 OFFCURVE",
"1188 1254 OFFCURVE",
"1188 1000 CURVE SMOOTH",
"1188 919 OFFCURVE",
"1145 783 OFFCURVE",
"1001 715 CURVE",
"1144 665 OFFCURVE",
"1236 551 OFFCURVE",
"1236 393 CURVE SMOOTH",
"1236 133 OFFCURVE",
"1039 0 OFFCURVE",
"738 0 CURVE SMOOTH"
);
},
{
closed = 1;
nodes = (
"490 793 LINE",
"683 793 LINE SMOOTH",
"834 793 OFFCURVE",
"908 834 OFFCURVE",
"908 956 CURVE SMOOTH",
"908 1093 OFFCURVE",
"821 1126 OFFCURVE",
"635 1126 CURVE SMOOTH",
"490 1126 LINE"
);
},
{
closed = 1;
nodes = (
"490 216 LINE",
"686 216 LINE SMOOTH",
"863 216 OFFCURVE",
"948 270 OFFCURVE",
"948 412 CURVE SMOOTH",
"948 554 OFFCURVE",
"865 604 OFFCURVE",
"680 604 CURVE SMOOTH",
"490 604 LINE"
);
},
{
closed = 1;
nodes = (
"202 0 LINE",
"202 1336 LINE",
"669 1336 LINE SMOOTH",
"999 1336 OFFCURVE",
"1188 1254 OFFCURVE",
"1188 1000 CURVE SMOOTH",
"1188 919 OFFCURVE",
"1145 783 OFFCURVE",
"1001 715 CURVE",
"1144 665 OFFCURVE",
"1236 551 OFFCURVE",
"1236 393 CURVE SMOOTH",
"1236 133 OFFCURVE",
"1039 0 OFFCURVE",
"738 0 CURVE SMOOTH"
);
},
{
closed = 1;
nodes = (
"490 793 LINE",
"683 793 LINE SMOOTH",
"834 793 OFFCURVE",
"908 834 OFFCURVE",
"908 956 CURVE SMOOTH",
"908 1093 OFFCURVE",
"821 1126 OFFCURVE",
"635 1126 CURVE SMOOTH",
"490 1126 LINE"
);
},
{
closed = 1;
nodes = (
"490 216 LINE",
"686 216 LINE SMOOTH",
"863 216 OFFCURVE",
"948 270 OFFCURVE",
"948 412 CURVE SMOOTH",
"948 554 OFFCURVE",
"865 604 OFFCURVE",
"680 604 CURVE SMOOTH",
"490 604 LINE"
);
},
{
closed = 1;
nodes = (
"202 0 LINE",
"202 1336 LINE",
"669 1336 LINE SMOOTH",
"999 1336 OFFCURVE",
"1188 1254 OFFCURVE",
"1188 1000 CURVE SMOOTH",
"1188 919 OFFCURVE",
"1145 783 OFFCURVE",
"1001 715 CURVE",
"1144 665 OFFCURVE",
"1236 551 OFFCURVE",
"1236 393 CURVE SMOOTH",
"1236 133 OFFCURVE",
"1039 0 OFFCURVE",
"738 0 CURVE SMOOTH"
);
},
{
closed = 1;
nodes = (
"490 793 LINE",
"683 793 LINE SMOOTH",
"834 793 OFFCURVE",
"908 834 OFFCURVE",
"908 956 CURVE SMOOTH",
"908 1093 OFFCURVE",
"821 1126 OFFCURVE",
"635 1126 CURVE SMOOTH",
"490 1126 LINE"
);
},
{
closed = 1;
nodes = (
"490 216 LINE",
"686 216 LINE SMOOTH",
"863 216 OFFCURVE",
"948 270 OFFCURVE",
"948 412 CURVE SMOOTH",
"948 554 OFFCURVE",
"865 604 OFFCURVE",
"680 604 CURVE SMOOTH",
"490 604 LINE"
);
},
{
closed = 1;
nodes = (
"202 0 LINE",
"202 1336 LINE",
"669 1336 LINE SMOOTH",
"999 1336 OFFCURVE",
"1188 1254 OFFCURVE",
"1188 1000 CURVE SMOOTH",
"1188 919 OFFCURVE",
"1145 783 OFFCURVE",
"1001 715 CURVE",
"1144 665 OFFCURVE",
"1236 551 OFFCURVE",
"1236 393 CURVE SMOOTH",
"1236 133 OFFCURVE",
"1039 0 OFFCURVE",
"738 0 CURVE SMOOTH"
);
},
{
closed = 1;
nodes = (
"490 793 LINE",
"683 793 LINE SMOOTH",
"834 793 OFFCURVE",
"908 834 OFFCURVE",
"908 956 CURVE SMOOTH",
"908 1093 OFFCURVE",
"821 1126 OFFCURVE",
"635 1126 CURVE SMOOTH",
"490 1126 LINE"
);
},
{
closed = 1;
nodes = (
"490 216 LINE",
"686 216 LINE SMOOTH",
"863 216 OFFCURVE",
"948 270 OFFCURVE",
"948 412 CURVE SMOOTH",
"948 554 OFFCURVE",
"865 604 OFFCURVE",
"680 604 CURVE SMOOTH",
"490 604 LINE"
);
},
{
closed = 1;
nodes = (
"202 0 LINE",
"202 1336 LINE",
"669 1336 LINE SMOOTH",
"999 1336 OFFCURVE",
"1188 1254 OFFCURVE",
"1188 1000 CURVE SMOOTH",
"1188 919 OFFCURVE",
"1145 783 OFFCURVE",
"1001 715 CURVE",
"1144 665 OFFCURVE",
"1236 551 OFFCURVE",
"1236 393 CURVE SMOOTH",
"1236 133 OFFCURVE",
"1039 0 OFFCURVE",
"738 0 CURVE SMOOTH"
);
}
);
width = 1247;
}
);
unicode = 1E02;
},
{
glyphname = uni1E0A;
layers = (
{
layerId = "DC6F5AB8-73F2-4C0B-9A3E-015FFB242135";
name = Bold;
paths = (
{
closed = 1;
nodes = (
"612 1421 LINE",
"810 1421 LINE",
"810 1633 LINE",
"612 1633 LINE"
);
},
{
closed = 1;
nodes = (
"592 1421 LINE",
"790 1421 LINE",
"790 1633 LINE",
"592 1633 LINE"
);
},
{
closed = 1;
nodes = (
"613 1421 LINE",
"811 1421 LINE",
"811 1633 LINE",
"613 1633 LINE"
);
},
{
closed = 1;
nodes = (
"602 1421 LINE",
"800 1421 LINE",
"800 1633 LINE",
"602 1633 LINE"
);
},
{
closed = 1;
nodes = (
"603 1421 LINE",
"801 1421 LINE",
"801 1633 LINE",
"603 1633 LINE"
);
},
{
closed = 1;
nodes = (
"592 1421 LINE",
"790 1421 LINE",
"790 1633 LINE",
"592 1633 LINE"
);
},
{
closed = 1;
nodes = (
"202 0 LINE",
"623 0 LINE SMOOTH",
"1066 0 OFFCURVE",
"1354 238 OFFCURVE",
"1354 676 CURVE SMOOTH",
"1354 1130 OFFCURVE",
"1049 1336 OFFCURVE",
"600 1336 CURVE SMOOTH",
"202 1336 LINE"
);
},
{
closed = 1;
nodes = (
"490 1126 LINE",
"611 1126 LINE SMOOTH",
"919 1126 OFFCURVE",
"1067 992 OFFCURVE",
"1067 671 CURVE SMOOTH",
"1067 377 OFFCURVE",
"927 216 OFFCURVE",
"637 216 CURVE SMOOTH",
"490 216 LINE"
);
},
{
closed = 1;
nodes = (
"202 0 LINE",
"623 0 LINE SMOOTH",
"1066 0 OFFCURVE",
"1354 238 OFFCURVE",
"1354 676 CURVE SMOOTH",
"1354 1130 OFFCURVE",
"1049 1336 OFFCURVE",
"600 1336 CURVE SMOOTH",
"202 1336 LINE"
);
},
{
closed = 1;
nodes = (
"490 1126 LINE",
"611 1126 LINE SMOOTH",
"919 1126 OFFCURVE",
"1067 992 OFFCURVE",
"1067 671 CURVE SMOOTH",
"1067 377 OFFCURVE",
"927 216 OFFCURVE",
"637 216 CURVE SMOOTH",
"490 216 LINE"
);
},
{
closed = 1;
nodes = (
"202 0 LINE",
"623 0 LINE SMOOTH",
"1066 0 OFFCURVE",
"1354 238 OFFCURVE",
"1354 676 CURVE SMOOTH",
"1354 1130 OFFCURVE",
"1049 1336 OFFCURVE",
"600 1336 CURVE SMOOTH",
"202 1336 LINE"
);
},
{
closed = 1;
nodes = (
"490 1126 LINE",
"611 1126 LINE SMOOTH",
"919 1126 OFFCURVE",
"1067 992 OFFCURVE",
"1067 671 CURVE SMOOTH",
"1067 377 OFFCURVE",
"927 216 OFFCURVE",
"637 216 CURVE SMOOTH",
"490 216 LINE"
);
},
{
closed = 1;
nodes = (
"202 0 LINE",
"623 0 LINE SMOOTH",
"1066 0 OFFCURVE",
"1354 238 OFFCURVE",
"1354 676 CURVE SMOOTH",
"1354 1130 OFFCURVE",
"1049 1336 OFFCURVE",
"600 1336 CURVE SMOOTH",
"202 1336 LINE"
);
},
{
closed = 1;
nodes = (
"490 1126 LINE",
"611 1126 LINE SMOOTH",
"919 1126 OFFCURVE",
"1067 992 OFFCURVE",
"1067 671 CURVE SMOOTH",
"1067 377 OFFCURVE",
"927 216 OFFCURVE",
"637 216 CURVE SMOOTH",
"490 216 LINE"
);
},
{
closed = 1;
nodes = (
"202 0 LINE",
"623 0 LINE SMOOTH",
"1066 0 OFFCURVE",
"1354 238 OFFCURVE",
"1354 676 CURVE SMOOTH",
"1354 1130 OFFCURVE",
"1049 1336 OFFCURVE",
"600 1336 CURVE SMOOTH",
"202 1336 LINE"
);
},
{
closed = 1;
nodes = (
"490 1126 LINE",
"611 1126 LINE SMOOTH",
"919 1126 OFFCURVE",
"1067 992 OFFCURVE",
"1067 671 CURVE SMOOTH",
"1067 377 OFFCURVE",
"927 216 OFFCURVE",
"637 216 CURVE SMOOTH",
"490 216 LINE"
);
},
{
closed = 1;
nodes = (
"202 0 LINE",
"623 0 LINE SMOOTH",
"1066 0 OFFCURVE",
"1354 238 OFFCURVE",
"1354 676 CURVE SMOOTH",
"1354 1130 OFFCURVE",
"1049 1336 OFFCURVE",
"600 1336 CURVE SMOOTH",
"202 1336 LINE"
);
},
{
closed = 1;
nodes = (
"490 1126 LINE",
"611 1126 LINE SMOOTH",
"919 1126 OFFCURVE",
"1067 992 OFFCURVE",
"1067 671 CURVE SMOOTH",
"1067 377 OFFCURVE",
"927 216 OFFCURVE",
"637 216 CURVE SMOOTH",
"490 216 LINE"
);
}
);
width = 1388;
}
);
unicode = 1E0A;
},
{
glyphname = uni1E1E;
layers = (
{
layerId = "DC6F5AB8-73F2-4C0B-9A3E-015FFB242135";
name = Bold;
paths = (
{
closed = 1;
nodes = (
"455 1522 LINE",
"653 1522 LINE",
"653 1734 LINE",
"455 1734 LINE"
);
},
{
closed = 1;
nodes = (
"435 1522 LINE",
"633 1522 LINE",
"633 1734 LINE",
"435 1734 LINE"
);
},
{
closed = 1;
nodes = (
"456 1522 LINE",
"654 1522 LINE",
"654 1734 LINE",
"456 1734 LINE"
);
},
{
closed = 1;
nodes = (
"445 1522 LINE",
"643 1522 LINE",
"643 1734 LINE",
"445 1734 LINE"
);
},
{
closed = 1;
nodes = (
"446 1522 LINE",
"644 1522 LINE",
"644 1734 LINE",
"446 1734 LINE"
);
},
{
closed = 1;
nodes = (
"435 1522 LINE",
"633 1522 LINE",
"633 1734 LINE",
"435 1734 LINE"
);
},
{
closed = 1;
nodes = (
"490 1116 LINE",
"1019 1116 LINE",
"1031 1336 LINE",
"202 1336 LINE",
"202 0 LINE",
"490 0 LINE",
"490 556 LINE",
"986 556 LINE",
"986 765 LINE",
"490 765 LINE"
);
},
{
closed = 1;
nodes = (
"490 1116 LINE",
"1019 1116 LINE",
"1031 1336 LINE",
"202 1336 LINE",
"202 0 LINE",
"490 0 LINE",
"490 556 LINE",
"986 556 LINE",
"986 765 LINE",
"490 765 LINE"
);
},
{
closed = 1;
nodes = (
"490 1116 LINE",
"1019 1116 LINE",
"1031 1336 LINE",
"202 1336 LINE",
"202 0 LINE",
"490 0 LINE",
"490 556 LINE",
"986 556 LINE",
"986 765 LINE",
"490 765 LINE"
);
},
{
closed = 1;
nodes = (
"490 1116 LINE",
"1019 1116 LINE",
"1031 1336 LINE",
"202 1336 LINE",
"202 0 LINE",
"490 0 LINE",
"490 556 LINE",
"986 556 LINE",
"986 765 LINE",
"490 765 LINE"
);
},
{
closed = 1;
nodes = (
"490 1116 LINE",
"1019 1116 LINE",
"1031 1336 LINE",
"202 1336 LINE",
"202 0 LINE",
"490 0 LINE",
"490 556 LINE",
"986 556 LINE",
"986 765 LINE",
"490 765 LINE"
);
},
{
closed = 1;
nodes = (
"490 1116 LINE",
"1019 1116 LINE",
"1031 1336 LINE",
"202 1336 LINE",
"202 0 LINE",
"490 0 LINE",
"490 556 LINE",
"986 556 LINE",
"986 765 LINE",
"490 765 LINE"
);
}
);
width = 1022;
}
);
unicode = 1E1E;
},
{
glyphname = uni1E40;
layers = (
{
layerId = "DC6F5AB8-73F2-4C0B-9A3E-015FFB242135";
name = Bold;
paths = (
{
closed = 1;
nodes = (
"758 1522 LINE",
"956 1522 LINE",
"956 1734 LINE",
"758 1734 LINE"
);
},
{
closed = 1;
nodes = (
"738 1522 LINE",
"936 1522 LINE",
"936 1734 LINE",
"738 1734 LINE"
);
},
{
closed = 1;
nodes = (
"759 1522 LINE",
"957 1522 LINE",
"957 1734 LINE",
"759 1734 LINE"
);
},
{
closed = 1;
nodes = (
"748 1522 LINE",
"946 1522 LINE",
"946 1734 LINE",
"748 1734 LINE"
);
},
{
closed = 1;
nodes = (
"749 1522 LINE",
"947 1522 LINE",
"947 1734 LINE",
"749 1734 LINE"
);
},
{
closed = 1;
nodes = (
"738 1522 LINE",
"936 1522 LINE",
"936 1734 LINE",
"738 1734 LINE"
);
},
{
closed = 1;
nodes = (
"1265 1336 LINE",
"874 421 LINE",
"488 1336 LINE",
"202 1336 LINE",
"202 0 LINE",
"468 0 LINE",
"468 484 LINE",
"453 886 LINE",
"769 136 LINE",
"970 136 LINE",
"1295 880 LINE",
"1280 487 LINE",
"1280 0 LINE",
"1546 0 LINE",
"1546 1336 LINE"
);
},
{
closed = 1;
nodes = (
"1265 1336 LINE",
"874 421 LINE",
"488 1336 LINE",
"202 1336 LINE",
"202 0 LINE",
"468 0 LINE",
"468 484 LINE",
"453 886 LINE",
"769 136 LINE",
"970 136 LINE",
"1295 880 LINE",
"1280 487 LINE",
"1280 0 LINE",
"1546 0 LINE",
"1546 1336 LINE"
);
},
{
closed = 1;
nodes = (
"1265 1336 LINE",
"874 421 LINE",
"488 1336 LINE",
"202 1336 LINE",
"202 0 LINE",
"468 0 LINE",
"468 484 LINE",
"453 886 LINE",
"769 136 LINE",
"970 136 LINE",
"1295 880 LINE",
"1280 487 LINE",
"1280 0 LINE",
"1546 0 LINE",
"1546 1336 LINE"
);
},
{
closed = 1;
nodes = (
"1265 1336 LINE",
"874 421 LINE",
"488 1336 LINE",
"202 1336 LINE",
"202 0 LINE",
"468 0 LINE",
"468 484 LINE",
"453 886 LINE",
"769 136 LINE",
"970 136 LINE",
"1295 880 LINE",
"1280 487 LINE",
"1280 0 LINE",
"1546 0 LINE",
"1546 1336 LINE"
);
},
{
closed = 1;
nodes = (
"1265 1336 LINE",
"874 421 LINE",
"488 1336 LINE",
"202 1336 LINE",
"202 0 LINE",
"468 0 LINE",
"468 484 LINE",
"453 886 LINE",
"769 136 LINE",
"970 136 LINE",
"1295 880 LINE",
"1280 487 LINE",
"1280 0 LINE",
"1546 0 LINE",
"1546 1336 LINE"
);
},
{
closed = 1;
nodes = (
"1265 1336 LINE",
"874 421 LINE",
"488 1336 LINE",
"202 1336 LINE",
"202 0 LINE",
"468 0 LINE",
"468 484 LINE",
"453 886 LINE",
"769 136 LINE",
"970 136 LINE",
"1295 880 LINE",
"1280 487 LINE",
"1280 0 LINE",
"1546 0 LINE",
"1546 1336 LINE"
);
}
);
width = 1632;
}
);
unicode = 1E40;
},
{
glyphname = uni1E56;
layers = (
{
layerId = "DC6F5AB8-73F2-4C0B-9A3E-015FFB242135";
name = Bold;
paths = (
{
closed = 1;
nodes = (
"545 1522 LINE",
"743 1522 LINE",
"743 1734 LINE",
"545 1734 LINE"
);
},
{
closed = 1;
nodes = (
"525 1522 LINE",
"723 1522 LINE",
"723 1734 LINE",
"525 1734 LINE"
);
},
{
closed = 1;
nodes = (
"546 1522 LINE",
"744 1522 LINE",
"744 1734 LINE",
"546 1734 LINE"
);
},
{
closed = 1;
nodes = (
"535 1522 LINE",
"733 1522 LINE",
"733 1734 LINE",
"535 1734 LINE"
);
},
{
closed = 1;
nodes = (
"536 1522 LINE",
"734 1522 LINE",
"734 1734 LINE",
"536 1734 LINE"
);
},
{
closed = 1;
nodes = (
"525 1522 LINE",
"723 1522 LINE",
"723 1734 LINE",
"525 1734 LINE"
);
},
{
closed = 1;
nodes = (
"906 798 OFFCURVE",
"892 677 OFFCURVE",
"647 677 CURVE SMOOTH",
"601 677 OFFCURVE",
"518 677 OFFCURVE",
"490 678 CURVE",
"490 1126 LINE",
"674 1126 LINE SMOOTH",
"835 1126 OFFCURVE",
"906 1053 OFFCURVE",
"906 911 CURVE SMOOTH"
);
},
{
closed = 1;
nodes = (
"202 0 LINE",
"490 0 LINE",
"490 489 LINE",
"557 483 OFFCURVE",
"621 482 OFFCURVE",
"673 482 CURVE SMOOTH",
"1062 482 OFFCURVE",
"1194 677 OFFCURVE",
"1194 919 CURVE SMOOTH",
"1194 1205 OFFCURVE",
"972 1336 OFFCURVE",
"673 1336 CURVE SMOOTH",
"202 1336 LINE"
);
},
{
closed = 1;
nodes = (
"906 798 OFFCURVE",
"892 677 OFFCURVE",
"647 677 CURVE SMOOTH",
"601 677 OFFCURVE",
"518 677 OFFCURVE",
"490 678 CURVE",
"490 1126 LINE",
"674 1126 LINE SMOOTH",
"835 1126 OFFCURVE",
"906 1053 OFFCURVE",
"906 911 CURVE SMOOTH"
);
},
{
closed = 1;
nodes = (
"202 0 LINE",
"490 0 LINE",
"490 489 LINE",
"557 483 OFFCURVE",
"621 482 OFFCURVE",
"673 482 CURVE SMOOTH",
"1062 482 OFFCURVE",
"1194 677 OFFCURVE",
"1194 919 CURVE SMOOTH",
"1194 1205 OFFCURVE",
"972 1336 OFFCURVE",
"673 1336 CURVE SMOOTH",
"202 1336 LINE"
);
},
{
closed = 1;
nodes = (
"906 798 OFFCURVE",
"892 677 OFFCURVE",
"647 677 CURVE SMOOTH",
"601 677 OFFCURVE",
"518 677 OFFCURVE",
"490 678 CURVE",
"490 1126 LINE",
"674 1126 LINE SMOOTH",
"835 1126 OFFCURVE",
"906 1053 OFFCURVE",
"906 911 CURVE SMOOTH"
);
},
{
closed = 1;
nodes = (
"202 0 LINE",
"490 0 LINE",
"490 489 LINE",
"557 483 OFFCURVE",
"621 482 OFFCURVE",
"673 482 CURVE SMOOTH",
"1062 482 OFFCURVE",
"1194 677 OFFCURVE",
"1194 919 CURVE SMOOTH",
"1194 1205 OFFCURVE",
"972 1336 OFFCURVE",
"673 1336 CURVE SMOOTH",
"202 1336 LINE"
);
},
{
closed = 1;
nodes = (
"906 798 OFFCURVE",
"892 677 OFFCURVE",
"647 677 CURVE SMOOTH",
"601 677 OFFCURVE",
"518 677 OFFCURVE",
"490 678 CURVE",
"490 1126 LINE",
"674 1126 LINE SMOOTH",
"835 1126 OFFCURVE",
"906 1053 OFFCURVE",
"906 911 CURVE SMOOTH"
);
},
{
closed = 1;
nodes = (
"202 0 LINE",
"490 0 LINE",
"490 489 LINE",
"557 483 OFFCURVE",
"621 482 OFFCURVE",
"673 482 CURVE SMOOTH",
"1062 482 OFFCURVE",
"1194 677 OFFCURVE",
"1194 919 CURVE SMOOTH",
"1194 1205 OFFCURVE",
"972 1336 OFFCURVE",
"673 1336 CURVE SMOOTH",
"202 1336 LINE"
);
},
{
closed = 1;
nodes = (
"906 798 OFFCURVE",
"892 677 OFFCURVE",
"647 677 CURVE SMOOTH",
"601 677 OFFCURVE",
"518 677 OFFCURVE",
"490 678 CURVE",
"490 1126 LINE",
"674 1126 LINE SMOOTH",
"835 1126 OFFCURVE",
"906 1053 OFFCURVE",
"906 911 CURVE SMOOTH"
);
},
{
closed = 1;
nodes = (
"202 0 LINE",
"490 0 LINE",
"490 489 LINE",
"557 483 OFFCURVE",
"621 482 OFFCURVE",
"673 482 CURVE SMOOTH",
"1062 482 OFFCURVE",
"1194 677 OFFCURVE",
"1194 919 CURVE SMOOTH",
"1194 1205 OFFCURVE",
"972 1336 OFFCURVE",
"673 1336 CURVE SMOOTH",
"202 1336 LINE"
);
},
{
closed = 1;
nodes = (
"906 798 OFFCURVE",
"892 677 OFFCURVE",
"647 677 CURVE SMOOTH",
"601 677 OFFCURVE",
"518 677 OFFCURVE",
"490 678 CURVE",
"490 1126 LINE",
"674 1126 LINE SMOOTH",
"835 1126 OFFCURVE",
"906 1053 OFFCURVE",
"906 911 CURVE SMOOTH"
);
},
{
closed = 1;
nodes = (
"202 0 LINE",
"490 0 LINE",
"490 489 LINE",
"557 483 OFFCURVE",
"621 482 OFFCURVE",
"673 482 CURVE SMOOTH",
"1062 482 OFFCURVE",
"1194 677 OFFCURVE",
"1194 919 CURVE SMOOTH",
"1194 1205 OFFCURVE",
"972 1336 OFFCURVE",
"673 1336 CURVE SMOOTH",
"202 1336 LINE"
);
}
);
width = 1184;
}
);
unicode = 1E56;
},
{
glyphname = uni1E60;
layers = (
{
layerId = "DC6F5AB8-73F2-4C0B-9A3E-015FFB242135";
name = Bold;
paths = (
{
closed = 1;
nodes = (
"459 1421 LINE",
"657 1421 LINE",
"657 1633 LINE",
"459 1633 LINE"
);
},
{
closed = 1;
nodes = (
"469 1421 LINE",
"667 1421 LINE",
"667 1633 LINE",
"469 1633 LINE"
);
},
{
closed = 1;
nodes = (
"464 1421 LINE",
"662 1421 LINE",
"662 1633 LINE",
"464 1633 LINE"
);
},
{
closed = 1;
nodes = (
"460 1421 LINE",
"658 1421 LINE",
"658 1633 LINE",
"460 1633 LINE"
);
},
{
closed = 1;
nodes = (
"465 1421 LINE",
"663 1421 LINE",
"663 1633 LINE",
"465 1633 LINE"
);
},
{
closed = 1;
nodes = (
"458 1421 LINE",
"656 1421 LINE",
"656 1633 LINE",
"458 1633 LINE"
);
},
{
closed = 1;
nodes = (
"466 1421 LINE",
"664 1421 LINE",
"664 1633 LINE",
"466 1633 LINE"
);
},
{
closed = 1;
nodes = (
"461 1421 LINE",
"659 1421 LINE",
"659 1633 LINE",
"461 1633 LINE"
);
},
{
closed = 1;
nodes = (
"467 1421 LINE",
"665 1421 LINE",
"665 1633 LINE",
"467 1633 LINE"
);
},
{
closed = 1;
nodes = (
"470 1421 LINE",
"668 1421 LINE",
"668 1633 LINE",
"470 1633 LINE"
);
},
{
closed = 1;
nodes = (
"468 1421 LINE",
"666 1421 LINE",
"666 1633 LINE",
"468 1633 LINE"
);
},
{
closed = 1;
nodes = (
"462 1421 LINE",
"660 1421 LINE",
"660 1633 LINE",
"462 1633 LINE"
);
},
{
closed = 1;
nodes = (
"463 1421 LINE",
"661 1421 LINE",
"661 1633 LINE",
"463 1633 LINE"
);
},
{
closed = 1;
nodes = (
"1063 119 OFFCURVE",
"859 -18 OFFCURVE",
"570 -18 CURVE SMOOTH",
"394 -18 OFFCURVE",
"241 21 OFFCURVE",
"125 87 CURVE",
"208 303 LINE",
"285 253 OFFCURVE",
"448 210 OFFCURVE",
"580 210 CURVE SMOOTH",
"721 210 OFFCURVE",
"790 262 OFFCURVE",
"790 385 CURVE SMOOTH",
"790 464 OFFCURVE",
"735 512 OFFCURVE",
"638 544 CURVE SMOOTH",
"414 617 LINE SMOOTH",
"252 670 OFFCURVE",
"148 785 OFFCURVE",
"148 975 CURVE SMOOTH",
"148 1227 OFFCURVE",
"345 1358 OFFCURVE",
"613 1358 CURVE SMOOTH",
"773 1358 OFFCURVE",
"923 1320 OFFCURVE",
"1044 1251 CURVE",
"962 1035 LINE",
"870 1075 OFFCURVE",
"743 1128 OFFCURVE",
"624 1128 CURVE SMOOTH",
"491 1128 OFFCURVE",
"417 1087 OFFCURVE",
"417 980 CURVE SMOOTH",
"417 915 OFFCURVE",
"454 873 OFFCURVE",
"515 853 CURVE SMOOTH",
"723 783 LINE SMOOTH",
"958 705 OFFCURVE",
"1063 598 OFFCURVE",
"1063 381 CURVE SMOOTH"
);
},
{
closed = 1;
nodes = (
"1063 119 OFFCURVE",
"859 -18 OFFCURVE",
"570 -18 CURVE SMOOTH",
"394 -18 OFFCURVE",
"241 21 OFFCURVE",
"125 87 CURVE",
"208 303 LINE",
"285 253 OFFCURVE",
"448 210 OFFCURVE",
"580 210 CURVE SMOOTH",
"721 210 OFFCURVE",
"790 262 OFFCURVE",
"790 385 CURVE SMOOTH",
"790 464 OFFCURVE",
"735 512 OFFCURVE",
"638 544 CURVE SMOOTH",
"414 617 LINE SMOOTH",
"252 670 OFFCURVE",
"148 785 OFFCURVE",
"148 975 CURVE SMOOTH",
"148 1227 OFFCURVE",
"345 1358 OFFCURVE",
"613 1358 CURVE SMOOTH",
"773 1358 OFFCURVE",
"923 1320 OFFCURVE",
"1044 1251 CURVE",
"962 1035 LINE",
"870 1075 OFFCURVE",
"743 1128 OFFCURVE",
"624 1128 CURVE SMOOTH",
"491 1128 OFFCURVE",
"417 1087 OFFCURVE",
"417 980 CURVE SMOOTH",
"417 915 OFFCURVE",
"454 873 OFFCURVE",
"515 853 CURVE SMOOTH",
"723 783 LINE SMOOTH",
"958 705 OFFCURVE",
"1063 598 OFFCURVE",
"1063 381 CURVE SMOOTH"
);
},
{
closed = 1;
nodes = (
"1063 119 OFFCURVE",
"859 -18 OFFCURVE",
"570 -18 CURVE SMOOTH",
"394 -18 OFFCURVE",
"241 21 OFFCURVE",
"125 87 CURVE",
"208 303 LINE",
"285 253 OFFCURVE",
"448 210 OFFCURVE",
"580 210 CURVE SMOOTH",
"721 210 OFFCURVE",
"790 262 OFFCURVE",
"790 385 CURVE SMOOTH",
"790 464 OFFCURVE",
"735 512 OFFCURVE",
"638 544 CURVE SMOOTH",
"414 617 LINE SMOOTH",
"252 670 OFFCURVE",
"148 785 OFFCURVE",
"148 975 CURVE SMOOTH",
"148 1227 OFFCURVE",
"345 1358 OFFCURVE",
"613 1358 CURVE SMOOTH",
"773 1358 OFFCURVE",
"923 1320 OFFCURVE",
"1044 1251 CURVE",
"962 1035 LINE",
"870 1075 OFFCURVE",
"743 1128 OFFCURVE",
"624 1128 CURVE SMOOTH",
"491 1128 OFFCURVE",
"417 1087 OFFCURVE",
"417 980 CURVE SMOOTH",
"417 915 OFFCURVE",
"454 873 OFFCURVE",
"515 853 CURVE SMOOTH",
"723 783 LINE SMOOTH",
"958 705 OFFCURVE",
"1063 598 OFFCURVE",
"1063 381 CURVE SMOOTH"
);
},
{
closed = 1;
nodes = (
"1063 119 OFFCURVE",
"859 -18 OFFCURVE",
"570 -18 CURVE SMOOTH",
"394 -18 OFFCURVE",
"241 21 OFFCURVE",
"125 87 CURVE",
"208 303 LINE",
"285 253 OFFCURVE",
"448 210 OFFCURVE",
"580 210 CURVE SMOOTH",
"721 210 OFFCURVE",
"790 262 OFFCURVE",
"790 385 CURVE SMOOTH",
"790 464 OFFCURVE",
"735 512 OFFCURVE",
"638 544 CURVE SMOOTH",
"414 617 LINE SMOOTH",
"252 670 OFFCURVE",
"148 785 OFFCURVE",
"148 975 CURVE SMOOTH",
"148 1227 OFFCURVE",
"345 1358 OFFCURVE",
"613 1358 CURVE SMOOTH",
"773 1358 OFFCURVE",
"923 1320 OFFCURVE",
"1044 1251 CURVE",
"962 1035 LINE",
"870 1075 OFFCURVE",
"743 1128 OFFCURVE",
"624 1128 CURVE SMOOTH",
"491 1128 OFFCURVE",
"417 1087 OFFCURVE",
"417 980 CURVE SMOOTH",
"417 915 OFFCURVE",
"454 873 OFFCURVE",
"515 853 CURVE SMOOTH",
"723 783 LINE SMOOTH",
"958 705 OFFCURVE",
"1063 598 OFFCURVE",
"1063 381 CURVE SMOOTH"
);
},
{
closed = 1;
nodes = (
"1063 119 OFFCURVE",
"859 -18 OFFCURVE",
"570 -18 CURVE SMOOTH",
"394 -18 OFFCURVE",
"241 21 OFFCURVE",
"125 87 CURVE",
"208 303 LINE",
"285 253 OFFCURVE",
"448 210 OFFCURVE",
"580 210 CURVE SMOOTH",
"721 210 OFFCURVE",
"790 262 OFFCURVE",
"790 385 CURVE SMOOTH",
"790 464 OFFCURVE",
"735 512 OFFCURVE",
"638 544 CURVE SMOOTH",
"414 617 LINE SMOOTH",
"252 670 OFFCURVE",
"148 785 OFFCURVE",
"148 975 CURVE SMOOTH",
"148 1227 OFFCURVE",
"345 1358 OFFCURVE",
"613 1358 CURVE SMOOTH",
"773 1358 OFFCURVE",
"923 1320 OFFCURVE",
"1044 1251 CURVE",
"962 1035 LINE",
"870 1075 OFFCURVE",
"743 1128 OFFCURVE",
"624 1128 CURVE SMOOTH",
"491 1128 OFFCURVE",
"417 1087 OFFCURVE",
"417 980 CURVE SMOOTH",
"417 915 OFFCURVE",
"454 873 OFFCURVE",
"515 853 CURVE SMOOTH",
"723 783 LINE SMOOTH",
"958 705 OFFCURVE",
"1063 598 OFFCURVE",
"1063 381 CURVE SMOOTH"
);
},
{
closed = 1;
nodes = (
"1063 119 OFFCURVE",
"859 -18 OFFCURVE",
"570 -18 CURVE SMOOTH",
"394 -18 OFFCURVE",
"241 21 OFFCURVE",
"125 87 CURVE",
"208 303 LINE",
"285 253 OFFCURVE",
"448 210 OFFCURVE",
"580 210 CURVE SMOOTH",
"721 210 OFFCURVE",
"790 262 OFFCURVE",
"790 385 CURVE SMOOTH",
"790 464 OFFCURVE",
"735 512 OFFCURVE",
"638 544 CURVE SMOOTH",
"414 617 LINE SMOOTH",
"252 670 OFFCURVE",
"148 785 OFFCURVE",
"148 975 CURVE SMOOTH",
"148 1227 OFFCURVE",
"345 1358 OFFCURVE",
"613 1358 CURVE SMOOTH",
"773 1358 OFFCURVE",
"923 1320 OFFCURVE",
"1044 1251 CURVE",
"962 1035 LINE",
"870 1075 OFFCURVE",
"743 1128 OFFCURVE",
"624 1128 CURVE SMOOTH",
"491 1128 OFFCURVE",
"417 1087 OFFCURVE",
"417 980 CURVE SMOOTH",
"417 915 OFFCURVE",
"454 873 OFFCURVE",
"515 853 CURVE SMOOTH",
"723 783 LINE SMOOTH",
"958 705 OFFCURVE",
"1063 598 OFFCURVE",
"1063 381 CURVE SMOOTH"
);
},
{
closed = 1;
nodes = (
"1063 119 OFFCURVE",
"859 -18 OFFCURVE",
"570 -18 CURVE SMOOTH",
"394 -18 OFFCURVE",
"241 21 OFFCURVE",
"125 87 CURVE",
"208 303 LINE",
"285 253 OFFCURVE",
"448 210 OFFCURVE",
"580 210 CURVE SMOOTH",
"721 210 OFFCURVE",
"790 262 OFFCURVE",
"790 385 CURVE SMOOTH",
"790 464 OFFCURVE",
"735 512 OFFCURVE",
"638 544 CURVE SMOOTH",
"414 617 LINE SMOOTH",
"252 670 OFFCURVE",
"148 785 OFFCURVE",
"148 975 CURVE SMOOTH",
"148 1227 OFFCURVE",
"345 1358 OFFCURVE",
"613 1358 CURVE SMOOTH",
"773 1358 OFFCURVE",
"923 1320 OFFCURVE",
"1044 1251 CURVE",
"962 1035 LINE",
"870 1075 OFFCURVE",
"743 1128 OFFCURVE",
"624 1128 CURVE SMOOTH",
"491 1128 OFFCURVE",
"417 1087 OFFCURVE",
"417 980 CURVE SMOOTH",
"417 915 OFFCURVE",
"454 873 OFFCURVE",
"515 853 CURVE SMOOTH",
"723 783 LINE SMOOTH",
"958 705 OFFCURVE",
"1063 598 OFFCURVE",
"1063 381 CURVE SMOOTH"
);
},
{
closed = 1;
nodes = (
"1063 119 OFFCURVE",
"859 -18 OFFCURVE",
"570 -18 CURVE SMOOTH",
"394 -18 OFFCURVE",
"241 21 OFFCURVE",
"125 87 CURVE",
"208 303 LINE",
"285 253 OFFCURVE",
"448 210 OFFCURVE",
"580 210 CURVE SMOOTH",
"721 210 OFFCURVE",
"790 262 OFFCURVE",
"790 385 CURVE SMOOTH",
"790 464 OFFCURVE",
"735 512 OFFCURVE",
"638 544 CURVE SMOOTH",
"414 617 LINE SMOOTH",
"252 670 OFFCURVE",
"148 785 OFFCURVE",
"148 975 CURVE SMOOTH",
"148 1227 OFFCURVE",
"345 1358 OFFCURVE",
"613 1358 CURVE SMOOTH",
"773 1358 OFFCURVE",
"923 1320 OFFCURVE",
"1044 1251 CURVE",
"962 1035 LINE",
"870 1075 OFFCURVE",
"743 1128 OFFCURVE",
"624 1128 CURVE SMOOTH",
"491 1128 OFFCURVE",
"417 1087 OFFCURVE",
"417 980 CURVE SMOOTH",
"417 915 OFFCURVE",
"454 873 OFFCURVE",
"515 853 CURVE SMOOTH",
"723 783 LINE SMOOTH",
"958 705 OFFCURVE",
"1063 598 OFFCURVE",
"1063 381 CURVE SMOOTH"
);
},
{
closed = 1;
nodes = (
"1063 119 OFFCURVE",
"859 -18 OFFCURVE",
"570 -18 CURVE SMOOTH",
"394 -18 OFFCURVE",
"241 21 OFFCURVE",
"125 87 CURVE",
"208 303 LINE",
"285 253 OFFCURVE",
"448 210 OFFCURVE",
"580 210 CURVE SMOOTH",
"721 210 OFFCURVE",
"790 262 OFFCURVE",
"790 385 CURVE SMOOTH",
"790 464 OFFCURVE",
"735 512 OFFCURVE",
"638 544 CURVE SMOOTH",
"414 617 LINE SMOOTH",
"252 670 OFFCURVE",
"148 785 OFFCURVE",
"148 975 CURVE SMOOTH",
"148 1227 OFFCURVE",
"345 1358 OFFCURVE",
"613 1358 CURVE SMOOTH",
"773 1358 OFFCURVE",
"923 1320 OFFCURVE",
"1044 1251 CURVE",
"962 1035 LINE",
"870 1075 OFFCURVE",
"743 1128 OFFCURVE",
"624 1128 CURVE SMOOTH",
"491 1128 OFFCURVE",
"417 1087 OFFCURVE",
"417 980 CURVE SMOOTH",
"417 915 OFFCURVE",
"454 873 OFFCURVE",
"515 853 CURVE SMOOTH",
"723 783 LINE SMOOTH",
"958 705 OFFCURVE",
"1063 598 OFFCURVE",
"1063 381 CURVE SMOOTH"
);
},
{
closed = 1;
nodes = (
"1063 119 OFFCURVE",
"859 -18 OFFCURVE",
"570 -18 CURVE SMOOTH",
"394 -18 OFFCURVE",
"241 21 OFFCURVE",
"125 87 CURVE",
"208 303 LINE",
"285 253 OFFCURVE",
"448 210 OFFCURVE",
"580 210 CURVE SMOOTH",
"721 210 OFFCURVE",
"790 262 OFFCURVE",
"790 385 CURVE SMOOTH",
"790 464 OFFCURVE",
"735 512 OFFCURVE",
"638 544 CURVE SMOOTH",
"414 617 LINE SMOOTH",
"252 670 OFFCURVE",
"148 785 OFFCURVE",
"148 975 CURVE SMOOTH",
"148 1227 OFFCURVE",
"345 1358 OFFCURVE",
"613 1358 CURVE SMOOTH",
"773 1358 OFFCURVE",
"923 1320 OFFCURVE",
"1044 1251 CURVE",
"962 1035 LINE",
"870 1075 OFFCURVE",
"743 1128 OFFCURVE",
"624 1128 CURVE SMOOTH",
"491 1128 OFFCURVE",
"417 1087 OFFCURVE",
"417 980 CURVE SMOOTH",
"417 915 OFFCURVE",
"454 873 OFFCURVE",
"515 853 CURVE SMOOTH",
"723 783 LINE SMOOTH",
"958 705 OFFCURVE",
"1063 598 OFFCURVE",
"1063 381 CURVE SMOOTH"
);
},
{
closed = 1;
nodes = (
"1063 119 OFFCURVE",
"859 -18 OFFCURVE",
"570 -18 CURVE SMOOTH",
"394 -18 OFFCURVE",
"241 21 OFFCURVE",
"125 87 CURVE",
"208 303 LINE",
"285 253 OFFCURVE",
"448 210 OFFCURVE",
"580 210 CURVE SMOOTH",
"721 210 OFFCURVE",
"790 262 OFFCURVE",
"790 385 CURVE SMOOTH",
"790 464 OFFCURVE",
"735 512 OFFCURVE",
"638 544 CURVE SMOOTH",
"414 617 LINE SMOOTH",
"252 670 OFFCURVE",
"148 785 OFFCURVE",
"148 975 CURVE SMOOTH",
"148 1227 OFFCURVE",
"345 1358 OFFCURVE",
"613 1358 CURVE SMOOTH",
"773 1358 OFFCURVE",
"923 1320 OFFCURVE",
"1044 1251 CURVE",
"962 1035 LINE",
"870 1075 OFFCURVE",
"743 1128 OFFCURVE",
"624 1128 CURVE SMOOTH",
"491 1128 OFFCURVE",
"417 1087 OFFCURVE",
"417 980 CURVE SMOOTH",
"417 915 OFFCURVE",
"454 873 OFFCURVE",
"515 853 CURVE SMOOTH",
"723 783 LINE SMOOTH",
"958 705 OFFCURVE",
"1063 598 OFFCURVE",
"1063 381 CURVE SMOOTH"
);
},
{
closed = 1;
nodes = (
"1063 119 OFFCURVE",
"859 -18 OFFCURVE",
"570 -18 CURVE SMOOTH",
"394 -18 OFFCURVE",
"241 21 OFFCURVE",
"125 87 CURVE",
"208 303 LINE",
"285 253 OFFCURVE",
"448 210 OFFCURVE",
"580 210 CURVE SMOOTH",
"721 210 OFFCURVE",
"790 262 OFFCURVE",
"790 385 CURVE SMOOTH",
"790 464 OFFCURVE",
"735 512 OFFCURVE",
"638 544 CURVE SMOOTH",
"414 617 LINE SMOOTH",
"252 670 OFFCURVE",
"148 785 OFFCURVE",
"148 975 CURVE SMOOTH",
"148 1227 OFFCURVE",
"345 1358 OFFCURVE",
"613 1358 CURVE SMOOTH",
"773 1358 OFFCURVE",
"923 1320 OFFCURVE",
"1044 1251 CURVE",
"962 1035 LINE",
"870 1075 OFFCURVE",
"743 1128 OFFCURVE",
"624 1128 CURVE SMOOTH",
"491 1128 OFFCURVE",
"417 1087 OFFCURVE",
"417 980 CURVE SMOOTH",
"417 915 OFFCURVE",
"454 873 OFFCURVE",
"515 853 CURVE SMOOTH",
"723 783 LINE SMOOTH",
"958 705 OFFCURVE",
"1063 598 OFFCURVE",
"1063 381 CURVE SMOOTH"
);
},
{
closed = 1;
nodes = (
"1063 119 OFFCURVE",
"859 -18 OFFCURVE",
"570 -18 CURVE SMOOTH",
"394 -18 OFFCURVE",
"241 21 OFFCURVE",
"125 87 CURVE",
"208 303 LINE",
"285 253 OFFCURVE",
"448 210 OFFCURVE",
"580 210 CURVE SMOOTH",
"721 210 OFFCURVE",
"790 262 OFFCURVE",
"790 385 CURVE SMOOTH",
"790 464 OFFCURVE",
"735 512 OFFCURVE",
"638 544 CURVE SMOOTH",
"414 617 LINE SMOOTH",
"252 670 OFFCURVE",
"148 785 OFFCURVE",
"148 975 CURVE SMOOTH",
"148 1227 OFFCURVE",
"345 1358 OFFCURVE",
"613 1358 CURVE SMOOTH",
"773 1358 OFFCURVE",
"923 1320 OFFCURVE",
"1044 1251 CURVE",
"962 1035 LINE",
"870 1075 OFFCURVE",
"743 1128 OFFCURVE",
"624 1128 CURVE SMOOTH",
"491 1128 OFFCURVE",
"417 1087 OFFCURVE",
"417 980 CURVE SMOOTH",
"417 915 OFFCURVE",
"454 873 OFFCURVE",
"515 853 CURVE SMOOTH",
"723 783 LINE SMOOTH",
"958 705 OFFCURVE",
"1063 598 OFFCURVE",
"1063 381 CURVE SMOOTH"
);
}
);
width = 1118;
}
);
unicode = 1E60;
},
{
glyphname = uni1E6A;
layers = (
{
layerId = "DC6F5AB8-73F2-4C0B-9A3E-015FFB242135";
name = Bold;
paths = (
{
closed = 1;
nodes = (
"445.5 1421 LINE",
"643.5 1421 LINE",
"643.5 1633 LINE",
"445.5 1633 LINE"
);
},
{
closed = 1;
nodes = (
"435 1421 LINE",
"633 1421 LINE",
"633 1633 LINE",
"435 1633 LINE"
);
},
{
closed = 1;
nodes = (
"435 1421 LINE",
"633 1421 LINE",
"633 1633 LINE",
"435 1633 LINE"
);
},
{
closed = 1;
nodes = (
"1099 1336 LINE",
"65 1336 LINE",
"65 1126 LINE",
"440 1126 LINE",
"440 0 LINE",
"728 0 LINE",
"728 1126 LINE",
"1099 1126 LINE"
);
},
{
closed = 1;
nodes = (
"1099 1336 LINE",
"65 1336 LINE",
"65 1126 LINE",
"440 1126 LINE",
"440 0 LINE",
"728 0 LINE",
"728 1126 LINE",
"1099 1126 LINE"
);
},
{
closed = 1;
nodes = (
"1099 1336 LINE",
"65 1336 LINE",
"65 1126 LINE",
"440 1126 LINE",
"440 0 LINE",
"728 0 LINE",
"728 1126 LINE",
"1099 1126 LINE"
);
}
);
width = 1078;
}
);
unicode = 1E6A;
},
{
glyphname = uni1EBC;
layers = (
{
layerId = "DC6F5AB8-73F2-4C0B-9A3E-015FFB242135";
name = Bold;
paths = (
{
closed = 1;
nodes = (
"241.5 1439 LINE",
"241.5 1533 OFFCURVE",
"255.5 1671 OFFCURVE",
"403.5 1671 CURVE SMOOTH",
"524.5 1671 OFFCURVE",
"659.5 1586 OFFCURVE",
"690.5 1586 CURVE SMOOTH",
"710.5 1587 OFFCURVE",
"722.5 1671 OFFCURVE",
"722.5 1671 CURVE",
"872.5 1671 LINE",
"872.5 1671 OFFCURVE",
"862.5 1429 OFFCURVE",
"714.5 1429 CURVE SMOOTH",
"613.5 1429 OFFCURVE",
"480.5 1519 OFFCURVE",
"423.5 1519 CURVE SMOOTH",
"402.5 1519 OFFCURVE",
"388.5 1429 OFFCURVE",
"388.5 1429 CURVE"
);
},
{
closed = 1;
nodes = (
"221.5 1439 LINE",
"221.5 1533 OFFCURVE",
"235.5 1671 OFFCURVE",
"383.5 1671 CURVE SMOOTH",
"504.5 1671 OFFCURVE",
"639.5 1586 OFFCURVE",
"670.5 1586 CURVE SMOOTH",
"690.5 1587 OFFCURVE",
"702.5 1671 OFFCURVE",
"702.5 1671 CURVE",
"852.5 1671 LINE",
"852.5 1671 OFFCURVE",
"842.5 1429 OFFCURVE",
"694.5 1429 CURVE SMOOTH",
"593.5 1429 OFFCURVE",
"460.5 1519 OFFCURVE",
"403.5 1519 CURVE SMOOTH",
"382.5 1519 OFFCURVE",
"368.5 1429 OFFCURVE",
"368.5 1429 CURVE"
);
},
{
closed = 1;
nodes = (
"242.5 1439 LINE",
"242.5 1533 OFFCURVE",
"256.5 1671 OFFCURVE",
"404.5 1671 CURVE SMOOTH",
"525.5 1671 OFFCURVE",
"660.5 1586 OFFCURVE",
"691.5 1586 CURVE SMOOTH",
"711.5 1587 OFFCURVE",
"723.5 1671 OFFCURVE",
"723.5 1671 CURVE",
"873.5 1671 LINE",
"873.5 1671 OFFCURVE",
"863.5 1429 OFFCURVE",
"715.5 1429 CURVE SMOOTH",
"614.5 1429 OFFCURVE",
"481.5 1519 OFFCURVE",
"424.5 1519 CURVE SMOOTH",
"403.5 1519 OFFCURVE",
"389.5 1429 OFFCURVE",
"389.5 1429 CURVE"
);
},
{
closed = 1;
nodes = (
"231.5 1439 LINE",
"231.5 1533 OFFCURVE",
"245.5 1671 OFFCURVE",
"393.5 1671 CURVE SMOOTH",
"514.5 1671 OFFCURVE",
"649.5 1586 OFFCURVE",
"680.5 1586 CURVE SMOOTH",
"700.5 1587 OFFCURVE",
"712.5 1671 OFFCURVE",
"712.5 1671 CURVE",
"862.5 1671 LINE",
"862.5 1671 OFFCURVE",
"852.5 1429 OFFCURVE",
"704.5 1429 CURVE SMOOTH",
"603.5 1429 OFFCURVE",
"470.5 1519 OFFCURVE",
"413.5 1519 CURVE SMOOTH",
"392.5 1519 OFFCURVE",
"378.5 1429 OFFCURVE",
"378.5 1429 CURVE"
);
},
{
closed = 1;
nodes = (
"232.5 1439 LINE",
"232.5 1533 OFFCURVE",
"246.5 1671 OFFCURVE",
"394.5 1671 CURVE SMOOTH",
"515.5 1671 OFFCURVE",
"650.5 1586 OFFCURVE",
"681.5 1586 CURVE SMOOTH",
"701.5 1587 OFFCURVE",
"713.5 1671 OFFCURVE",
"713.5 1671 CURVE",
"863.5 1671 LINE",
"863.5 1671 OFFCURVE",
"853.5 1429 OFFCURVE",
"705.5 1429 CURVE SMOOTH",
"604.5 1429 OFFCURVE",
"471.5 1519 OFFCURVE",
"414.5 1519 CURVE SMOOTH",
"393.5 1519 OFFCURVE",
"379.5 1429 OFFCURVE",
"379.5 1429 CURVE"
);
},
{
closed = 1;
nodes = (
"221.5 1439 LINE",
"221.5 1533 OFFCURVE",
"235.5 1671 OFFCURVE",
"383.5 1671 CURVE SMOOTH",
"504.5 1671 OFFCURVE",
"639.5 1586 OFFCURVE",
"670.5 1586 CURVE SMOOTH",
"690.5 1587 OFFCURVE",
"702.5 1671 OFFCURVE",
"702.5 1671 CURVE",
"852.5 1671 LINE",
"852.5 1671 OFFCURVE",
"842.5 1429 OFFCURVE",
"694.5 1429 CURVE SMOOTH",
"593.5 1429 OFFCURVE",
"460.5 1519 OFFCURVE",
"403.5 1519 CURVE SMOOTH",
"382.5 1519 OFFCURVE",
"368.5 1429 OFFCURVE",
"368.5 1429 CURVE"
);
},
{
closed = 1;
nodes = (
"490 1126 LINE",
"1021 1126 LINE",
"1032 1336 LINE",
"202 1336 LINE",
"202 0 LINE",
"1025 0 LINE",
"1042 216 LINE",
"490 216 LINE",
"490 595 LINE",
"994 595 LINE",
"994 805 LINE",
"490 805 LINE"
);
},
{
closed = 1;
nodes = (
"490 1126 LINE",
"1021 1126 LINE",
"1032 1336 LINE",
"202 1336 LINE",
"202 0 LINE",
"1025 0 LINE",
"1042 216 LINE",
"490 216 LINE",
"490 595 LINE",
"994 595 LINE",
"994 805 LINE",
"490 805 LINE"
);
},
{
closed = 1;
nodes = (
"490 1126 LINE",
"1021 1126 LINE",
"1032 1336 LINE",
"202 1336 LINE",
"202 0 LINE",
"1025 0 LINE",
"1042 216 LINE",
"490 216 LINE",
"490 595 LINE",
"994 595 LINE",
"994 805 LINE",
"490 805 LINE"
);
},
{
closed = 1;
nodes = (
"490 1126 LINE",
"1021 1126 LINE",
"1032 1336 LINE",
"202 1336 LINE",
"202 0 LINE",
"1025 0 LINE",
"1042 216 LINE",
"490 216 LINE",
"490 595 LINE",
"994 595 LINE",
"994 805 LINE",
"490 805 LINE"
);
},
{
closed = 1;
nodes = (
"490 1126 LINE",
"1021 1126 LINE",
"1032 1336 LINE",
"202 1336 LINE",
"202 0 LINE",
"1025 0 LINE",
"1042 216 LINE",
"490 216 LINE",
"490 595 LINE",
"994 595 LINE",
"994 805 LINE",
"490 805 LINE"
);
},
{
closed = 1;
nodes = (
"490 1126 LINE",
"1021 1126 LINE",
"1032 1336 LINE",
"202 1336 LINE",
"202 0 LINE",
"1025 0 LINE",
"1042 216 LINE",
"490 216 LINE",
"490 595 LINE",
"994 595 LINE",
"994 805 LINE",
"490 805 LINE"
);
}
);
width = 1076;
}
);
unicode = 1EBC;
},
{
glyphname = uni1EF8;
layers = (
{
layerId = "DC6F5AB8-73F2-4C0B-9A3E-015FFB242135";
name = Bold;
paths = (
{
closed = 1;
nodes = (
"268.5 1439 LINE",
"268.5 1533 OFFCURVE",
"282.5 1671 OFFCURVE",
"430.5 1671 CURVE SMOOTH",
"551.5 1671 OFFCURVE",
"686.5 1586 OFFCURVE",
"717.5 1586 CURVE SMOOTH",
"737.5 1587 OFFCURVE",
"749.5 1671 OFFCURVE",
"749.5 1671 CURVE",
"899.5 1671 LINE",
"899.5 1671 OFFCURVE",
"889.5 1429 OFFCURVE",
"741.5 1429 CURVE SMOOTH",
"640.5 1429 OFFCURVE",
"507.5 1519 OFFCURVE",
"450.5 1519 CURVE SMOOTH",
"429.5 1519 OFFCURVE",
"415.5 1429 OFFCURVE",
"415.5 1429 CURVE"
);
},
{
closed = 1;
nodes = (
"278.5 1439 LINE",
"278.5 1533 OFFCURVE",
"292.5 1671 OFFCURVE",
"440.5 1671 CURVE SMOOTH",
"561.5 1671 OFFCURVE",
"696.5 1586 OFFCURVE",
"727.5 1586 CURVE SMOOTH",
"747.5 1587 OFFCURVE",
"759.5 1671 OFFCURVE",
"759.5 1671 CURVE",
"909.5 1671 LINE",
"909.5 1671 OFFCURVE",
"899.5 1429 OFFCURVE",
"751.5 1429 CURVE SMOOTH",
"650.5 1429 OFFCURVE",
"517.5 1519 OFFCURVE",
"460.5 1519 CURVE SMOOTH",
"439.5 1519 OFFCURVE",
"425.5 1429 OFFCURVE",
"425.5 1429 CURVE"
);
},
{
closed = 1;
nodes = (
"273.5 1439 LINE",
"273.5 1533 OFFCURVE",
"287.5 1671 OFFCURVE",
"435.5 1671 CURVE SMOOTH",
"556.5 1671 OFFCURVE",
"691.5 1586 OFFCURVE",
"722.5 1586 CURVE SMOOTH",
"742.5 1587 OFFCURVE",
"754.5 1671 OFFCURVE",
"754.5 1671 CURVE",
"904.5 1671 LINE",
"904.5 1671 OFFCURVE",
"894.5 1429 OFFCURVE",
"746.5 1429 CURVE SMOOTH",
"645.5 1429 OFFCURVE",
"512.5 1519 OFFCURVE",
"455.5 1519 CURVE SMOOTH",
"434.5 1519 OFFCURVE",
"420.5 1429 OFFCURVE",
"420.5 1429 CURVE"
);
},
{
closed = 1;
nodes = (
"269.5 1439 LINE",
"269.5 1533 OFFCURVE",
"283.5 1671 OFFCURVE",
"431.5 1671 CURVE SMOOTH",
"552.5 1671 OFFCURVE",
"687.5 1586 OFFCURVE",
"718.5 1586 CURVE SMOOTH",
"738.5 1587 OFFCURVE",
"750.5 1671 OFFCURVE",
"750.5 1671 CURVE",
"900.5 1671 LINE",
"900.5 1671 OFFCURVE",
"890.5 1429 OFFCURVE",
"742.5 1429 CURVE SMOOTH",
"641.5 1429 OFFCURVE",
"508.5 1519 OFFCURVE",
"451.5 1519 CURVE SMOOTH",
"430.5 1519 OFFCURVE",
"416.5 1429 OFFCURVE",
"416.5 1429 CURVE"
);
},
{
closed = 1;
nodes = (
"274.5 1439 LINE",
"274.5 1533 OFFCURVE",
"288.5 1671 OFFCURVE",
"436.5 1671 CURVE SMOOTH",
"557.5 1671 OFFCURVE",
"692.5 1586 OFFCURVE",
"723.5 1586 CURVE SMOOTH",
"743.5 1587 OFFCURVE",
"755.5 1671 OFFCURVE",
"755.5 1671 CURVE",
"905.5 1671 LINE",
"905.5 1671 OFFCURVE",
"895.5 1429 OFFCURVE",
"747.5 1429 CURVE SMOOTH",
"646.5 1429 OFFCURVE",
"513.5 1519 OFFCURVE",
"456.5 1519 CURVE SMOOTH",
"435.5 1519 OFFCURVE",
"421.5 1429 OFFCURVE",
"421.5 1429 CURVE"
);
},
{
closed = 1;
nodes = (
"267.5 1439 LINE",
"267.5 1533 OFFCURVE",
"281.5 1671 OFFCURVE",
"429.5 1671 CURVE SMOOTH",
"550.5 1671 OFFCURVE",
"685.5 1586 OFFCURVE",
"716.5 1586 CURVE SMOOTH",
"736.5 1587 OFFCURVE",
"748.5 1671 OFFCURVE",
"748.5 1671 CURVE",
"898.5 1671 LINE",
"898.5 1671 OFFCURVE",
"888.5 1429 OFFCURVE",
"740.5 1429 CURVE SMOOTH",
"639.5 1429 OFFCURVE",
"506.5 1519 OFFCURVE",
"449.5 1519 CURVE SMOOTH",
"428.5 1519 OFFCURVE",
"414.5 1429 OFFCURVE",
"414.5 1429 CURVE"
);
},
{
closed = 1;
nodes = (
"275.5 1439 LINE",
"275.5 1533 OFFCURVE",
"289.5 1671 OFFCURVE",
"437.5 1671 CURVE SMOOTH",
"558.5 1671 OFFCURVE",
"693.5 1586 OFFCURVE",
"724.5 1586 CURVE SMOOTH",
"744.5 1587 OFFCURVE",
"756.5 1671 OFFCURVE",
"756.5 1671 CURVE",
"906.5 1671 LINE",
"906.5 1671 OFFCURVE",
"896.5 1429 OFFCURVE",
"748.5 1429 CURVE SMOOTH",
"647.5 1429 OFFCURVE",
"514.5 1519 OFFCURVE",
"457.5 1519 CURVE SMOOTH",
"436.5 1519 OFFCURVE",
"422.5 1429 OFFCURVE",
"422.5 1429 CURVE"
);
},
{
closed = 1;
nodes = (
"270.5 1439 LINE",
"270.5 1533 OFFCURVE",
"284.5 1671 OFFCURVE",
"432.5 1671 CURVE SMOOTH",
"553.5 1671 OFFCURVE",
"688.5 1586 OFFCURVE",
"719.5 1586 CURVE SMOOTH",
"739.5 1587 OFFCURVE",
"751.5 1671 OFFCURVE",
"751.5 1671 CURVE",
"901.5 1671 LINE",
"901.5 1671 OFFCURVE",
"891.5 1429 OFFCURVE",
"743.5 1429 CURVE SMOOTH",
"642.5 1429 OFFCURVE",
"509.5 1519 OFFCURVE",
"452.5 1519 CURVE SMOOTH",
"431.5 1519 OFFCURVE",
"417.5 1429 OFFCURVE",
"417.5 1429 CURVE"
);
},
{
closed = 1;
nodes = (
"276.5 1439 LINE",
"276.5 1533 OFFCURVE",
"290.5 1671 OFFCURVE",
"438.5 1671 CURVE SMOOTH",
"559.5 1671 OFFCURVE",
"694.5 1586 OFFCURVE",
"725.5 1586 CURVE SMOOTH",
"745.5 1587 OFFCURVE",
"757.5 1671 OFFCURVE",
"757.5 1671 CURVE",
"907.5 1671 LINE",
"907.5 1671 OFFCURVE",
"897.5 1429 OFFCURVE",
"749.5 1429 CURVE SMOOTH",
"648.5 1429 OFFCURVE",
"515.5 1519 OFFCURVE",
"458.5 1519 CURVE SMOOTH",
"437.5 1519 OFFCURVE",
"423.5 1429 OFFCURVE",
"423.5 1429 CURVE"
);
},
{
closed = 1;
nodes = (
"279.5 1439 LINE",
"279.5 1533 OFFCURVE",
"293.5 1671 OFFCURVE",
"441.5 1671 CURVE SMOOTH",
"562.5 1671 OFFCURVE",
"697.5 1586 OFFCURVE",
"728.5 1586 CURVE SMOOTH",
"748.5 1587 OFFCURVE",
"760.5 1671 OFFCURVE",
"760.5 1671 CURVE",
"910.5 1671 LINE",
"910.5 1671 OFFCURVE",
"900.5 1429 OFFCURVE",
"752.5 1429 CURVE SMOOTH",
"651.5 1429 OFFCURVE",
"518.5 1519 OFFCURVE",
"461.5 1519 CURVE SMOOTH",
"440.5 1519 OFFCURVE",
"426.5 1429 OFFCURVE",
"426.5 1429 CURVE"
);
},
{
closed = 1;
nodes = (
"277.5 1439 LINE",
"277.5 1533 OFFCURVE",
"291.5 1671 OFFCURVE",
"439.5 1671 CURVE SMOOTH",
"560.5 1671 OFFCURVE",
"695.5 1586 OFFCURVE",
"726.5 1586 CURVE SMOOTH",
"746.5 1587 OFFCURVE",
"758.5 1671 OFFCURVE",
"758.5 1671 CURVE",
"908.5 1671 LINE",
"908.5 1671 OFFCURVE",
"898.5 1429 OFFCURVE",
"750.5 1429 CURVE SMOOTH",
"649.5 1429 OFFCURVE",
"516.5 1519 OFFCURVE",
"459.5 1519 CURVE SMOOTH",
"438.5 1519 OFFCURVE",
"424.5 1429 OFFCURVE",
"424.5 1429 CURVE"
);
},
{
closed = 1;
nodes = (
"271.5 1439 LINE",
"271.5 1533 OFFCURVE",
"285.5 1671 OFFCURVE",
"433.5 1671 CURVE SMOOTH",
"554.5 1671 OFFCURVE",
"689.5 1586 OFFCURVE",
"720.5 1586 CURVE SMOOTH",
"740.5 1587 OFFCURVE",
"752.5 1671 OFFCURVE",
"752.5 1671 CURVE",
"902.5 1671 LINE",
"902.5 1671 OFFCURVE",
"892.5 1429 OFFCURVE",
"744.5 1429 CURVE SMOOTH",
"643.5 1429 OFFCURVE",
"510.5 1519 OFFCURVE",
"453.5 1519 CURVE SMOOTH",
"432.5 1519 OFFCURVE",
"418.5 1429 OFFCURVE",
"418.5 1429 CURVE"
);
},
{
closed = 1;
nodes = (
"272.5 1439 LINE",
"272.5 1533 OFFCURVE",
"286.5 1671 OFFCURVE",
"434.5 1671 CURVE SMOOTH",
"555.5 1671 OFFCURVE",
"690.5 1586 OFFCURVE",
"721.5 1586 CURVE SMOOTH",
"741.5 1587 OFFCURVE",
"753.5 1671 OFFCURVE",
"753.5 1671 CURVE",
"903.5 1671 LINE",
"903.5 1671 OFFCURVE",
"893.5 1429 OFFCURVE",
"745.5 1429 CURVE SMOOTH",
"644.5 1429 OFFCURVE",
"511.5 1519 OFFCURVE",
"454.5 1519 CURVE SMOOTH",
"433.5 1519 OFFCURVE",
"419.5 1429 OFFCURVE",
"419.5 1429 CURVE"
);
},
{
closed = 1;
nodes = (
"623 749 LINE",
"342 1336 LINE",
"39 1336 LINE",
"482 495 LINE",
"482 0 LINE",
"764 0 LINE",
"764 499 LINE",
"1208 1336 LINE",
"910 1336 LINE"
);
},
{
closed = 1;
nodes = (
"623 749 LINE",
"342 1336 LINE",
"39 1336 LINE",
"482 495 LINE",
"482 0 LINE",
"764 0 LINE",
"764 499 LINE",
"1208 1336 LINE",
"910 1336 LINE"
);
},
{
closed = 1;
nodes = (
"623 749 LINE",
"342 1336 LINE",
"39 1336 LINE",
"482 495 LINE",
"482 0 LINE",
"764 0 LINE",
"764 499 LINE",
"1208 1336 LINE",
"910 1336 LINE"
);
},
{
closed = 1;
nodes = (
"623 749 LINE",
"342 1336 LINE",
"39 1336 LINE",
"482 495 LINE",
"482 0 LINE",
"764 0 LINE",
"764 499 LINE",
"1208 1336 LINE",
"910 1336 LINE"
);
},
{
closed = 1;
nodes = (
"623 749 LINE",
"342 1336 LINE",
"39 1336 LINE",
"482 495 LINE",
"482 0 LINE",
"764 0 LINE",
"764 499 LINE",
"1208 1336 LINE",
"910 1336 LINE"
);
},
{
closed = 1;
nodes = (
"623 749 LINE",
"342 1336 LINE",
"39 1336 LINE",
"482 495 LINE",
"482 0 LINE",
"764 0 LINE",
"764 499 LINE",
"1208 1336 LINE",
"910 1336 LINE"
);
},
{
closed = 1;
nodes = (
"623 749 LINE",
"342 1336 LINE",
"39 1336 LINE",
"482 495 LINE",
"482 0 LINE",
"764 0 LINE",
"764 499 LINE",
"1208 1336 LINE",
"910 1336 LINE"
);
},
{
closed = 1;
nodes = (
"623 749 LINE",
"342 1336 LINE",
"39 1336 LINE",
"482 495 LINE",
"482 0 LINE",
"764 0 LINE",
"764 499 LINE",
"1208 1336 LINE",
"910 1336 LINE"
);
},
{
closed = 1;
nodes = (
"623 749 LINE",
"342 1336 LINE",
"39 1336 LINE",
"482 495 LINE",
"482 0 LINE",
"764 0 LINE",
"764 499 LINE",
"1208 1336 LINE",
"910 1336 LINE"
);
},
{
closed = 1;
nodes = (
"623 749 LINE",
"342 1336 LINE",
"39 1336 LINE",
"482 495 LINE",
"482 0 LINE",
"764 0 LINE",
"764 499 LINE",
"1208 1336 LINE",
"910 1336 LINE"
);
},
{
closed = 1;
nodes = (
"623 749 LINE",
"342 1336 LINE",
"39 1336 LINE",
"482 495 LINE",
"482 0 LINE",
"764 0 LINE",
"764 499 LINE",
"1208 1336 LINE",
"910 1336 LINE"
);
},
{
closed = 1;
nodes = (
"623 749 LINE",
"342 1336 LINE",
"39 1336 LINE",
"482 495 LINE",
"482 0 LINE",
"764 0 LINE",
"764 499 LINE",
"1208 1336 LINE",
"910 1336 LINE"
);
},
{
closed = 1;
nodes = (
"623 749 LINE",
"342 1336 LINE",
"39 1336 LINE",
"482 495 LINE",
"482 0 LINE",
"764 0 LINE",
"764 499 LINE",
"1208 1336 LINE",
"910 1336 LINE"
);
}
);
width = 1172;
}
);
unicode = 1EF8;
},
{
glyphname = a;
lastChange = "2012-12-29 01:08:14 +0000";
layers = (
{
anchors = (
{
name = ogonek;
position = "{997, 10}";
},
{
name = top;
position = "{544, 0}";
}
);
layerId = "DC6F5AB8-73F2-4C0B-9A3E-015FFB242135";
name = Bold;
paths = (
{
closed = 1;
nodes = (
"445 1041 OFFCURVE",
"287 1001 OFFCURVE",
"180 968 CURVE",
"230 791 LINE",
"326 817 OFFCURVE",
"474 852 OFFCURVE",
"561 852 CURVE SMOOTH",
"663 852 OFFCURVE",
"717 807 OFFCURVE",
"717 689 CURVE SMOOTH",
"717 630 LINE",
"652 622 OFFCURVE",
"602 619 OFFCURVE",
"542 612 CURVE SMOOTH",
"289 586 OFFCURVE",
"132 508 OFFCURVE",
"132 284 CURVE SMOOTH",
"132 77 OFFCURVE",
"275 -18 OFFCURVE",
"451 -18 CURVE SMOOTH",
"594 -18 OFFCURVE",
"684 60 OFFCURVE",
"747 153 CURVE",
"756 118 OFFCURVE",
"779 12 OFFCURVE",
"782 0 CURVE",
"972 0 LINE",
"972 660 LINE SMOOTH",
"972 927 OFFCURVE",
"857 1041 OFFCURVE",
"592 1041 CURVE SMOOTH"
);
},
{
closed = 1;
nodes = (
"716 281 LINE",
"699 243 OFFCURVE",
"615 162 OFFCURVE",
"507 162 CURVE SMOOTH",
"423 162 OFFCURVE",
"379 208 OFFCURVE",
"379 287 CURVE SMOOTH",
"379 404 OFFCURVE",
"465 465 OFFCURVE",
"637 480 CURVE SMOOTH",
"716 489 LINE"
);
}
);
width = 1118;
}
);
unicode = 0061;
},
{
glyphname = aacute;
layers = (
{
layerId = "DC6F5AB8-73F2-4C0B-9A3E-015FFB242135";
name = Bold;
paths = (
{
closed = 1;
nodes = (
"483 1163 LINE",
"640 1163 LINE",
"935 1524 LINE",
"643 1524 LINE"
);
},
{
closed = 1;
nodes = (
"401 208 OFFCURVE",
"440 162 OFFCURVE",
"524 162 CURVE SMOOTH",
"632 162 OFFCURVE",
"705 243 OFFCURVE",
"722 281 CURVE",
"722 482 LINE",
"702 480 OFFCURVE",
"643 473 OFFCURVE",
"643 473 CURVE",
"471 458 OFFCURVE",
"401 404 OFFCURVE",
"401 287 CURVE SMOOTH"
);
},
{
closed = 1;
nodes = (
"690 60 OFFCURVE",
"607 -18 OFFCURVE",
"464 -18 CURVE SMOOTH",
"288 -18 OFFCURVE",
"145 77 OFFCURVE",
"145 284 CURVE SMOOTH",
"145 508 OFFCURVE",
"300 595 OFFCURVE",
"553 621 CURVE SMOOTH",
"613 628 OFFCURVE",
"658 633 OFFCURVE",
"723 641 CURVE",
"723 689 LINE SMOOTH",
"723 807 OFFCURVE",
"674 852 OFFCURVE",
"572 852 CURVE SMOOTH",
"485 852 OFFCURVE",
"344 817 OFFCURVE",
"243 776 CURVE",
"238 790 OFFCURVE",
"189 940 OFFCURVE",
"183 953 CURVE",
"304 1004 OFFCURVE",
"451 1041 OFFCURVE",
"598 1041 CURVE SMOOTH",
"863 1041 OFFCURVE",
"978 927 OFFCURVE",
"978 660 CURVE SMOOTH",
"978 0 LINE",
"788 0 LINE",
"785 12 OFFCURVE",
"762 118 OFFCURVE",
"753 153 CURVE"
);
}
);
width = 1137;
}
);
unicode = 00E1;
},
{
glyphname = abreve;
layers = (
{
layerId = "DC6F5AB8-73F2-4C0B-9A3E-015FFB242135";
name = Bold;
paths = (
{
closed = 1;
nodes = (
"830.5 1406 LINE",
"830.5 1240 OFFCURVE",
"713.5 1163 OFFCURVE",
"560.5 1163 CURVE SMOOTH",
"408.5 1163 OFFCURVE",
"292.5 1241 OFFCURVE",
"292.5 1406 CURVE",
"460.5 1406 LINE",
"460.5 1345 OFFCURVE",
"486.5 1321 OFFCURVE",
"560.5 1321 CURVE SMOOTH",
"634.5 1321 OFFCURVE",
"661.5 1345 OFFCURVE",
"661.5 1406 CURVE"
);
},
{
closed = 1;
nodes = (
"401 208 OFFCURVE",
"440 162 OFFCURVE",
"524 162 CURVE SMOOTH",
"632 162 OFFCURVE",
"705 243 OFFCURVE",
"722 281 CURVE",
"722 482 LINE",
"702 480 OFFCURVE",
"643 473 OFFCURVE",
"643 473 CURVE",
"471 458 OFFCURVE",
"401 404 OFFCURVE",
"401 287 CURVE SMOOTH"
);
},
{
closed = 1;
nodes = (
"690 60 OFFCURVE",
"607 -18 OFFCURVE",
"464 -18 CURVE SMOOTH",
"288 -18 OFFCURVE",
"145 77 OFFCURVE",
"145 284 CURVE SMOOTH",
"145 508 OFFCURVE",
"300 595 OFFCURVE",
"553 621 CURVE SMOOTH",
"613 628 OFFCURVE",
"658 633 OFFCURVE",
"723 641 CURVE",
"723 689 LINE SMOOTH",
"723 807 OFFCURVE",
"674 852 OFFCURVE",
"572 852 CURVE SMOOTH",
"485 852 OFFCURVE",
"344 817 OFFCURVE",
"243 776 CURVE",
"238 790 OFFCURVE",
"189 940 OFFCURVE",
"183 953 CURVE",
"304 1004 OFFCURVE",
"451 1041 OFFCURVE",
"598 1041 CURVE SMOOTH",
"863 1041 OFFCURVE",
"978 927 OFFCURVE",
"978 660 CURVE SMOOTH",
"978 0 LINE",
"788 0 LINE",
"785 12 OFFCURVE",
"762 118 OFFCURVE",
"753 153 CURVE"
);
}
);
width = 1137;
}
);
unicode = 0103;
},
{
glyphname = acircumflex;
layers = (
{
layerId = "DC6F5AB8-73F2-4C0B-9A3E-015FFB242135";
name = Bold;
paths = (
{
closed = 1;
nodes = (
"228 1163 LINE",
"409 1163 LINE",
"551 1357 LINE",
"709 1163 LINE",
"895 1163 LINE",
"659 1531 LINE",
"463 1531 LINE"
);
},
{
closed = 1;
nodes = (
"401 208 OFFCURVE",
"440 162 OFFCURVE",
"524 162 CURVE SMOOTH",
"632 162 OFFCURVE",
"705 243 OFFCURVE",
"722 281 CURVE",
"722 482 LINE",
"702 480 OFFCURVE",
"643 473 OFFCURVE",
"643 473 CURVE",
"471 458 OFFCURVE",
"401 404 OFFCURVE",
"401 287 CURVE SMOOTH"
);
},
{
closed = 1;
nodes = (
"690 60 OFFCURVE",
"607 -18 OFFCURVE",
"464 -18 CURVE SMOOTH",
"288 -18 OFFCURVE",
"145 77 OFFCURVE",
"145 284 CURVE SMOOTH",
"145 508 OFFCURVE",
"300 595 OFFCURVE",
"553 621 CURVE SMOOTH",
"613 628 OFFCURVE",
"658 633 OFFCURVE",
"723 641 CURVE",
"723 689 LINE SMOOTH",
"723 807 OFFCURVE",
"674 852 OFFCURVE",
"572 852 CURVE SMOOTH",
"485 852 OFFCURVE",
"344 817 OFFCURVE",
"243 776 CURVE",
"238 790 OFFCURVE",
"189 940 OFFCURVE",
"183 953 CURVE",
"304 1004 OFFCURVE",
"451 1041 OFFCURVE",
"598 1041 CURVE SMOOTH",
"863 1041 OFFCURVE",
"978 927 OFFCURVE",
"978 660 CURVE SMOOTH",
"978 0 LINE",
"788 0 LINE",
"785 12 OFFCURVE",
"762 118 OFFCURVE",
"753 153 CURVE"
);
}
);
width = 1137;
}
);
unicode = 00E2;
},
{
glyphname = adieresis;
layers = (
{
layerId = "DC6F5AB8-73F2-4C0B-9A3E-015FFB242135";
name = Bold;
paths = (
{
closed = 1;
nodes = (
"653 1163 LINE",
"846 1163 LINE",
"846 1408 LINE",
"653 1408 LINE"
);
},
{
closed = 1;
nodes = (
"277 1163 LINE",
"471 1163 LINE",
"471 1408 LINE",
"277 1408 LINE"
);
},
{
closed = 1;
nodes = (
"401 208 OFFCURVE",
"440 162 OFFCURVE",
"524 162 CURVE SMOOTH",
"632 162 OFFCURVE",
"705 243 OFFCURVE",
"722 281 CURVE",
"722 482 LINE",
"702 480 OFFCURVE",
"643 473 OFFCURVE",
"643 473 CURVE",
"471 458 OFFCURVE",
"401 404 OFFCURVE",
"401 287 CURVE SMOOTH"
);
},
{
closed = 1;
nodes = (
"690 60 OFFCURVE",
"607 -18 OFFCURVE",
"464 -18 CURVE SMOOTH",
"288 -18 OFFCURVE",
"145 77 OFFCURVE",
"145 284 CURVE SMOOTH",
"145 508 OFFCURVE",
"300 595 OFFCURVE",
"553 621 CURVE SMOOTH",
"613 628 OFFCURVE",
"658 633 OFFCURVE",
"723 641 CURVE",
"723 689 LINE SMOOTH",
"723 807 OFFCURVE",
"674 852 OFFCURVE",
"572 852 CURVE SMOOTH",
"485 852 OFFCURVE",
"344 817 OFFCURVE",
"243 776 CURVE",
"238 790 OFFCURVE",
"189 940 OFFCURVE",
"183 953 CURVE",
"304 1004 OFFCURVE",
"451 1041 OFFCURVE",
"598 1041 CURVE SMOOTH",
"863 1041 OFFCURVE",
"978 927 OFFCURVE",
"978 660 CURVE SMOOTH",
"978 0 LINE",
"788 0 LINE",
"785 12 OFFCURVE",
"762 118 OFFCURVE",
"753 153 CURVE"
);
}
);
width = 1137;
}
);
unicode = 00E4;
},
{
glyphname = agrave;
layers = (
{
layerId = "DC6F5AB8-73F2-4C0B-9A3E-015FFB242135";
name = Bold;
paths = (
{
closed = 1;
nodes = (
"479 1163 LINE",
"644 1163 LINE",
"467 1524 LINE",
"168 1524 LINE"
);
},
{
closed = 1;
nodes = (
"401 208 OFFCURVE",
"440 162 OFFCURVE",
"524 162 CURVE SMOOTH",
"632 162 OFFCURVE",
"705 243 OFFCURVE",
"722 281 CURVE",
"722 482 LINE",
"702 480 OFFCURVE",
"643 473 OFFCURVE",
"643 473 CURVE",
"471 458 OFFCURVE",
"401 404 OFFCURVE",
"401 287 CURVE SMOOTH"
);
},
{
closed = 1;
nodes = (
"690 60 OFFCURVE",
"607 -18 OFFCURVE",
"464 -18 CURVE SMOOTH",
"288 -18 OFFCURVE",
"145 77 OFFCURVE",
"145 284 CURVE SMOOTH",
"145 508 OFFCURVE",
"300 595 OFFCURVE",
"553 621 CURVE SMOOTH",
"613 628 OFFCURVE",
"658 633 OFFCURVE",
"723 641 CURVE",
"723 689 LINE SMOOTH",
"723 807 OFFCURVE",
"674 852 OFFCURVE",
"572 852 CURVE SMOOTH",
"485 852 OFFCURVE",
"344 817 OFFCURVE",
"243 776 CURVE",
"238 790 OFFCURVE",
"189 940 OFFCURVE",
"183 953 CURVE",
"304 1004 OFFCURVE",
"451 1041 OFFCURVE",
"598 1041 CURVE SMOOTH",
"863 1041 OFFCURVE",
"978 927 OFFCURVE",
"978 660 CURVE SMOOTH",
"978 0 LINE",
"788 0 LINE",
"785 12 OFFCURVE",
"762 118 OFFCURVE",
"753 153 CURVE"
);
}
);
width = 1137;
}
);
unicode = 00E0;
},
{
glyphname = amacron;
layers = (
{
layerId = "DC6F5AB8-73F2-4C0B-9A3E-015FFB242135";
name = Bold;
paths = (
{
closed = 1;
nodes = (
"237 1163 LINE",
"886 1163 LINE",
"886 1322 LINE",
"237 1322 LINE"
);
},
{
closed = 1;
nodes = (
"401 208 OFFCURVE",
"440 162 OFFCURVE",
"524 162 CURVE SMOOTH",
"632 162 OFFCURVE",
"705 243 OFFCURVE",
"722 281 CURVE",
"722 482 LINE",
"702 480 OFFCURVE",
"643 473 OFFCURVE",
"643 473 CURVE",
"471 458 OFFCURVE",
"401 404 OFFCURVE",
"401 287 CURVE SMOOTH"
);
},
{
closed = 1;
nodes = (
"690 60 OFFCURVE",
"607 -18 OFFCURVE",
"464 -18 CURVE SMOOTH",
"288 -18 OFFCURVE",
"145 77 OFFCURVE",
"145 284 CURVE SMOOTH",
"145 508 OFFCURVE",
"300 595 OFFCURVE",
"553 621 CURVE SMOOTH",
"613 628 OFFCURVE",
"658 633 OFFCURVE",
"723 641 CURVE",
"723 689 LINE SMOOTH",
"723 807 OFFCURVE",
"674 852 OFFCURVE",
"572 852 CURVE SMOOTH",
"485 852 OFFCURVE",
"344 817 OFFCURVE",
"243 776 CURVE",
"238 790 OFFCURVE",
"189 940 OFFCURVE",
"183 953 CURVE",
"304 1004 OFFCURVE",
"451 1041 OFFCURVE",
"598 1041 CURVE SMOOTH",
"863 1041 OFFCURVE",
"978 927 OFFCURVE",
"978 660 CURVE SMOOTH",
"978 0 LINE",
"788 0 LINE",
"785 12 OFFCURVE",
"762 118 OFFCURVE",
"753 153 CURVE"
);
}
);
width = 1137;
}
);
unicode = 0101;
},
{
glyphname = aogonek;
layers = (
{
layerId = "DC6F5AB8-73F2-4C0B-9A3E-015FFB242135";
name = Bold;
paths = (
{
closed = 1;
nodes = (
"614 -357 OFFCURVE",
"705 -411 OFFCURVE",
"809 -411 CURVE SMOOTH",
"868 -411 OFFCURVE",
"929 -396 OFFCURVE",
"984 -375 CURVE",
"984 -375 OFFCURVE",
"977 -234 OFFCURVE",
"976 -234 CURVE",
"964 -239 OFFCURVE",
"905 -265 OFFCURVE",
"853 -265 CURVE SMOOTH",
"815 -265 OFFCURVE",
"789 -230 OFFCURVE",
"789 -196 CURVE SMOOTH",
"789 -141 OFFCURVE",
"821 -77 OFFCURVE",
"895 -20 CURVE",
"788 -4 LINE",
"717 -45 OFFCURVE",
"614 -120 OFFCURVE",
"614 -243 CURVE SMOOTH"
);
},
{
closed = 1;
nodes = (
"401 208 OFFCURVE",
"440 162 OFFCURVE",
"524 162 CURVE SMOOTH",
"632 162 OFFCURVE",
"705 243 OFFCURVE",
"722 281 CURVE",
"722 482 LINE",
"702 480 OFFCURVE",
"643 473 OFFCURVE",
"643 473 CURVE",
"471 458 OFFCURVE",
"401 404 OFFCURVE",
"401 287 CURVE SMOOTH"
);
},
{
closed = 1;
nodes = (
"690 60 OFFCURVE",
"607 -18 OFFCURVE",
"464 -18 CURVE SMOOTH",
"288 -18 OFFCURVE",
"145 77 OFFCURVE",
"145 284 CURVE SMOOTH",
"145 508 OFFCURVE",
"300 595 OFFCURVE",
"553 621 CURVE SMOOTH",
"613 628 OFFCURVE",
"658 633 OFFCURVE",
"723 641 CURVE",
"723 689 LINE SMOOTH",
"723 807 OFFCURVE",
"674 852 OFFCURVE",
"572 852 CURVE SMOOTH",
"485 852 OFFCURVE",
"344 817 OFFCURVE",
"243 776 CURVE",
"238 790 OFFCURVE",
"189 940 OFFCURVE",
"183 953 CURVE",
"304 1004 OFFCURVE",
"451 1041 OFFCURVE",
"598 1041 CURVE SMOOTH",
"863 1041 OFFCURVE",
"978 927 OFFCURVE",
"978 660 CURVE SMOOTH",
"978 0 LINE",
"788 0 LINE",
"785 12 OFFCURVE",
"762 118 OFFCURVE",
"753 153 CURVE"
);
}
);
width = 1137;
}
);
unicode = 0105;
},
{
glyphname = aring;
layers = (
{
layerId = "DC6F5AB8-73F2-4C0B-9A3E-015FFB242135";
name = Bold;
paths = (
{
closed = 1;
nodes = (
"355.5 1256 OFFCURVE",
"432.5 1163 OFFCURVE",
"561.5 1163 CURVE SMOOTH",
"690.5 1163 OFFCURVE",
"767.5 1256 OFFCURVE",
"767.5 1359 CURVE SMOOTH",
"767.5 1461 OFFCURVE",
"692.5 1554 OFFCURVE",
"561.5 1554 CURVE SMOOTH",
"431.5 1554 OFFCURVE",
"355.5 1462 OFFCURVE",
"355.5 1359 CURVE SMOOTH"
);
},
{
closed = 1;
nodes = (
"647.5 1308 OFFCURVE",
"616.5 1264 OFFCURVE",
"561.5 1264 CURVE SMOOTH",
"504.5 1264 OFFCURVE",
"476.5 1307 OFFCURVE",
"476.5 1359 CURVE SMOOTH",
"476.5 1407 OFFCURVE",
"508.5 1454 OFFCURVE",
"561.5 1454 CURVE SMOOTH",
"616.5 1454 OFFCURVE",
"647.5 1408 OFFCURVE",
"647.5 1359 CURVE SMOOTH"
);
},
{
closed = 1;
nodes = (
"401 208 OFFCURVE",
"440 162 OFFCURVE",
"524 162 CURVE SMOOTH",
"632 162 OFFCURVE",
"705 243 OFFCURVE",
"722 281 CURVE",
"722 482 LINE",
"702 480 OFFCURVE",
"643 473 OFFCURVE",
"643 473 CURVE",
"471 458 OFFCURVE",
"401 404 OFFCURVE",
"401 287 CURVE SMOOTH"
);
},
{
closed = 1;
nodes = (
"690 60 OFFCURVE",
"607 -18 OFFCURVE",
"464 -18 CURVE SMOOTH",
"288 -18 OFFCURVE",
"145 77 OFFCURVE",
"145 284 CURVE SMOOTH",
"145 508 OFFCURVE",
"300 595 OFFCURVE",
"553 621 CURVE SMOOTH",
"613 628 OFFCURVE",
"658 633 OFFCURVE",
"723 641 CURVE",
"723 689 LINE SMOOTH",
"723 807 OFFCURVE",
"674 852 OFFCURVE",
"572 852 CURVE SMOOTH",
"485 852 OFFCURVE",
"344 817 OFFCURVE",
"243 776 CURVE",
"238 790 OFFCURVE",
"189 940 OFFCURVE",
"183 953 CURVE",
"304 1004 OFFCURVE",
"451 1041 OFFCURVE",
"598 1041 CURVE SMOOTH",
"863 1041 OFFCURVE",
"978 927 OFFCURVE",
"978 660 CURVE SMOOTH",
"978 0 LINE",
"788 0 LINE",
"785 12 OFFCURVE",
"762 118 OFFCURVE",
"753 153 CURVE"
);
}
);
width = 1137;
}
);
unicode = 00E5;
},
{
glyphname = aringacute;
layers = (
{
layerId = "DC6F5AB8-73F2-4C0B-9A3E-015FFB242135";
name = Bold;
paths = (
{
closed = 1;
nodes = (
"483 1676 LINE",
"640 1676 LINE",
"935 2037 LINE",
"643 2037 LINE"
);
},
{
closed = 1;
nodes = (
"355.5 1256 OFFCURVE",
"432.5 1163 OFFCURVE",
"561.5 1163 CURVE SMOOTH",
"690.5 1163 OFFCURVE",
"767.5 1256 OFFCURVE",
"767.5 1359 CURVE SMOOTH",
"767.5 1461 OFFCURVE",
"692.5 1554 OFFCURVE",
"561.5 1554 CURVE SMOOTH",
"431.5 1554 OFFCURVE",
"355.5 1462 OFFCURVE",
"355.5 1359 CURVE SMOOTH"
);
},
{
closed = 1;
nodes = (
"647.5 1308 OFFCURVE",
"616.5 1264 OFFCURVE",
"561.5 1264 CURVE SMOOTH",
"504.5 1264 OFFCURVE",
"476.5 1307 OFFCURVE",
"476.5 1359 CURVE SMOOTH",
"476.5 1407 OFFCURVE",
"508.5 1454 OFFCURVE",
"561.5 1454 CURVE SMOOTH",
"616.5 1454 OFFCURVE",
"647.5 1408 OFFCURVE",
"647.5 1359 CURVE SMOOTH"
);
},
{
closed = 1;
nodes = (
"401 208 OFFCURVE",
"440 162 OFFCURVE",
"524 162 CURVE SMOOTH",
"632 162 OFFCURVE",
"705 243 OFFCURVE",
"722 281 CURVE",
"722 482 LINE",
"702 480 OFFCURVE",
"643 473 OFFCURVE",
"643 473 CURVE",
"471 458 OFFCURVE",
"401 404 OFFCURVE",
"401 287 CURVE SMOOTH"
);
},
{
closed = 1;
nodes = (
"690 60 OFFCURVE",
"607 -18 OFFCURVE",
"464 -18 CURVE SMOOTH",
"288 -18 OFFCURVE",
"145 77 OFFCURVE",
"145 284 CURVE SMOOTH",
"145 508 OFFCURVE",
"300 595 OFFCURVE",
"553 621 CURVE SMOOTH",
"613 628 OFFCURVE",
"658 633 OFFCURVE",
"723 641 CURVE",
"723 689 LINE SMOOTH",
"723 807 OFFCURVE",
"674 852 OFFCURVE",
"572 852 CURVE SMOOTH",
"485 852 OFFCURVE",
"344 817 OFFCURVE",
"243 776 CURVE",
"238 790 OFFCURVE",
"189 940 OFFCURVE",
"183 953 CURVE",
"304 1004 OFFCURVE",
"451 1041 OFFCURVE",
"598 1041 CURVE SMOOTH",
"863 1041 OFFCURVE",
"978 927 OFFCURVE",
"978 660 CURVE SMOOTH",
"978 0 LINE",
"788 0 LINE",
"785 12 OFFCURVE",
"762 118 OFFCURVE",
"753 153 CURVE"
);
}
);
width = 1137;
}
);
unicode = 01FB;
},
{
glyphname = atilde;
layers = (
{
layerId = "DC6F5AB8-73F2-4C0B-9A3E-015FFB242135";
name = Bold;
paths = (
{
closed = 1;
nodes = (
"246 1173 LINE",
"246 1267 OFFCURVE",
"260 1405 OFFCURVE",
"408 1405 CURVE SMOOTH",
"529 1405 OFFCURVE",
"664 1320 OFFCURVE",
"695 1320 CURVE SMOOTH",
"715 1321 OFFCURVE",
"727 1405 OFFCURVE",
"727 1405 CURVE",
"877 1405 LINE",
"877 1405 OFFCURVE",
"867 1163 OFFCURVE",
"719 1163 CURVE SMOOTH",
"618 1163 OFFCURVE",
"485 1253 OFFCURVE",
"428 1253 CURVE SMOOTH",
"407 1253 OFFCURVE",
"393 1163 OFFCURVE",
"393 1163 CURVE"
);
},
{
closed = 1;
nodes = (
"401 208 OFFCURVE",
"440 162 OFFCURVE",
"524 162 CURVE SMOOTH",
"632 162 OFFCURVE",
"705 243 OFFCURVE",
"722 281 CURVE",
"722 482 LINE",
"702 480 OFFCURVE",
"643 473 OFFCURVE",
"643 473 CURVE",
"471 458 OFFCURVE",
"401 404 OFFCURVE",
"401 287 CURVE SMOOTH"
);
},
{
closed = 1;
nodes = (
"690 60 OFFCURVE",
"607 -18 OFFCURVE",
"464 -18 CURVE SMOOTH",
"288 -18 OFFCURVE",
"145 77 OFFCURVE",
"145 284 CURVE SMOOTH",
"145 508 OFFCURVE",
"300 595 OFFCURVE",
"553 621 CURVE SMOOTH",
"613 628 OFFCURVE",
"658 633 OFFCURVE",
"723 641 CURVE",
"723 689 LINE SMOOTH",
"723 807 OFFCURVE",
"674 852 OFFCURVE",
"572 852 CURVE SMOOTH",
"485 852 OFFCURVE",
"344 817 OFFCURVE",
"243 776 CURVE",
"238 790 OFFCURVE",
"189 940 OFFCURVE",
"183 953 CURVE",
"304 1004 OFFCURVE",
"451 1041 OFFCURVE",
"598 1041 CURVE SMOOTH",
"863 1041 OFFCURVE",
"978 927 OFFCURVE",
"978 660 CURVE SMOOTH",
"978 0 LINE",
"788 0 LINE",
"785 12 OFFCURVE",
"762 118 OFFCURVE",
"753 153 CURVE"
);
}
);
width = 1137;
}
);
unicode = 00E3;
},
{
glyphname = ae;
layers = (
{
anchors = (
{
name = top;
position = "{739, 0}";
}
);
layerId = "DC6F5AB8-73F2-4C0B-9A3E-015FFB242135";
name = Bold;
paths = (
{
closed = 1;
nodes = (
"976 859 OFFCURVE",
"868 805 OFFCURVE",
"849 614 CURVE",
"1215 646 LINE",
"1215 665 LINE SMOOTH",
"1215 757 OFFCURVE",
"1189 859 OFFCURVE",
"1071 859 CURVE SMOOTH"
);
},
{
closed = 1;
nodes = (
"287 196 OFFCURVE",
"325 153 OFFCURVE",
"402 153 CURVE SMOOTH",
"489 153 OFFCURVE",
"573 197 OFFCURVE",
"650 256 CURVE",
"639 283 OFFCURVE",
"617 358 OFFCURVE",
"613 421 CURVE",
"595 418 OFFCURVE",
"546 412 OFFCURVE",
"544 412 CURVE SMOOTH",
"543 412 LINE",
"367 392 OFFCURVE",
"287 369 OFFCURVE",
"287 281 CURVE SMOOTH"
);
},
{
closed = 1;
nodes = (
"661 45 OFFCURVE",
"536 -19 OFFCURVE",
"368 -19 CURVE SMOOTH",
"178 -19 OFFCURVE",
"59 119 OFFCURVE",
"59 297 CURVE SMOOTH",
"59 526 OFFCURVE",
"253 552 OFFCURVE",
"542 584 CURVE SMOOTH",
"608 591 LINE",
"608 687 LINE SMOOTH",
"608 802 OFFCURVE",
"578 855 OFFCURVE",
"453 861 CURVE SMOOTH",
"342 861 OFFCURVE",
"221 812 OFFCURVE",
"170 792 CURVE SMOOTH",
"160 788 LINE",
"112 969 LINE",
"119 973 LINE",
"205 1014 OFFCURVE",
"306 1045 OFFCURVE",
"459 1049 CURVE SMOOTH",
"604 1051 OFFCURVE",
"714 1000 OFFCURVE",
"757 901 CURVE",
"823 983 OFFCURVE",
"936 1049 OFFCURVE",
"1073 1049 CURVE SMOOTH",
"1339 1049 OFFCURVE",
"1442 822 OFFCURVE",
"1442 573 CURVE SMOOTH",
"1442 509 OFFCURVE",
"1381 488 OFFCURVE",
"1293 485 CURVE SMOOTH",
"1261 483 OFFCURVE",
"951 458 OFFCURVE",
"848 451 CURVE",
"858 270 OFFCURVE",
"939 170 OFFCURVE",
"1095 168 CURVE SMOOTH",
"1207 168 OFFCURVE",
"1299 206 OFFCURVE",
"1342 240 CURVE",
"1352 247 LINE",
"1424 84 LINE",
"1418 79 LINE",
"1339 22 OFFCURVE",
"1242 -18 OFFCURVE",
"1079 -18 CURVE SMOOTH",
"918 -18 OFFCURVE",
"816 32 OFFCURVE",
"744 119 CURVE"
);
}
);
width = 1478;
}
);
unicode = 00E6;
},
{
glyphname = aeacute;
layers = (
{
layerId = "DC6F5AB8-73F2-4C0B-9A3E-015FFB242135";
name = Bold;
paths = (
{
closed = 1;
nodes = (
"672 1171.06 LINE",
"829 1171.06 LINE",
"1124 1532.06 LINE",
"832 1532.06 LINE"
);
},
{
closed = 1;
nodes = (
"976 859 OFFCURVE",
"868 805 OFFCURVE",
"849 614 CURVE",
"1215 646 LINE",
"1215 665 LINE SMOOTH",
"1215 757 OFFCURVE",
"1189 859 OFFCURVE",
"1071 859 CURVE SMOOTH"
);
},
{
closed = 1;
nodes = (
"287 196 OFFCURVE",
"325 153 OFFCURVE",
"402 153 CURVE SMOOTH",
"489 153 OFFCURVE",
"573 197 OFFCURVE",
"650 256 CURVE",
"639 283 OFFCURVE",
"617 358 OFFCURVE",
"613 421 CURVE",
"595 418 OFFCURVE",
"546 412 OFFCURVE",
"544 412 CURVE SMOOTH",
"543 412 LINE",
"367 392 OFFCURVE",
"287 369 OFFCURVE",
"287 281 CURVE SMOOTH"
);
},
{
closed = 1;
nodes = (
"661 45 OFFCURVE",
"536 -19 OFFCURVE",
"368 -19 CURVE SMOOTH",
"178 -19 OFFCURVE",
"59 119 OFFCURVE",
"59 297 CURVE SMOOTH",
"59 526 OFFCURVE",
"253 552 OFFCURVE",
"542 584 CURVE SMOOTH",
"608 591 LINE",
"608 687 LINE SMOOTH",
"608 802 OFFCURVE",
"578 855 OFFCURVE",
"453 861 CURVE SMOOTH",
"342 861 OFFCURVE",
"221 812 OFFCURVE",
"170 792 CURVE SMOOTH",
"160 788 LINE",
"112 969 LINE",
"119 973 LINE",
"205 1014 OFFCURVE",
"306 1045 OFFCURVE",
"459 1049 CURVE SMOOTH",
"604 1051 OFFCURVE",
"714 1000 OFFCURVE",
"757 901 CURVE",
"823 983 OFFCURVE",
"936 1049 OFFCURVE",
"1073 1049 CURVE SMOOTH",
"1339 1049 OFFCURVE",
"1442 822 OFFCURVE",
"1442 573 CURVE SMOOTH",
"1442 509 OFFCURVE",
"1381 488 OFFCURVE",
"1293 485 CURVE SMOOTH",
"1261 483 OFFCURVE",
"951 458 OFFCURVE",
"848 451 CURVE",
"858 270 OFFCURVE",
"939 170 OFFCURVE",
"1095 168 CURVE SMOOTH",
"1207 168 OFFCURVE",
"1299 206 OFFCURVE",
"1342 240 CURVE",
"1352 247 LINE",
"1424 84 LINE",
"1418 79 LINE",
"1339 22 OFFCURVE",
"1242 -18 OFFCURVE",
"1079 -18 CURVE SMOOTH",
"918 -18 OFFCURVE",
"816 32 OFFCURVE",
"744 119 CURVE"
);
}
);
width = 1478;
}
);
unicode = 01FD;
},
{
glyphname = uni01E3;
layers = (
{
layerId = "DC6F5AB8-73F2-4C0B-9A3E-015FFB242135";
name = Bold;
paths = (
{
closed = 1;
nodes = (
"426 1171.06 LINE",
"1075 1171.06 LINE",
"1075 1330.06 LINE",
"426 1330.06 LINE"
);
},
{
closed = 1;
nodes = (
"976 859 OFFCURVE",
"868 805 OFFCURVE",
"849 614 CURVE",
"1215 646 LINE",
"1215 665 LINE SMOOTH",
"1215 757 OFFCURVE",
"1189 859 OFFCURVE",
"1071 859 CURVE SMOOTH"
);
},
{
closed = 1;
nodes = (
"287 196 OFFCURVE",
"325 153 OFFCURVE",
"402 153 CURVE SMOOTH",
"489 153 OFFCURVE",
"573 197 OFFCURVE",
"650 256 CURVE",
"639 283 OFFCURVE",
"617 358 OFFCURVE",
"613 421 CURVE",
"595 418 OFFCURVE",
"546 412 OFFCURVE",
"544 412 CURVE SMOOTH",
"543 412 LINE",
"367 392 OFFCURVE",
"287 369 OFFCURVE",
"287 281 CURVE SMOOTH"
);
},
{
closed = 1;
nodes = (
"661 45 OFFCURVE",
"536 -19 OFFCURVE",
"368 -19 CURVE SMOOTH",
"178 -19 OFFCURVE",
"59 119 OFFCURVE",
"59 297 CURVE SMOOTH",
"59 526 OFFCURVE",
"253 552 OFFCURVE",
"542 584 CURVE SMOOTH",
"608 591 LINE",
"608 687 LINE SMOOTH",
"608 802 OFFCURVE",
"578 855 OFFCURVE",
"453 861 CURVE SMOOTH",
"342 861 OFFCURVE",
"221 812 OFFCURVE",
"170 792 CURVE SMOOTH",
"160 788 LINE",
"112 969 LINE",
"119 973 LINE",
"205 1014 OFFCURVE",
"306 1045 OFFCURVE",
"459 1049 CURVE SMOOTH",
"604 1051 OFFCURVE",
"714 1000 OFFCURVE",
"757 901 CURVE",
"823 983 OFFCURVE",
"936 1049 OFFCURVE",
"1073 1049 CURVE SMOOTH",
"1339 1049 OFFCURVE",
"1442 822 OFFCURVE",
"1442 573 CURVE SMOOTH",
"1442 509 OFFCURVE",
"1381 488 OFFCURVE",
"1293 485 CURVE SMOOTH",
"1261 483 OFFCURVE",
"951 458 OFFCURVE",
"848 451 CURVE",
"858 270 OFFCURVE",
"939 170 OFFCURVE",
"1095 168 CURVE SMOOTH",
"1207 168 OFFCURVE",
"1299 206 OFFCURVE",
"1342 240 CURVE",
"1352 247 LINE",
"1424 84 LINE",
"1418 79 LINE",
"1339 22 OFFCURVE",
"1242 -18 OFFCURVE",
"1079 -18 CURVE SMOOTH",
"918 -18 OFFCURVE",
"816 32 OFFCURVE",
"744 119 CURVE"
);
}
);
width = 1478;
}
);
unicode = 01E3;
},
{
glyphname = b;
lastChange = "2012-12-29 01:14:19 +0000";
layers = (
{
layerId = "DC6F5AB8-73F2-4C0B-9A3E-015FFB242135";
name = Bold;
paths = (
{
closed = 1;
nodes = (
"164 1376 LINE",
"164 1 LINE",
"385 1 LINE",
"405 127 LINE",
"459 50 OFFCURVE",
"560 -18 OFFCURVE",
"693 -18 CURVE SMOOTH",
"946 -18 OFFCURVE",
"1106 202 OFFCURVE",
"1106 519 CURVE SMOOTH",
"1106 819 OFFCURVE",
"956 1041 OFFCURVE",
"697 1041 CURVE SMOOTH",
"553 1041 OFFCURVE",
"465 969 OFFCURVE",
"414 908 CURVE",
"416 974 OFFCURVE",
"420 1028 OFFCURVE",
"420 1079 CURVE SMOOTH",
"420 1393 LINE"
);
},
{
closed = 1;
nodes = (
"764 845 OFFCURVE",
"850 744 OFFCURVE",
"850 516 CURVE SMOOTH",
"850 290 OFFCURVE",
"761 179 OFFCURVE",
"636 179 CURVE SMOOTH",
"494 179 OFFCURVE",
"415 277 OFFCURVE",
"415 527 CURVE SMOOTH",
"417 757 OFFCURVE",
"504 845 OFFCURVE",
"639 845 CURVE SMOOTH"
);
}
);
width = 1213;
}
);
unicode = 0062;
},
{
glyphname = c;
lastChange = "2012-12-23 11:50:39 +0000";
layers = (
{
anchors = (
{
name = bottom;
position = "{502, 0}";
},
{
name = top;
position = "{502, 0}";
}
);
layerId = "DC6F5AB8-73F2-4C0B-9A3E-015FFB242135";
name = Bold;
paths = (
{
closed = 1;
nodes = (
"328 1041 OFFCURVE",
"108 856 OFFCURVE",
"108 516 CURVE SMOOTH",
"108 193 OFFCURVE",
"311 -18 OFFCURVE",
"602 -18 CURVE SMOOTH",
"787 -18 OFFCURVE",
"864 41 OFFCURVE",
"896 64 CURVE",
"863 247 LINE",
"792 207 OFFCURVE",
"718 178 OFFCURVE",
"628 183 CURVE SMOOTH",
"483 190 OFFCURVE",
"364 292 OFFCURVE",
"364 513 CURVE SMOOTH",
"364 735 OFFCURVE",
"491 840 OFFCURVE",
"635 840 CURVE SMOOTH",
"744 840 OFFCURVE",
"816 799 OFFCURVE",
"846 781 CURVE",
"906 959 LINE",
"824 1015 OFFCURVE",
"728 1041 OFFCURVE",
"605 1041 CURVE SMOOTH"
);
}
);
width = 988;
}
);
unicode = 0063;
},
{
glyphname = cacute;
layers = (
{
layerId = "DC6F5AB8-73F2-4C0B-9A3E-015FFB242135";
name = Bold;
paths = (
{
closed = 1;
nodes = (
"433.5 1163 LINE",
"590.5 1163 LINE",
"885.5 1524 LINE",
"593.5 1524 LINE"
);
},
{
closed = 1;
nodes = (
"119 170 OFFCURVE",
"306 -18 OFFCURVE",
"601 -18 CURVE SMOOTH",
"792 -18 OFFCURVE",
"859 45 OFFCURVE",
"895 64 CURVE",
"862 247 LINE",
"791 207 OFFCURVE",
"717 178 OFFCURVE",
"627 183 CURVE SMOOTH",
"482 190 OFFCURVE",
"375 292 OFFCURVE",
"375 513 CURVE SMOOTH",
"375 735 OFFCURVE",
"490 833 OFFCURVE",
"634 840 CURVE SMOOTH",
"768 840 OFFCURVE",
"807 797 OFFCURVE",
"845 781 CURVE",
"905 959 LINE",
"819 1013 OFFCURVE",
"722 1041 OFFCURVE",
"604 1041 CURVE SMOOTH",
"327 1041 OFFCURVE",
"119 856 OFFCURVE",
"119 516 CURVE SMOOTH"
);
}
);
width = 993;
}
);
unicode = 0107;
},
{
glyphname = ccaron;
layers = (
{
layerId = "DC6F5AB8-73F2-4C0B-9A3E-015FFB242135";
name = Bold;
paths = (
{
closed = 1;
nodes = (
"417 1163 LINE",
"607 1163 LINE",
"855 1500 LINE",
"650 1500 LINE",
"500 1329 LINE",
"370 1500 LINE",
"169 1500 LINE"
);
},
{
closed = 1;
nodes = (
"119 170 OFFCURVE",
"306 -18 OFFCURVE",
"601 -18 CURVE SMOOTH",
"792 -18 OFFCURVE",
"859 45 OFFCURVE",
"895 64 CURVE",
"862 247 LINE",
"791 207 OFFCURVE",
"717 178 OFFCURVE",
"627 183 CURVE SMOOTH",
"482 190 OFFCURVE",
"375 292 OFFCURVE",
"375 513 CURVE SMOOTH",
"375 735 OFFCURVE",
"490 833 OFFCURVE",
"634 840 CURVE SMOOTH",
"768 840 OFFCURVE",
"807 797 OFFCURVE",
"845 781 CURVE",
"905 959 LINE",
"819 1013 OFFCURVE",
"722 1041 OFFCURVE",
"604 1041 CURVE SMOOTH",
"327 1041 OFFCURVE",
"119 856 OFFCURVE",
"119 516 CURVE SMOOTH"
);
}
);
width = 993;
}
);
unicode = 010D;
},
{
glyphname = ccedilla;
layers = (
{
layerId = "DC6F5AB8-73F2-4C0B-9A3E-015FFB242135";
name = Bold;
paths = (
{
closed = 1;
nodes = (
"322.5 -363 LINE",
"531.5 -363 LINE",
"585.5 -6 LINE",
"438.5 -6 LINE"
);
},
{
closed = 1;
nodes = (
"119 170 OFFCURVE",
"306 -18 OFFCURVE",
"601 -18 CURVE SMOOTH",
"792 -18 OFFCURVE",
"859 45 OFFCURVE",
"895 64 CURVE",
"862 247 LINE",
"791 207 OFFCURVE",
"717 178 OFFCURVE",
"627 183 CURVE SMOOTH",
"482 190 OFFCURVE",
"375 292 OFFCURVE",
"375 513 CURVE SMOOTH",
"375 735 OFFCURVE",
"490 833 OFFCURVE",
"634 840 CURVE SMOOTH",
"768 840 OFFCURVE",
"807 797 OFFCURVE",
"845 781 CURVE",
"905 959 LINE",
"819 1013 OFFCURVE",
"722 1041 OFFCURVE",
"604 1041 CURVE SMOOTH",
"327 1041 OFFCURVE",
"119 856 OFFCURVE",
"119 516 CURVE SMOOTH"
);
}
);
width = 993;
}
);
unicode = 00E7;
},
{
glyphname = ccircumflex;
layers = (
{
layerId = "DC6F5AB8-73F2-4C0B-9A3E-015FFB242135";
name = Bold;
paths = (
{
closed = 1;
nodes = (
"178.5 1163 LINE",
"359.5 1163 LINE",
"501.5 1357 LINE",
"659.5 1163 LINE",
"845.5 1163 LINE",
"609.5 1531 LINE",
"413.5 1531 LINE"
);
},
{
closed = 1;
nodes = (
"119 170 OFFCURVE",
"306 -18 OFFCURVE",
"601 -18 CURVE SMOOTH",
"792 -18 OFFCURVE",
"859 45 OFFCURVE",
"895 64 CURVE",
"862 247 LINE",
"791 207 OFFCURVE",
"717 178 OFFCURVE",
"627 183 CURVE SMOOTH",
"482 190 OFFCURVE",
"375 292 OFFCURVE",
"375 513 CURVE SMOOTH",
"375 735 OFFCURVE",
"490 833 OFFCURVE",
"634 840 CURVE SMOOTH",
"768 840 OFFCURVE",
"807 797 OFFCURVE",
"845 781 CURVE",
"905 959 LINE",
"819 1013 OFFCURVE",
"722 1041 OFFCURVE",
"604 1041 CURVE SMOOTH",
"327 1041 OFFCURVE",
"119 856 OFFCURVE",
"119 516 CURVE SMOOTH"
);
}
);
width = 993;
}
);
unicode = 0109;
},
{
glyphname = cdotaccent;
layers = (
{
layerId = "DC6F5AB8-73F2-4C0B-9A3E-015FFB242135";
name = Bold;
paths = (
{
closed = 1;
nodes = (
"413 1163 LINE",
"611 1163 LINE",
"611 1375 LINE",
"413 1375 LINE"
);
},
{
closed = 1;
nodes = (
"119 170 OFFCURVE",
"306 -18 OFFCURVE",
"601 -18 CURVE SMOOTH",
"792 -18 OFFCURVE",
"859 45 OFFCURVE",
"895 64 CURVE",
"862 247 LINE",
"791 207 OFFCURVE",
"717 178 OFFCURVE",
"627 183 CURVE SMOOTH",
"482 190 OFFCURVE",
"375 292 OFFCURVE",
"375 513 CURVE SMOOTH",
"375 735 OFFCURVE",
"490 833 OFFCURVE",
"634 840 CURVE SMOOTH",
"768 840 OFFCURVE",
"807 797 OFFCURVE",
"845 781 CURVE",
"905 959 LINE",
"819 1013 OFFCURVE",
"722 1041 OFFCURVE",
"604 1041 CURVE SMOOTH",
"327 1041 OFFCURVE",
"119 856 OFFCURVE",
"119 516 CURVE SMOOTH"
);
}
);
width = 993;
}
);
unicode = 010B;
},
